<?xml version="1.0" encoding="UTF-8" standalone="no"?>
<svg
   xmlns:dc="http://purl.org/dc/elements/1.1/"
   xmlns:cc="http://creativecommons.org/ns#"
   xmlns:rdf="http://www.w3.org/1999/02/22-rdf-syntax-ns#"
   xmlns:svg="http://www.w3.org/2000/svg"
   xmlns="http://www.w3.org/2000/svg"
   xmlns:sodipodi="http://sodipodi.sourceforge.net/DTD/sodipodi-0.dtd"
   xmlns:inkscape="http://www.inkscape.org/namespaces/inkscape"
   sodipodi:docname="2-doctors.svg"
   inkscape:version="1.0 (4035a4fb49, 2020-05-01)"
   id="svg5532"
   version="1.1"
   viewBox="0 0 96.797829 77.404488"
   height="77.404488mm"
   width="96.797829mm">
  <defs
     id="defs5526">
    <clipPath
       clipPathUnits="userSpaceOnUse"
       id="clipPath82">
      <path
         d="m 4177,4950.35 c 0,-164.27 133.17,-297.46 297.46,-297.46 164.27,0 297.45,133.19 297.45,297.46 0,164.29 -133.18,297.46 -297.45,297.46 -164.29,0 -297.46,-133.17 -297.46,-297.46"
         id="path80" />
    </clipPath>
    <clipPath
       clipPathUnits="userSpaceOnUse"
       id="clipPath268">
      <path
         d="m 5209.19,5056.58 4.42,2.18 v 0 l -4.42,-2.18"
         id="path266" />
    </clipPath>
  </defs>
  <sodipodi:namedview
     inkscape:window-maximized="0"
     inkscape:window-y="195"
     inkscape:window-x="1652"
     inkscape:window-height="860"
     inkscape:window-width="1274"
     showgrid="false"
     inkscape:document-rotation="0"
     inkscape:current-layer="layer1"
     inkscape:document-units="mm"
     inkscape:cy="206.75406"
     inkscape:cx="325.14339"
     inkscape:zoom="1.4"
     inkscape:pageshadow="2"
     inkscape:pageopacity="0.0"
     borderopacity="1.0"
     bordercolor="#666666"
     pagecolor="#ffffff"
     id="base" />
  <metadata
     id="metadata5529">
    <rdf:RDF>
      <cc:Work
         rdf:about="">
        <dc:format>image/svg+xml</dc:format>
        <dc:type
           rdf:resource="http://purl.org/dc/dcmitype/StillImage" />
        <dc:title></dc:title>
      </cc:Work>
    </rdf:RDF>
  </metadata>
  <g
     transform="translate(-47.60704,-45.208471)"
     id="layer1"
     inkscape:groupmode="layer"
     inkscape:label="Layer 1">
    <path
       d="m 97.5443,80.603122 h -5.100815 l -1.365956,10.787946 h 7.833783 L 97.5443,80.603122"
       style="fill:#a68c6d;fill-opacity:1;fill-rule:nonzero;stroke:none;stroke-width:0.0352777"
       id="path52" />
    <path
       d="M 99.421783,90.717614 H 90.25097 v 0.863954 h 9.170813 v -0.863954"
       style="fill:#d1ba9e;fill-opacity:1;fill-rule:nonzero;stroke:none;stroke-width:0.0352777"
       id="path54" />
    <path
       d="M 112.8291,54.291193 76.994642,54.952651 76.334948,85.501089 H 114.4794 l -1.6503,-31.209896"
       style="fill:#bea180;fill-opacity:1;fill-rule:nonzero;stroke:none;stroke-width:0.0352777"
       id="path56" />
    <path
       d="m 112.4601,54.663021 -35.075285,0.644878 -0.64629,29.822069 H 114.07547 L 112.4601,54.663021"
       style="fill:#d1ba9e;fill-opacity:1;fill-rule:nonzero;stroke:none;stroke-width:0.0352777"
       id="path58" />
    <path
       d="M 110.23654,54.793548 H 100.20213 L 84.164143,85.074581 H 97.57111 l 12.66543,-30.281033"
       style="fill:#e2ccb3;fill-opacity:1;fill-rule:nonzero;stroke:none;stroke-width:0.0352777"
       id="path60" />
    <path
       d="M 114.21552,80.414035 112.8291,54.291193 76.994642,54.952651 76.460183,80.414035 h 37.755337"
       style="fill:#514a41;fill-opacity:1;fill-rule:nonzero;stroke:none;stroke-width:0.0352777"
       id="path62" />
    <path
       d="m 94.04051,58.692096 c 6.95396,0 13.4807,0.723194 19.12726,1.988255 l -0.33867,-6.389158 -35.834458,0.661458 -0.111832,5.315656 c 5.174898,-1.008592 10.9982,-1.576211 17.1577,-1.576211"
       style="fill:#453d36;fill-opacity:1;fill-rule:nonzero;stroke:none;stroke-width:0.0352777"
       id="path64" />
    <path
       d="m 111.77218,55.574952 -33.535762,0.59055 -0.67945,23.426208 h 35.696522 l -1.48131,-24.016758"
       style="fill:#f9efd3;fill-opacity:1;fill-rule:nonzero;stroke:none;stroke-width:0.0352777"
       id="path66" />
    <path
       d="m 111.57145,55.876224 -33.124069,0.575733 -0.671338,22.83848 h 35.257667 l -1.46226,-23.414213"
       style="fill:#41645f;fill-opacity:1;fill-rule:nonzero;stroke:none;stroke-width:0.0352777"
       id="path68" />
    <path
       d="m 113.03371,79.290437 -1.46226,-23.414213 -1.64712,0.02857 -13.882512,23.385638 h 16.991892"
       style="fill:#314a47;fill-opacity:1;fill-rule:nonzero;stroke:none;stroke-width:0.0352777"
       id="path70" />
    <path
       d="m 96.651418,56.135515 -18.204037,0.316442 -0.671338,22.83848 h 5.12939 L 96.651418,56.135515"
       style="fill:#314a47;fill-opacity:1;fill-rule:nonzero;stroke:none;stroke-width:0.0352777"
       id="path72" />
    <path
       d="m 96.419292,82.607606 h -3.89255 v 0.274108 h 3.89255 v -0.274108"
       style="fill:#514a41;fill-opacity:1;fill-rule:nonzero;stroke:none;stroke-width:0.0352777"
       id="path74" />
    <g
       transform="matrix(0.03527778,0,0,-0.03527778,-62.3681,242.33868)"
       id="g76">
      <g
         id="g78"
         clip-path="url(#clipPath82)">
        <path
           d="m 4363.74,4782.51 c 0,0 0,0 0,0.01 0,-0.01 0,-0.01 0,-0.01 m 0,0.01 v 0.01 -0.01 m -0.01,0.04 v 0 0 m 102.01,0.03 c -33.41,0 -68.26,3.55 -103.46,11.84 0.48,-4.17 0.86,-7.3 1.12,-9.31 -1.13,8.86 -4.86,39.77 -8.03,84.77 0.02,-0.16 0.04,-0.32 0.07,-0.49 h -0.01 c 0.05,-0.36 0.11,-0.72 0.16,-1.07 0.04,-0.25 0.07,-0.51 0.11,-0.76 0.21,-1.42 0.41,-2.83 0.64,-4.32 l 188.72,2.21 c 10.81,0.12 21.09,4.51 28.42,12.12 7.33,7.6 11.06,17.77 10.31,28.09 l -0.64,8.89 c -2.81,38.78 -36.51,68.79 -76.13,68.79 -0.31,0 -0.62,0 -0.93,0 l -155.49,-1.83 c -0.15,10.37 -0.22,20.99 -0.2,31.82 l 96.98,163.36 c 9.43,-3.57 19.37,-5.26 28.92,-5.79 1.37,-0.07 2.75,-0.11 4.13,-0.11 30.33,0 61.41,18.41 72.07,66.67 90.55,-24.56 163.96,-90.82 198.32,-176.88 l -154.08,-259.54 c -38.4,-11.17 -83.21,-18.46 -131,-18.46"
           style="fill:#6bccae;fill-opacity:1;fill-rule:nonzero;stroke:none"
           id="path84" />
        <path
           d="m 4596.74,4801.05 154.08,259.54 c 13.44,-33.68 20.91,-70.4 21.09,-108.83 -9.45,-0.74 -19.05,-1.11 -28.82,-1.11 -3.74,0 -7.48,0.05 -11.26,0.16 -3.3,-23.74 -6.06,-46.11 -8.11,-66.32 -2.59,-25.97 -52.95,-61.91 -126.98,-83.44"
           style="fill:#4b9d89;fill-opacity:1;fill-rule:nonzero;stroke:none"
           id="path86" />
        <path
           d="m 4350.4,5013.34 c 0.01,5.97 0.06,12.01 0.13,18.11 0.18,0.01 0.35,0.01 0.53,0.02 0.03,5.52 0.08,11.05 0.16,16.66 -7.86,10.07 -18.94,13.1 -30.98,13.1 -9.08,0 -18.71,-1.72 -27.91,-3.44 -9.21,-1.73 -17.98,-3.45 -25.36,-3.45 -4.3,0 -8.12,0.58 -11.27,2.09 -0.72,-2.21 -1.15,-4 -1.23,-5.28 -1.22,11.22 51.15,98.63 94.74,169.09 16.84,7.82 34.53,14.12 52.89,18.71 4.92,-36.13 23.73,-54.09 45.28,-62.25 l -96.98,-163.36"
           style="fill:#4b9d89;fill-opacity:1;fill-rule:nonzero;stroke:none"
           id="path88" />
        <path
           d="m 4354.98,4875.56 v 0 c 1.84,0.03 3.72,0.06 5.63,0.1 v 0 c -1.91,-0.04 -3.79,-0.07 -5.63,-0.1 m 33.68,1.03 v 0 c 1.88,0.07 3.79,0.13 5.71,0.19 v -0.01 c -1.92,-0.05 -3.83,-0.11 -5.71,-0.18"
           style="fill:#6bccae;fill-opacity:1;fill-rule:nonzero;stroke:none"
           id="path90" />
        <path
           d="m 4752.22,4936.96 c -0.68,0 -1.38,0 -2.06,0 0.68,0 1.37,0 2.06,0 0.27,0 0.53,0 0.81,0 -0.27,0 -0.55,0 -0.81,0 m 0.93,0 c 0.53,0 1.1,0 1.63,0.01 -0.53,-0.01 -1.1,-0.01 -1.63,-0.01 m 1.73,0.01 c 0.55,0 1.11,0 1.66,0.01 -0.55,-0.01 -1.1,-0.01 -1.66,-0.01 m 1.72,0.01 c 0.55,0.01 1.12,0.02 1.67,0.02 -0.55,0 -1.11,-0.01 -1.67,-0.02 m 1.74,0.03 c 0.57,0 1.11,0.01 1.68,0.03 -0.58,-0.02 -1.1,-0.02 -1.68,-0.03 m 1.73,0.03 c 0.56,0.01 1.14,0.02 1.7,0.04 -0.58,-0.02 -1.13,-0.03 -1.7,-0.04 m 1.71,0.04 c 3.3,0.08 6.59,0.21 9.85,0.38 v 0 c -3.27,-0.17 -6.53,-0.3 -9.85,-0.38 m -20.07,0.02 c -0.25,0.01 -0.5,0.01 -0.75,0.02 0.24,-0.01 0.51,-0.01 0.75,-0.02"
           style="fill:#4b9d89;fill-opacity:1;fill-rule:nonzero;stroke:none"
           id="path92" />
        <path
           d="m 4355.7,4867.57 c -0.04,0.25 -0.07,0.51 -0.11,0.76 0.04,-0.26 0.07,-0.51 0.11,-0.76 m -0.26,1.83 c -0.03,0.17 -0.05,0.33 -0.07,0.49 -0.24,1.73 -0.47,3.41 -0.7,5.12 0.26,-1.68 0.5,-3.31 0.79,-5.05 l 5.89,0.07 0.07,-0.52 -5.98,-0.11 m 33.36,0.58 v 0.34 l 6.41,0.07 0.04,-0.3 -6.45,-0.11 m 33.9,0.58 v 0.12 l 7.74,0.09 0.01,-0.08 -7.75,-0.13 m -68.09,4.87 c 0,0.04 -0.01,0.08 -0.01,0.13 0.12,0 0.25,0 0.38,0 1.84,0.03 3.72,0.06 5.63,0.1 l 0.01,-0.14 -6.01,-0.09 m 34.06,0.53 -0.01,0.63 c 1.88,0.07 3.79,0.13 5.71,0.18 l 0.09,-0.72 -5.79,-0.09 m 33.9,0.53 -0.02,0.65 c 2.34,-0.01 4.69,-0.04 7.06,-0.07 l 0.06,-0.47 -7.1,-0.11 m 105.8,1.76 -0.07,2.79 c 2,0.52 3.91,1.09 5.72,1.72 l 0.47,-3.57 c -2,-0.45 -4.05,-0.77 -6.12,-0.94 m 32.45,24.55 c -1.4,2.4 -3.54,4.25 -6.07,5.2 -0.17,4.79 -1.51,10.3 -4.19,16.62 -2.03,4.78 -4.23,9.08 -6.59,12.94 2.86,0.8 5.15,2.83 6.41,5.57 5.93,-7.74 9.63,-16.76 10.38,-26.5 l 0.53,-6.92 c 0.18,-2.33 0.01,-4.64 -0.47,-6.91 m -37.91,56.37 c -1.73,1.05 -3.51,2.02 -5.34,2.89 l -0.24,3.64 c 1.97,-0.65 3.9,-1.36 5.77,-2.15 l -0.19,-4.38 m -32.57,10.13 c -1.59,0.18 -3.2,0.34 -4.84,0.47 l 4.02,0.06 c 0.28,0.01 0.56,0.01 0.84,0.01 l -0.02,-0.54"
           style="fill:#57ac94;fill-opacity:1;fill-rule:nonzero;stroke:none"
           id="path94" />
        <path
           d="m 4361.42,4869.51 -0.07,0.52 27.45,0.29 v -0.34 l -27.38,-0.47 m -0.8,6.01 -0.01,0.14 v 0 l -2.82,21.4 c -0.39,2.94 0.45,5.9 2.28,8.13 1.83,2.23 4.49,3.52 7.26,3.52 h 9.16 c 6.38,0 11.58,-5.4 11.73,-12.16 l 0.44,-19.96 v 0 l 0.01,-0.63 -28.05,-0.44"
           style="fill:#79d2c8;fill-opacity:1;fill-rule:nonzero;stroke:none"
           id="path96" />
        <path
           d="m 4395.25,4870.09 -0.04,0.3 27.49,0.29 v -0.12 l -27.45,-0.47 m -0.79,5.96 -0.09,0.72 v 0.01 l -2.67,20.28 c -0.39,2.94 0.46,5.9 2.28,8.13 1.83,2.23 4.48,3.52 7.27,3.52 h 9.15 c 6.38,0 11.58,-5.4 11.73,-12.16 l 0.42,-19.41 0.02,-0.65 -28.11,-0.44"
           style="fill:#79d2c8;fill-opacity:1;fill-rule:nonzero;stroke:none"
           id="path98" />
        <path
           d="m 4430.45,4870.69 -0.01,0.08 11.33,0.12 -11.32,-0.2 m -0.78,5.91 -0.06,0.47 -2.63,19.99 c -0.39,2.94 0.44,5.9 2.28,8.13 1.83,2.23 4.48,3.52 7.27,3.52 h 9.15 c 6.37,0 11.59,-5.4 11.73,-12.16 l 0.43,-19.5 -28.17,-0.45"
           style="fill:#79d2c8;fill-opacity:1;fill-rule:nonzero;stroke:none"
           id="path100" />
        <path
           d="m 4464.87,4877.16 -2.62,19.9 c -0.38,2.94 0.45,5.9 2.28,8.13 1.84,2.23 4.49,3.52 7.26,3.52 h 9.16 c 6.38,0 11.59,-5.4 11.73,-12.16 l 0.42,-18.95 -28.23,-0.44"
           style="fill:#79d2c8;fill-opacity:1;fill-rule:nonzero;stroke:none"
           id="path102" />
        <path
           d="m 4500.08,4877.71 -2.56,19.35 c -0.38,2.94 0.46,5.9 2.3,8.13 1.83,2.23 4.47,3.52 7.27,3.52 h 9.14 c 6.38,0 11.59,-5.4 11.73,-12.16 l 0.34,-15.51 0.07,-2.79 c -0.99,-0.08 -1.98,-0.13 -2.97,-0.14 l -25.32,-0.4"
           style="fill:#79d2c8;fill-opacity:1;fill-rule:nonzero;stroke:none"
           id="path104" />
        <path
           d="m 4534.49,4879.19 -0.47,3.57 -1.89,14.3 c -0.39,2.94 0.44,5.9 2.29,8.13 1.82,2.23 4.48,3.52 7.27,3.52 h 9.14 c 1.38,0 2.7,-0.25 3.92,-0.71 2.53,-0.95 4.67,-2.8 6.07,-5.2 -1.21,-5.57 -4.37,-10.82 -9.19,-15.08 -4.69,-4.12 -10.64,-7.05 -17.14,-8.53"
           style="fill:#79d2c8;fill-opacity:1;fill-rule:nonzero;stroke:none"
           id="path106" />
        <path
           d="m 4374.98,4937.19 h -8.74 c -2.68,0 -5.38,1.21 -7.45,3.33 -2.07,2.12 -3.3,4.95 -3.34,7.75 l -0.37,19.45 27.46,0.43 2.13,-19.4 c 0.7,-6.45 -3.6,-11.56 -9.69,-11.56"
           style="fill:#79d2c8;fill-opacity:1;fill-rule:nonzero;stroke:none"
           id="path108" />
        <path
           d="m 4407.35,4937.19 h -8.73 c -2.66,0 -5.34,1.21 -7.37,3.33 -2.02,2.11 -3.2,4.94 -3.17,7.74 l 0.06,19.98 27.37,0.43 1.76,-19.92 c 0.56,-6.46 -3.86,-11.56 -9.92,-11.56"
           style="fill:#79d2c8;fill-opacity:1;fill-rule:nonzero;stroke:none"
           id="path110" />
        <path
           d="m 4440.96,4937.19 h -8.71 c -2.66,0 -5.31,1.21 -7.26,3.33 -1.99,2.11 -3.1,4.94 -3.02,7.73 l 0.52,20.53 27.29,0.43 1.34,-20.47 c 0.42,-6.45 -4.09,-11.55 -10.16,-11.55"
           style="fill:#79d2c8;fill-opacity:1;fill-rule:nonzero;stroke:none"
           id="path112" />
        <path
           d="m 4474.59,4937.19 h -8.73 c -2.66,0 -5.29,1.23 -7.22,3.41 -1.94,2.15 -2.99,5.02 -2.86,7.84 l 0.91,20.88 26.73,0.41 1.34,-20.79 c 0.43,-6.54 -4.1,-11.75 -10.17,-11.75"
           style="fill:#79d2c8;fill-opacity:1;fill-rule:nonzero;stroke:none"
           id="path114" />
        <path
           d="m 4508.25,4937.19 h -8.73 c -2.67,0 -5.32,1.23 -7.23,3.41 -1.94,2.15 -2.99,5.02 -2.86,7.84 l 0.91,20.86 0.02,0.54 c 0.2,0 0.4,0 0.6,0 9.32,0 18.23,-1.46 26.37,-4.14 l 0.24,-3.64 0.84,-13.12 c 0.42,-6.54 -4.09,-11.75 -10.16,-11.75"
           style="fill:#79d2c8;fill-opacity:1;fill-rule:nonzero;stroke:none"
           id="path116" />
        <path
           d="m 4541.26,4937.19 h -8.73 c -2.68,0 -5.3,1.23 -7.24,3.41 -1.94,2.15 -2.98,5.02 -2.84,7.84 l 0.46,10.73 0.19,4.38 c 11.2,-4.68 20.64,-11.75 27.28,-20.42 -1.26,-2.74 -3.55,-4.77 -6.41,-5.57 -0.86,-0.24 -1.77,-0.37 -2.71,-0.37"
           style="fill:#79d2c8;fill-opacity:1;fill-rule:nonzero;stroke:none"
           id="path118" />
        <path
           d="m 4480.43,5170.8 c -1.38,0 -2.76,0.04 -4.13,0.11 -9.55,0.53 -19.49,2.22 -28.92,5.79 l 13.25,22.31 c 8.13,-8.77 19.17,-12.63 29.6,-13.98 1.83,-0.24 3.68,-0.36 5.54,-0.36 20.39,0 41.62,14.76 47.51,55.14 3.1,-0.73 6.17,-1.51 9.22,-2.34 -10.66,-48.26 -41.74,-66.67 -72.07,-66.67"
           style="fill:#57ac94;fill-opacity:1;fill-rule:nonzero;stroke:none"
           id="path120" />
        <path
           d="m 4447.38,5176.7 c -21.55,8.16 -40.36,26.12 -45.28,62.25 15.13,3.78 30.71,6.4 46.65,7.77 -2.18,-23.43 3.2,-38.36 11.88,-47.71 l -13.25,-22.31"
           style="fill:#407f71;fill-opacity:1;fill-rule:nonzero;stroke:none"
           id="path122" />
        <path
           d="m 4495.77,5184.67 c -1.86,0 -3.71,0.12 -5.54,0.36 -10.43,1.35 -21.47,5.21 -29.6,13.98 l 28.75,48.44 c 18.46,-0.92 36.48,-3.51 53.9,-7.64 -5.89,-40.38 -27.12,-55.14 -47.51,-55.14"
           style="fill:#4f887d;fill-opacity:1;fill-rule:nonzero;stroke:none"
           id="path124" />
        <path
           d="m 4460.63,5199.01 c -8.68,9.35 -14.06,24.28 -11.88,47.71 8.48,0.72 17.04,1.09 25.71,1.09 5,0 9.98,-0.12 14.92,-0.36 l -28.75,-48.44"
           style="fill:#39635e;fill-opacity:1;fill-rule:nonzero;stroke:none"
           id="path126" />
        <path
           d="m 4330.11,5030.89 c -33.03,0 -66.69,4.56 -75.37,18.48 -0.24,0.38 -0.32,0.98 -0.27,1.78 0.08,1.28 0.51,3.07 1.23,5.28 3.15,-1.51 6.97,-2.09 11.27,-2.09 7.38,0 16.15,1.72 25.36,3.45 9.2,1.72 18.83,3.44 27.91,3.44 12.04,0 23.12,-3.03 30.98,-13.1 -0.08,-5.61 -0.13,-11.14 -0.16,-16.66 -0.18,-0.01 -0.35,-0.01 -0.53,-0.02 -6.62,-0.36 -13.5,-0.56 -20.42,-0.56 m -13.58,20.91 c -12.15,0 -21.95,-3.34 -21.98,-7.55 -0.02,-4.27 10.02,-7.81 22.43,-7.9 2.26,-0.02 4.49,-0.06 6.62,-0.06 9.56,0 17.18,0.78 17.22,7.6 0.05,8.35 -11.34,7.81 -23.76,7.91 -0.18,0 -0.36,0 -0.53,0"
           style="fill:#62c9ad;fill-opacity:1;fill-rule:nonzero;stroke:none"
           id="path128" />
        <path
           d="m 4474.79,4768.81 c -35.79,0 -73.3,4.09 -111.05,13.7 v 0 c 0,0 0,0 0,0.01 v 0 0.01 c 0,0.01 0,0.02 -0.01,0.03 v 0 c -0.02,0.21 -0.14,1.08 -0.33,2.56 -0.26,2.01 -0.64,5.14 -1.12,9.31 35.2,-8.29 70.05,-11.84 103.46,-11.84 47.79,0 92.6,7.29 131,18.46 l -11.39,-19.2 c -33.53,-8.05 -71.01,-13.04 -110.56,-13.04"
           style="fill:#79d2c8;fill-opacity:1;fill-rule:nonzero;stroke:none"
           id="path130" />
        <path
           d="m 4585.35,4781.85 11.39,19.2 c 74.03,21.53 124.39,57.47 126.98,83.44 2.05,20.21 4.81,42.58 8.11,66.32 3.78,-0.11 7.52,-0.16 11.26,-0.16 9.77,0 19.37,0.37 28.82,1.11 0,-0.48 0,-0.94 0,-1.41 0,-4.32 -0.09,-8.62 -0.28,-12.89 -3.26,-0.17 -6.55,-0.3 -9.85,-0.38 h -0.01 c -0.56,-0.02 -1.14,-0.03 -1.7,-0.04 -0.02,0 -0.03,0 -0.05,0 -0.57,-0.02 -1.11,-0.03 -1.68,-0.03 -0.01,0 -0.05,0 -0.07,-0.01 -0.55,0 -1.12,-0.01 -1.67,-0.02 -0.03,0 -0.02,0 -0.06,0 -0.55,-0.01 -1.11,-0.01 -1.66,-0.01 -0.03,0 -0.06,0 -0.1,0 -0.53,-0.01 -1.1,-0.01 -1.63,-0.01 -0.04,0 -0.09,0 -0.12,0 -0.28,0 -0.54,0 -0.81,0 -0.69,0 -1.38,0 -2.06,0 -2.81,0.02 -5.62,0.06 -8.45,0.14 -0.24,0.01 -0.51,0.01 -0.75,0.02 v 0 c -3.3,-23.75 -6.06,-46.1 -8.1,-66.33 -2.83,-28.3 -62.38,-68.49 -147.51,-88.94"
           style="fill:#62c9ad;fill-opacity:1;fill-rule:nonzero;stroke:none"
           id="path132" />
        <path
           d="m 4356.34,4863.25 c -0.23,1.49 -0.43,2.9 -0.64,4.32 -0.04,0.25 -0.07,0.5 -0.11,0.76 -0.05,0.35 -0.11,0.71 -0.16,1.07 h 0.01 l 5.98,0.11 27.38,0.47 6.45,0.11 27.45,0.47 7.75,0.13 11.32,0.2 96.6,1.03 c 10.19,0.11 19.87,4 26.77,10.77 6.91,6.74 10.42,15.78 9.71,24.95 l -0.6,7.89 c -2.64,34.44 -34.37,61.11 -71.68,61.11 -0.3,0 -0.6,-0.01 -0.9,-0.01 l -152.06,-1.62 c -0.17,2.14 -0.53,4.25 0.24,6.5 l 0.75,0.01 155.49,1.83 c 0.31,0 0.62,0 0.93,0 39.62,0 73.32,-30.01 76.13,-68.79 l 0.64,-8.89 c 0.75,-10.32 -2.98,-20.49 -10.31,-28.09 -7.33,-7.61 -17.61,-12 -28.42,-12.12 l -188.72,-2.21"
           style="fill:#79d2c8;fill-opacity:1;fill-rule:nonzero;stroke:none"
           id="path134" />
        <path
           d="m 4323.6,5036.29 c -2.13,0 -4.36,0.04 -6.62,0.06 -12.41,0.09 -22.45,3.63 -22.43,7.9 0.03,4.21 9.83,7.55 21.98,7.55 0.17,0 0.35,0 0.53,0 12.42,-0.1 23.81,0.44 23.76,-7.91 -0.04,-6.82 -7.66,-7.6 -17.22,-7.6"
           style="fill:#4b9d89;fill-opacity:1;fill-rule:nonzero;stroke:none"
           id="path136" />
        <path
           d="m 4355.46,4869.96 c -0.29,1.74 -0.53,3.37 -0.79,5.05 -0.02,0.14 -0.04,0.28 -0.07,0.42 h 0.01 l 6.01,0.09 28.05,0.44 5.79,0.09 28.11,0.44 7.1,0.11 28.17,0.45 7.03,0.11 28.23,0.44 6.98,0.11 25.32,0.4 c 0.99,0.01 1.98,0.06 2.97,0.14 2.07,0.17 4.12,0.49 6.12,0.94 6.5,1.48 12.45,4.41 17.14,8.53 4.82,4.26 7.98,9.51 9.19,15.08 0.48,2.27 0.65,4.58 0.47,6.91 l -0.53,6.92 c -0.75,9.74 -4.45,18.76 -10.38,26.5 -6.64,8.67 -16.08,15.74 -27.28,20.42 -1.87,0.79 -3.8,1.5 -5.77,2.15 -8.14,2.68 -17.05,4.14 -26.37,4.14 -0.2,0 -0.4,0 -0.6,0 -0.28,0 -0.56,0 -0.84,-0.01 l -4.02,-0.06 -2.08,-0.04 -26.73,-0.41 -6.91,-0.11 -27.29,-0.43 -6.98,-0.11 -27.37,-0.43 -5.6,-0.09 -27.46,-0.43 -5.89,-0.09 c 0.05,2.46 -0.77,4.81 0.15,7.38 h 0.27 l 152.06,1.62 c 0.3,0 0.6,0.01 0.9,0.01 37.31,0 69.04,-26.67 71.68,-61.11 l 0.6,-7.89 c 0.71,-9.17 -2.8,-18.21 -9.71,-24.95 -6.9,-6.77 -16.58,-10.66 -26.77,-10.77 l -96.6,-1.03 -11.33,-0.12 -7.74,-0.09 -27.49,-0.29 -6.41,-0.07 -27.45,-0.29 -5.89,-0.07"
           style="fill:#57ac94;fill-opacity:1;fill-rule:nonzero;stroke:none"
           id="path138" />
      </g>
    </g>
    <path
       d="m 95.492192,78.007385 c -5.717472,0 -10.352265,-4.634796 -10.352265,-10.351912 0,-5.717469 4.634793,-10.352263 10.352265,-10.352263 5.717118,0 10.351908,4.634794 10.351908,10.352263 0,5.717116 -4.63479,10.351912 -10.351908,10.351912 z m 0,-20.975814 c -5.8674,0 -10.623905,4.756503 -10.623905,10.623902 0,5.867047 4.756505,10.623904 10.623905,10.623904 5.867048,0 10.623198,-4.756857 10.623198,-10.623904 0,-5.867399 -4.75615,-10.623902 -10.623198,-10.623902"
       style="fill:#85c1af;fill-opacity:1;fill-rule:nonzero;stroke:none;stroke-width:0.0352777"
       id="path140" />
    <path
       d="m 82.5075,58.322032 c -0.701675,0 -1.270707,0.569031 -1.270707,1.270706 0,0.702027 0.569032,1.270705 1.270707,1.270705 0.702027,0 1.270704,-0.568678 1.270704,-1.270705 0,-0.701675 -0.568677,-1.270706 -1.270704,-1.270706"
       style="fill:#85c1af;fill-opacity:1;fill-rule:nonzero;stroke:none;stroke-width:0.0352777"
       id="path142" />
    <path
       d="m 86.316087,62.617807 -3.396544,-2.438753 0.2032,-0.282928 3.396192,2.4384 -0.202848,0.283281"
       style="fill:#85c1af;fill-opacity:1;fill-rule:nonzero;stroke:none;stroke-width:0.0352777"
       id="path144" />
    <path
       d="m 84.941312,76.887668 c -0.05715,0.440619 0.253648,0.844902 0.694621,0.902759 0.440971,0.05785 0.845609,-0.252238 0.903462,-0.693209 0.0575,-0.440621 -0.253293,-0.844904 -0.694266,-0.903464 -0.441325,-0.05821 -0.845609,0.252941 -0.903817,0.693914"
       style="fill:#85c1af;fill-opacity:1;fill-rule:nonzero;stroke:none;stroke-width:0.0352777"
       id="path146" />
    <path
       d="m 87.955093,74.848964 -1.812218,1.932871 -0.161573,-0.150638 1.812925,-1.932868 0.160866,0.150635"
       style="fill:#85c1af;fill-opacity:1;fill-rule:nonzero;stroke:none;stroke-width:0.0352777"
       id="path148" />
    <path
       d="m 108.76687,59.745138 c 0.19226,-0.57397 -0.11607,-1.195917 -0.69074,-1.389239 -0.57362,-0.19297 -1.19521,0.115711 -1.38924,0.690033 -0.19226,0.574322 0.11677,1.196269 0.69039,1.389944 0.57432,0.19297 1.19626,-0.116416 1.38959,-0.690738"
       style="fill:#85c1af;fill-opacity:1;fill-rule:nonzero;stroke:none;stroke-width:0.0352777"
       id="path150" />
    <path
       d="m 104.2058,61.679771 2.92876,-2.108553 0.17533,0.24377 -2.92876,2.108905 -0.17533,-0.244122"
       style="fill:#85c1af;fill-opacity:1;fill-rule:nonzero;stroke:none;stroke-width:0.0352777"
       id="path152" />
    <path
       d="m 111.39718,56.050143 1.44392,23.123877 h 0.30868 l -1.46227,-23.41386 -33.124067,0.575733 -0.0085,0.285397 32.842197,-0.571147"
       style="fill:#6ca696;fill-opacity:1;fill-rule:nonzero;stroke:none;stroke-width:0.0352777"
       id="path154" />
    <path
       d="m 71.676869,92.46457 h -0.987072 l 1.727553,30.14839 h 0.678744 L 71.676869,92.46457"
       style="fill:#594639;fill-opacity:1;fill-rule:nonzero;stroke:none;stroke-width:0.0352777"
       id="path156" />
    <path
       d="m 122.33717,92.46457 h 1.39312 l -1.4926,30.14839 h -1.12748 l 1.22696,-30.14839"
       style="fill:#594639;fill-opacity:1;fill-rule:nonzero;stroke:none;stroke-width:0.0352777"
       id="path158" />
    <path
       d="m 115.47846,92.46457 h 1.30563 l -1.43792,30.14839 h -1.04739 l 1.17968,-30.14839"
       style="fill:#594639;fill-opacity:1;fill-rule:nonzero;stroke:none;stroke-width:0.0352777"
       id="path160" />
    <path
       d="m 122.82859,101.36233 h -6.79133 v 0.86325 h 6.79133 v -0.86325"
       style="fill:#594639;fill-opacity:1;fill-rule:nonzero;stroke:none;stroke-width:0.0352777"
       id="path162" />
    <path
       d="m 78.669631,92.033477 -8.704792,-7.94e-4 0.811389,2.936875 h 7.893403 v -2.936081"
       style="fill:#7d6d63;fill-opacity:1;fill-rule:nonzero;stroke:none;stroke-width:0.0352777"
       id="path164" />
    <path
       d="m 123.74264,92.033477 -44.840882,-7.94e-4 0.296334,2.936875 h 44.163548 l 0.381,-2.936168"
       style="fill:#594639;fill-opacity:1;fill-rule:nonzero;stroke:none;stroke-width:0.0352777"
       id="path166" />
    <path
       d="m 71.046808,92.46457 h -0.987072 l 1.727905,30.14839 h 0.678392 L 71.046808,92.46457"
       style="fill:#7d6d63;fill-opacity:1;fill-rule:nonzero;stroke:none;stroke-width:0.0352777"
       id="path168" />
    <path
       d="m 79.047102,92.46457 h -0.950029 l 1.661935,30.14839 h 0.653344 l -1.36525,-30.14839"
       style="fill:#7d6d63;fill-opacity:1;fill-rule:nonzero;stroke:none;stroke-width:0.0352777"
       id="path170" />
    <path
       d="m 79.477843,92.46457 h -0.950028 l 1.662641,30.14839 H 80.8438 L 79.477843,92.46457"
       style="fill:#594639;fill-opacity:1;fill-rule:nonzero;stroke:none;stroke-width:0.0352777"
       id="path172" />
    <path
       d="m 78.86895,101.36162 h -7.856009 v 0.86466 h 7.856009 v -0.86466"
       style="fill:#7d6d63;fill-opacity:1;fill-rule:nonzero;stroke:none;stroke-width:0.0352777"
       id="path174" />
    <path
       d="m 124.93961,91.082739 -56.335435,-0.0011 0.23248,1.104196 0.677687,0.624062 H 124.1321 l 0.42721,-0.514702 0.3803,-1.212498"
       style="fill:#dbc0a1;fill-opacity:1;fill-rule:nonzero;stroke:none;stroke-width:0.0352777"
       id="path176" />
    <path
       d="m 78.439267,92.041589 0.43321,0.794456 H 124.1321 l 0.48789,-0.79375 -46.180723,-7.93e-4"
       style="fill:#c0926a;fill-opacity:1;fill-rule:nonzero;stroke:none;stroke-width:0.0352777"
       id="path178" />
    <path
       d="m 118.06256,49.800332 c -0.88018,0.197908 -3.86821,-1.368425 -2.63066,-2.6797 1.24036,-1.310922 3.30729,0.497769 5.72664,0.129117 0.74224,-0.113242 -3.09598,2.550583 -3.09598,2.550583"
       style="fill:#803626;fill-opacity:1;fill-rule:nonzero;stroke:none;stroke-width:0.0352777"
       id="path180" />
    <path
       d="m 120.48791,49.094776 c -0.87983,0.197556 -3.86927,-1.368777 -2.63067,-2.679347 1.23861,-1.311275 3.30694,0.496711 5.72559,0.128764 0.74224,-0.113242 -3.09492,2.550583 -3.09492,2.550583"
       style="fill:#803626;fill-opacity:1;fill-rule:nonzero;stroke:none;stroke-width:0.0352777"
       id="path182" />
    <path
       d="m 122.2525,48.691551 c -0.89605,0.06738 -3.65336,-1.921227 -2.25531,-3.039533 1.39771,-1.115836 3.21063,0.976489 5.65397,0.966258 0.74895,-0.0035 -3.39866,2.073275 -3.39866,2.073275"
       style="fill:#803626;fill-opacity:1;fill-rule:nonzero;stroke:none;stroke-width:0.0352777"
       id="path184" />
    <path
       d="m 115.1726,47.557371 c 0.34255,1.008592 2.46239,1.634772 3.12914,1.374069 0,0 0.91087,-0.856897 1.69757,-1.656644 0.37535,0.03316 0.7627,0.03493 1.15923,-0.02505 0.74224,-0.113242 -3.09598,2.550583 -3.09598,2.550583 -0.78317,0.176036 -3.23815,-1.047044 -2.88996,-2.242961"
       style="fill:#61271e;fill-opacity:1;fill-rule:nonzero;stroke:none;stroke-width:0.0352777"
       id="path186" />
    <path
       d="m 118.58749,59.508071 c 0,0 -0.82232,0.510117 -1.53493,0.27305 0.19403,-0.611717 0.45297,-4.519436 0.45297,-4.519436 0,0 1.16769,3.907014 1.08196,4.246386"
       style="fill:#f89f82;fill-opacity:1;fill-rule:nonzero;stroke:none;stroke-width:0.0352777"
       id="path188" />
    <path
       d="m 119.69839,63.498693 c 1.30845,0.201436 3.72181,-1.957564 3.43006,-4.955822 -0.29245,-2.998611 -2.55482,-11.937647 -4.77097,-10.817578 -1.26153,0.63747 -2.73685,4.612922 -1.58115,6.449131 0.81316,1.29293 -7.9e-4,4.23298 2.92206,9.324269"
       style="fill:#fddba6;fill-opacity:1;fill-rule:nonzero;stroke:none;stroke-width:0.0352777"
       id="path190" />
    <path
       d="m 123.75745,59.663646 2.71745,4.478866 -4.18395,1.213556 c -1.17228,-2.131836 -2.34209,-5.405261 -2.19921,-6.261453 0.31573,-1.893711 3.66571,0.569031 3.66571,0.569031"
       style="fill:#fddba6;fill-opacity:1;fill-rule:nonzero;stroke:none;stroke-width:0.0352777"
       id="path192" />
    <path
       d="m 125.0846,61.992685 c 2.33363,-5.701595 6.0318,-11.991622 3.45193,-14.866056 -4.22169,-4.70288 -10.90542,0.721784 -10.90542,0.721784 0,0 0.14253,0.770466 0.4311,1.951919 0.9091,3.728155 3.24943,11.546769 7.02239,12.192353"
       style="fill:#803626;fill-opacity:1;fill-rule:nonzero;stroke:none;stroke-width:0.0352777"
       id="path194" />
    <path
       d="m 125.93762,45.440704 c 0.91228,0.269875 1.80022,0.79622 2.59891,1.685925 2.57987,2.874434 -1.1183,9.164461 -3.45193,14.866056 -3.59869,-0.629356 -5.449,-6.751461 -6.58107,-10.750903 2.48038,-0.428625 6.72148,-3.777192 7.43409,-5.801078"
       style="fill:#61271e;fill-opacity:1;fill-rule:nonzero;stroke:none;stroke-width:0.0352777"
       id="path196" />
    <path
       d="m 120.07692,58.095902 -0.85266,0.319263 c 0,0 -3.41736,-9.876014 -1.44921,-10.69975 2.11243,-0.884414 2.30187,10.380487 2.30187,10.380487"
       style="fill:#803626;fill-opacity:1;fill-rule:nonzero;stroke:none;stroke-width:0.0352777"
       id="path198" />
    <path
       d="m 119.38301,50.752126 c 1.11301,1.521531 0.69391,7.343776 0.69391,7.343776 l -0.61736,0.231069 c -0.042,-1.949097 0.006,-5.299428 -0.0765,-7.574845"
       style="fill:#61271e;fill-opacity:1;fill-rule:nonzero;stroke:none;stroke-width:0.0352777"
       id="path200" />
    <path
       d="m 116.66168,54.223107 c 0.35313,0.201083 0.68404,-0.490714 0.13335,-0.698147 -0.5521,-0.207434 -1.03646,0.185914 -0.13335,0.698147"
       style="fill:#803626;fill-opacity:1;fill-rule:nonzero;stroke:none;stroke-width:0.0352777"
       id="path202" />
    <path
       d="m 119.20203,56.704899 c 0.0512,-1.40582 0.89994,-2.959453 1.46473,-2.042937 0.5641,0.91687 0.89359,3.20922 -0.35383,4.000853 -0.93839,0.594784 -1.14512,-1.006475 -1.1109,-1.957916"
       style="fill:#fddba6;fill-opacity:1;fill-rule:nonzero;stroke:none;stroke-width:0.0352777"
       id="path204" />
    <path
       d="m 119.34209,56.83331 c 0.0346,-0.946503 0.60607,-1.993195 0.98636,-1.375128 0.37924,0.617361 0.60078,2.160058 -0.23777,2.694164 -0.63147,0.400403 -0.77117,-0.678039 -0.74859,-1.319036"
       style="fill:#f07c61;fill-opacity:1;fill-rule:nonzero;stroke:none;stroke-width:0.0352777"
       id="path206" />
    <path
       d="m 119.27541,57.400929 c -0.007,-0.506236 0.27023,-1.081969 0.49071,-0.763411 0.21837,0.318559 0.37959,1.135592 -0.0547,1.445684 -0.32702,0.233891 -0.43109,-0.338667 -0.43603,-0.682273"
       style="fill:#fddba6;fill-opacity:1;fill-rule:nonzero;stroke:none;stroke-width:0.0352777"
       id="path208" />
    <path
       d="m 121.18041,53.285424 c 0,0 -1.05057,-2.923823 -1.68451,-3.49885 l 1.26047,-1.241073 c 0,0 0.61207,2.270125 0.42404,4.739923"
       style="fill:#803626;fill-opacity:1;fill-rule:nonzero;stroke:none;stroke-width:0.0352777"
       id="path210" />
    <path
       d="m 128.35238,47.168257 c 0,0 -2.921,-0.4318 -3.70134,-0.120297 l -0.41769,-1.769181 c 0,0 2.05387,-0.580672 4.11903,1.889478"
       style="fill:#803626;fill-opacity:1;fill-rule:nonzero;stroke:none;stroke-width:0.0352777"
       id="path212" />
    <path
       d="m 126.91516,48.618174 c 0,0 -2.07503,-0.840317 -2.69875,-0.752123 l -0.0194,-1.373363 c 0,0 1.60232,-0.05786 2.71815,2.125486"
       style="fill:#803626;fill-opacity:1;fill-rule:nonzero;stroke:none;stroke-width:0.0352777"
       id="path214" />
    <path
       d="m 125.11635,51.186396 c 0,0 -1.86231,-1.78047 -2.04046,-2.874786 l 0.83961,-1.046692 c 0,0 1.31515,0.996245 1.20085,3.921478"
       style="fill:#803626;fill-opacity:1;fill-rule:nonzero;stroke:none;stroke-width:0.0352777"
       id="path216" />
    <path
       d="m 122.00168,52.477562 c 0,0 -0.87207,-2.213327 -1.64994,-2.892072 l 1.29469,-1.213908 c 0,0 1.07527,1.280936 0.35525,4.10598"
       style="fill:#803626;fill-opacity:1;fill-rule:nonzero;stroke:none;stroke-width:0.0352777"
       id="path218" />
    <path
       d="m 123.10481,50.718613 c 0,0 -0.58349,-0.874184 -1.3596,-1.553281 l 1.29469,-1.213556 c 0,0 0.71579,1.332089 0.0649,2.766837"
       style="fill:#803626;fill-opacity:1;fill-rule:nonzero;stroke:none;stroke-width:0.0352777"
       id="path220" />
    <path
       d="m 120.18346,53.565176 c 0,0 -1.05234,-2.923469 -1.68487,-3.498144 l 1.25836,-1.242131 c 0,0 0.61348,2.270125 0.42651,4.740275"
       style="fill:#803626;fill-opacity:1;fill-rule:nonzero;stroke:none;stroke-width:0.0352777"
       id="path222" />
    <path
       d="m 136.25813,95.705891 c 0.23883,4.283429 -7.02592,2.683229 -10.40977,2.976388 -3.38349,0.293158 -8.99301,0.441677 -9.36871,0.952852 -1.13947,1.549399 0.43744,3.957459 -0.72496,9.274529 -0.69815,3.18911 -3.11574,7.30461 -5.6448,13.24786 l -1.19133,-0.47801 c 4.59599,-11.95247 3.91795,-23.450198 5.73899,-24.921636 1.83656,-1.481312 7.12399,-4.583287 12.44882,-5.653614 4.81648,-0.968023 9.8425,-0.262821 9.15176,4.601631"
       style="fill:#372823;fill-opacity:1;fill-rule:nonzero;stroke:none;stroke-width:0.0352777"
       id="path224" />
    <path
       d="m 103.97967,69.293421 c -0.71543,-0.564798 -2.6042,-2.495903 -3.37714,-1.865842 -0.69321,0.561622 -0.825853,2.077861 2.95487,2.589389 l 0.42227,-0.723547"
       style="fill:#fddba6;fill-opacity:1;fill-rule:nonzero;stroke:none;stroke-width:0.0352777"
       id="path226" />
    <path
       d="m 99.899795,68.294707 c 0.150995,-0.144639 0.472015,0.06032 0.792695,0.33655 0.31961,0.275872 0.51752,0.518936 0.36654,0.663575 -0.15099,0.144991 -0.5327,0.03986 -0.85302,-0.237067 -0.319267,-0.275519 -0.457202,-0.618772 -0.306215,-0.763058"
       style="fill:#fddba6;fill-opacity:1;fill-rule:nonzero;stroke:none;stroke-width:0.0352777"
       id="path228" />
    <path
       d="m 98.25056,66.217551 c 0.232127,-0.168628 1.02729,0.134761 1.86478,0.530578 0.8375,0.395111 2.03659,0.984956 1.80658,1.153936 -0.23178,0.167922 -1.45838,-0.358775 -2.29341,-0.754944 -0.8382,-0.394406 -1.606198,-0.762353 -1.37795,-0.92957"
       style="fill:#fddba6;fill-opacity:1;fill-rule:nonzero;stroke:none;stroke-width:0.0352777"
       id="path230" />
    <path
       d="m 102.00941,67.751429 c -0.25929,-0.124883 -0.53128,0.225072 -0.76553,0.659342 -0.23319,0.43568 -0.33973,0.790222 -0.0797,0.915811 0.25717,0.124883 0.65617,-0.124884 0.88971,-0.5588 0.23459,-0.435681 0.21307,-0.890764 -0.0444,-1.016353"
       style="fill:#fddba6;fill-opacity:1;fill-rule:nonzero;stroke:none;stroke-width:0.0352777"
       id="path232" />
    <path
       d="m 99.644033,68.697579 c 0.125942,-0.124531 0.395817,0.05327 0.665337,0.295275 0.26882,0.240947 0.43568,0.452614 0.30974,0.579261 -0.12523,0.124883 -0.44626,0.0314 -0.715785,-0.210256 -0.267758,-0.240594 -0.384882,-0.538338 -0.259292,-0.66428"
       style="fill:#fddba6;fill-opacity:1;fill-rule:nonzero;stroke:none;stroke-width:0.0352777"
       id="path234" />
    <path
       d="m 101.00646,67.330212 c 0.18768,0.106892 -0.16228,0.480836 -0.50094,0.978606 -0.33973,0.49918 -0.640295,0.840316 -0.830091,0.733778 -0.185561,-0.108303 -0.06385,-0.600075 0.275166,-1.09855 0.339375,-0.498123 0.868895,-0.721784 1.055865,-0.613834"
       style="fill:#fddba6;fill-opacity:1;fill-rule:nonzero;stroke:none;stroke-width:0.0352777"
       id="path236" />
    <path
       d="m 134.30798,95.140389 c -1.58786,3.699581 -23.26076,3.387725 -23.26358,3.394781 -0.27376,0.543629 2.88925,3.13337 4.25626,6.63504 1.36596,3.50132 0.93698,7.91598 1.39524,14.34007 l -1.36666,0.22401 c -3.57152,-13.49057 -8.84485,-21.412551 -8.26594,-23.034976 0.92005,-2.568575 32.11019,-12.892617 27.24468,-1.558925"
       style="fill:#372823;fill-opacity:1;fill-rule:nonzero;stroke:none;stroke-width:0.0352777"
       id="path238" />
    <path
       d="m 113.83452,122.40729 3.60116,-2.30858 c 0,0 -1.25801,-1.29857 -1.64395,-1.05234 -0.58632,0.37712 -1.95721,3.36092 -1.95721,3.36092"
       style="fill:#d0b1aa;fill-opacity:1;fill-rule:nonzero;stroke:none;stroke-width:0.0352777"
       id="path240" />
    <path
       d="m 106.5613,122.23937 3.6516,0.17921 c 0,0 0.0783,-1.67182 -0.31326,-1.69016 -0.59444,-0.0289 -3.33834,1.51095 -3.33834,1.51095"
       style="fill:#d0b1aa;fill-opacity:1;fill-rule:nonzero;stroke:none;stroke-width:0.0352777"
       id="path242" />
    <path
       d="m 121.54518,64.824785 -0.14464,-0.871009 4.18007,-2.060927 0.92886,1.044927 -4.96429,1.887009"
       style="fill:#d5ba8f;fill-opacity:1;fill-rule:nonzero;stroke:none;stroke-width:0.0352777"
       id="path244" />
    <path
       d="m 136.43029,96.044912 c 4.71911,-2.980973 1.31692,-13.378744 -3.03036,-23.114706 -1.13877,-2.553758 -0.64982,-8.656813 -3.71828,-10.134599 -3.57752,-1.721908 -11.36086,3.113264 -11.96905,5.432072 -0.60889,2.317397 7.76429,16.954852 6.05191,22.717125 -0.0219,0.772231 1.41323,2.500841 3.73697,3.351035 3.25508,1.190977 7.65387,2.554465 8.92881,1.749073"
       style="fill:#fdfad8;fill-opacity:1;fill-rule:nonzero;stroke:none;stroke-width:0.0352777"
       id="path246" />
    <path
       d="m 133.57808,72.575664 c -1.03928,-2.331155 -0.90241,-7.262635 -3.17288,-9.291107 -4.01179,-2.465917 -6.70525,1.2954 -8.83039,2.614436 -2.66452,1.653469 -0.63887,4.528255 -1.10313,5.979936 2.38019,5.108927 5.97993,13.701889 5.34141,18.520481 -0.0215,0.772229 -0.63535,3.046235 1.68839,3.896429 3.25508,1.190977 7.65387,2.554465 8.92881,1.749073 4.71911,-2.980973 1.49542,-13.733285 -2.85221,-23.469248"
       style="fill:#edd6ad;fill-opacity:1;fill-rule:nonzero;stroke:none;stroke-width:0.0352777"
       id="path248" />
    <path
       d="m 109.97266,110.88909 12.52643,-0.97648 c 0.65017,-8.62225 4.46864,-11.078286 3.82376,-10.980919 0,0 10.32934,0.488246 11.30547,-1.464379 0.97578,-1.951567 2.27753,-8.052152 -0.24412,-13.013619 -2.52201,-4.962173 -13.42108,3.009546 -13.42108,3.009546 0,0 -0.0815,2.114904 -3.09104,2.846917 -3.0099,0.732014 -13.69624,3.012723 -13.28949,6.998406 0.40675,3.985328 2.39007,13.580528 2.39007,13.580528"
       style="fill:#edd6ad;fill-opacity:1;fill-rule:nonzero;stroke:none;stroke-width:0.0352777"
       id="path250" />
    <path
       d="m 112.93035,80.015043 c 0.94474,-0.237421 7.27569,-4.883856 9.57333,-9.123186 1.04422,-1.927225 0.70767,-3.928181 -0.38347,-5.114925 -2.60667,-2.833864 -10.10003,8.901288 -11.84945,10.918824 -0.93169,1.074208 0.55986,3.850571 2.65959,3.319287"
       style="fill:#fdfad8;fill-opacity:1;fill-rule:nonzero;stroke:none;stroke-width:0.0352777"
       id="path252" />
    <path
       d="m 101.1518,71.161026 c 1.4986,1.26118 8.76794,10.154003 11.42365,8.265584 3.39584,-2.414765 -3.04694,-6.226529 -8.17209,-10.465506 -0.22437,-0.18662 -3.25156,2.199922 -3.25156,2.199922"
       style="fill:#fdfad8;fill-opacity:1;fill-rule:nonzero;stroke:none;stroke-width:0.0352777"
       id="path254" />
    <path
       d="m 112.83651,76.399422 c -0.13158,0.210257 -0.30797,0.414867 -0.54681,0.612071 -1.98296,1.636888 -7.44607,-3.557764 -10.44186,-6.3881 -0.4064,0.309386 -0.69604,0.537633 -0.69604,0.537633 1.4986,1.26118 8.94539,10.720563 11.6011,8.832144 1.32327,-0.940858 1.12113,-2.180873 0.0836,-3.593748"
       style="fill:#edd6ad;fill-opacity:1;fill-rule:nonzero;stroke:none;stroke-width:0.0352777"
       id="path256" />
    <path
       d="m 112.98185,98.585616 c 1.3081,-3.786362 8.88648,-5.859285 11.89638,-6.591298 1.92122,-0.467783 1.15781,-4.557183 0.55809,-6.720771 -1.06751,0.673455 -1.4732,2.189692 -1.4732,2.189692 0,0 -0.36618,1.855965 -3.37538,2.587979 -3.0099,0.732013 -14.76339,3.268134 -14.35699,7.253815 0.4071,3.985327 3.74191,13.584057 3.74191,13.584057 l 3.35245,-0.2614 c -0.11077,-3.15878 -0.86572,-10.52901 -0.34326,-12.042074"
       style="fill:#fdfad8;fill-opacity:1;fill-rule:nonzero;stroke:none;stroke-width:0.0352777"
       id="path258" />
    <path
       d="m 122.13361,65.616418 c -0.7821,6.571192 -5.6208,7.924094 -9.44773,10.995377 -0.49778,0.399344 -2.171,1.578682 -2.6469,1.363486 0.24589,1.154641 1.41641,2.413 2.89137,2.039762 0.94474,-0.237421 7.3914,-4.245329 9.68939,-8.484659 0.87807,-1.619955 1.30634,-4.557536 -0.48613,-5.913966"
       style="fill:#edd6ad;fill-opacity:1;fill-rule:nonzero;stroke:none;stroke-width:0.0352777"
       id="path260" />
    <g
       transform="matrix(0.03527778,0,0,-0.03527778,-62.3681,242.33868)"
       id="g262">
      <g
         id="g264"
         clip-path="url(#clipPath268)">
        <path
           d="m 5209.19,5056.58 h 4.418 v 2.1797 h -4.418 z"
           style="fill:#dd9f99;fill-opacity:1;fill-rule:nonzero;stroke:none"
           id="path270" />
      </g>
    </g>
    <path
       d="m 119.87231,63.511746 c -0.06,0 -0.11783,-0.0042 -0.17392,-0.01305 v 0 0 l -0.018,-0.03316 c 0.53834,-0.424039 0.93521,-0.6985 1.25801,-1.067506 0.0773,0.201083 0.15804,0.404283 0.242,0.607836 -0.45438,0.324908 -0.91793,0.505883 -1.3081,0.505883"
       style="fill:#dc8661;fill-opacity:1;fill-rule:nonzero;stroke:none;stroke-width:0.0352777"
       id="path272" />
    <path
       d="m 121.55647,63.876871 v 0 l 10e-4,-7.15e-4 c -0.13017,-0.287161 -0.25647,-0.578555 -0.37677,-0.871008 0,3.44e-4 -2.6e-4,3.44e-4 -7.9e-4,7.14e-4 -0.084,-0.203552 -0.16475,-0.406752 -0.24201,-0.607836 0.43463,-0.497064 0.73449,-1.165225 1.06222,-2.601383 0.19226,0.25647 0.38805,0.487186 0.58455,0.693561 0.56162,0.612422 1.18533,1.078795 1.8796,1.334911 0.23354,0.09172 0.44591,0.146403 0.62759,0.169334 l 0.0236,-0.07867 c 2.7e-4,-0.0011 0.001,-0.0025 0.001,-0.0035 l 0.0984,0.160514 -3.65936,1.804105"
       style="fill:#dc8661;fill-opacity:1;fill-rule:nonzero;stroke:none;stroke-width:0.0352777"
       id="path274" />
    <path
       d="m 125.116,61.915779 0.001,-0.0039 v 3.44e-4 c -2.7e-4,0.0011 -0.001,0.0025 -0.001,0.0035 m -0.65123,-0.09066 c -0.69427,-0.256117 -1.31798,-0.722489 -1.8796,-1.334911 0.66181,0.696383 1.32927,1.118305 1.8796,1.334911"
       style="fill:#521c18;fill-opacity:1;fill-rule:nonzero;stroke:none;stroke-width:0.0352777"
       id="path276" />
    <path
       d="m 121.50814,64.600771 -0.1076,-0.646995 0.15593,-0.07691 3.65937,-1.804106 0.002,0.0032 0.36265,-0.183091 0.65017,0.731661 c -1.56916,0.338666 -3.26108,1.091141 -4.72264,1.976261"
       style="fill:#b97456;fill-opacity:1;fill-rule:nonzero;stroke:none;stroke-width:0.0352777"
       id="path278" />
    <path
       d="m 119.93193,65.692971 -0.009,-0.0092 c 0.47978,-0.369006 1.01459,-0.735542 1.58574,-1.081264 l -2.7e-4,-0.0018 c 1.46156,-0.885119 3.15348,-1.637594 4.72264,-1.976261 l 0.002,0.0021 c 0.56727,-0.122414 1.11795,-0.189442 1.63583,-0.189442 0.30868,0 0.60607,0.02399 0.8883,0.07373 -0.0127,0.02082 -0.0265,0.04128 -0.0413,0.06138 -0.32703,-0.07338 -0.64418,-0.107245 -0.95215,-0.107245 -1.76213,0 -3.22298,1.101725 -4.48451,2.128309 -1.35361,0.339725 -2.61797,0.681566 -3.34222,1.097139 -0.002,0.0011 -0.004,0.0018 -0.005,0.0025"
       style="fill:#dc9c7e;fill-opacity:1;fill-rule:nonzero;stroke:none;stroke-width:0.0352777"
       id="path280" />
    <path
       d="m 123.27909,64.593362 c 1.26153,-1.026583 2.72238,-2.128308 4.48451,-2.128308 0.30797,0 0.62512,0.03387 0.95214,0.107245 -0.64805,0.890058 -3.16794,1.452033 -5.43665,2.021063"
       style="fill:#cc8466;fill-opacity:1;fill-rule:nonzero;stroke:none;stroke-width:0.0352777"
       id="path282" />
    <path
       d="m 119.93193,65.693323 v -3.44e-4 c 0.001,-7.14e-4 0.003,-0.0014 0.005,-0.0025 -0.002,0.0011 -0.003,0.0018 -0.005,0.0028"
       style="fill:#dc9c7e;fill-opacity:1;fill-rule:nonzero;stroke:none;stroke-width:0.0352777"
       id="path284" />
    <path
       d="m 123.25827,90.428337 2.1336,3.701344 c 0,0 -1.34973,0.696737 -1.8288,0.391937 -0.47907,-0.3048 -1.8288,-2.482146 -1.65453,-3.004608 0.17392,-0.522465 1.34973,-1.088673 1.34973,-1.088673"
       style="fill:#fdfad8;fill-opacity:1;fill-rule:nonzero;stroke:none;stroke-width:0.0352777"
       id="path286" />
    <path
       d="m 122.07364,121.44526 c 0,-0.64452 -0.52281,-1.1684 -1.16769,-1.1684 -0.64488,0 -1.16734,0.52388 -1.16734,1.1684 0,0.64523 0.52246,1.1677 1.16734,1.1677 0.64488,0 1.16769,-0.52247 1.16769,-1.1677"
       style="fill:#503631;fill-opacity:1;fill-rule:nonzero;stroke:none;stroke-width:0.0352777"
       id="path288" />
    <path
       d="m 137.51755,121.44526 c 0,-0.64452 -0.52317,-1.1684 -1.1684,-1.1684 -0.64488,0 -1.16734,0.52388 -1.16734,1.1684 0,0.64523 0.52246,1.1677 1.16734,1.1677 0.64523,0 1.1684,-0.52247 1.1684,-1.1677"
       style="fill:#503631;fill-opacity:1;fill-rule:nonzero;stroke:none;stroke-width:0.0352777"
       id="path290" />
    <path
       d="m 129.47351,121.44526 c 0,-0.64452 -0.52317,-1.1684 -1.16805,-1.1684 -0.64487,0 -1.16699,0.52388 -1.16699,1.1684 0,0.64523 0.52212,1.1677 1.16699,1.1677 0.64488,0 1.16805,-0.52247 1.16805,-1.1677"
       style="fill:#503631;fill-opacity:1;fill-rule:nonzero;stroke:none;stroke-width:0.0352777"
       id="path292" />
    <path
       d="m 126.73525,101.68124 0.87524,4.51027 v 12.08405 l 1.21673,0.0991 v -12.09605 l 0.87559,-4.5974 h -2.96756"
       style="fill:#503631;fill-opacity:1;fill-rule:nonzero;stroke:none;stroke-width:0.0352777"
       id="path294" />
    <path
       d="m 122.12127,120.10436 h 13.66626 c 0,0 -3.90278,-2.4952 -7.17938,-2.4952 -3.27731,0 -6.48688,2.4952 -6.48688,2.4952"
       style="fill:#503631;fill-opacity:1;fill-rule:nonzero;stroke:none;stroke-width:0.0352777"
       id="path296" />
    <path
       d="m 120.08856,99.950866 h 16.39464 c 0,0 -3.93946,2.335034 -9.2583,2.335034 -2.72485,0 -7.13634,-2.335034 -7.13634,-2.335034"
       style="fill:#503631;fill-opacity:1;fill-rule:nonzero;stroke:none;stroke-width:0.0352777"
       id="path298" />
    <path
       d="m 136.99685,100.45146 c 0.49636,-0.15452 0.80715,-0.656873 0.73095,-1.182513 -0.0769,-0.524227 -0.51717,-0.912989 -1.03575,-0.912989 h -16.9157 c -0.45755,0 -0.85266,0.326321 -0.94756,0.783166 -0.0949,0.458613 0.13547,0.922166 0.55281,1.112666 0.37253,0.16933 0.83044,0.2794 1.39065,0.2794 2.49414,0 15.71095,0 15.71095,0 0,0 0.21802,0.012 0.51365,-0.0797"
       style="fill:#a98460;fill-opacity:1;fill-rule:nonzero;stroke:none;stroke-width:0.0352777"
       id="path300" />
    <path
       d="m 139.49945,89.700204 c -0.2674,1.347964 -1.42416,2.317398 -2.7686,2.317398 h -7.90363 c -0.75212,0 -1.46262,-0.347134 -1.93569,-0.945092 -0.47378,-0.598313 -0.65723,-1.383242 -0.50094,-2.135365 l 3.96098,-19.049294 c 0.23037,-1.107369 1.0922,-1.963914 2.18088,-2.167114 3.57469,-0.667808 6.20853,-0.820561 9.02652,-0.235655 1.23754,0.257175 2.03764,1.49225 1.78717,2.75978 l -3.84669,19.455342"
       style="fill:#c3a076;fill-opacity:1;fill-rule:nonzero;stroke:none;stroke-width:0.0352777"
       id="path302" />
    <path
       d="m 136.4832,100.53119 h 0.0483 -0.0483"
       style="fill:#dac890;fill-opacity:1;fill-rule:nonzero;stroke:none;stroke-width:0.0352777"
       id="path304" />
    <path
       d="m 118.82738,99.139124 c 0.0949,-0.456845 0.49001,-0.783166 0.94756,-0.783166 h 9.17822 c -0.45931,0 -0.85266,0.326321 -0.94791,0.783166 -0.0959,0.458613 0.13476,0.922866 0.5528,1.112666 0.37324,0.17003 0.83044,0.2794 1.3903,0.2794 -3.71757,0 -7.88564,0 -9.17681,0 -0.56092,0 -1.01812,-0.10937 -1.39206,-0.2794 -0.41698,-0.1898 -0.64699,-0.654053 -0.5521,-1.112666"
       style="fill:#c3a076;fill-opacity:1;fill-rule:nonzero;stroke:none;stroke-width:0.0352777"
       id="path306" />
    <path
       d="m 140.51157,89.700204 c -0.26599,1.347964 -1.42381,2.317398 -2.76789,2.317398 h -7.90434 c -0.75177,0 -1.46262,-0.347134 -1.93534,-0.945092 -0.47307,-0.598313 -0.65652,-1.383242 -0.50094,-2.135365 l 3.96134,-19.049647 c 0.23001,-1.107369 1.09185,-1.964266 2.18052,-2.167466 3.5754,-0.667809 6.20889,-0.820914 9.02582,-0.235303 1.23895,0.256822 2.0387,1.49225 1.78823,2.75978 l -3.8474,19.455695"
       style="fill:#a98460;fill-opacity:1;fill-rule:nonzero;stroke:none;stroke-width:0.0352777"
       id="path308" />
    <path
       d="m 127.92587,89.546745 3.96099,-19.049647 c 0.22966,-1.107369 1.09185,-1.964266 2.18052,-2.167466 3.57505,-0.667456 6.20889,-0.820914 9.02582,-0.235303 0.37006,0.07655 0.69956,0.242358 0.97473,0.468136 -0.31962,-0.536928 -0.84667,-0.942975 -1.49719,-1.077736 -2.81693,-0.585611 -5.45042,-0.432506 -9.02582,0.235303 -1.08867,0.2032 -1.95051,1.060097 -2.18052,2.167466 l -3.96134,19.049647 c -0.15558,0.752123 0.0279,1.537052 0.50094,2.135365 0.10442,0.131585 0.22155,0.24906 0.34678,0.355246 -0.33972,-0.557036 -0.45967,-1.230842 -0.32491,-1.881011"
       style="fill:#d9b692;fill-opacity:1;fill-rule:nonzero;stroke:none;stroke-width:0.0352777"
       id="path310" />
    <path
       d="m 134.62336,97.308562 h -2.39501 l -0.9144,3.439938 h 2.39466 l 0.91475,-3.439938"
       style="fill:#503631;fill-opacity:1;fill-rule:nonzero;stroke:none;stroke-width:0.0352777"
       id="path312" />
    <path
       d="m 135.16417,91.742435 h -0.93169 l -1.49331,5.92596 h 0.93204 l 1.49296,-5.92596"
       style="fill:#503631;fill-opacity:1;fill-rule:nonzero;stroke:none;stroke-width:0.0352777"
       id="path314" />
    <path
       d="m 136.2793,90.581089 c 0.27093,-1.282346 -0.0949,-2.321277 -0.81704,-2.321277 -0.72248,0 -1.52752,1.038931 -1.79846,2.321277 -0.27058,1.281642 0.0949,2.320925 0.81739,2.320925 0.72178,0 1.52753,-1.039283 1.79811,-2.320925"
       style="fill:#503631;fill-opacity:1;fill-rule:nonzero;stroke:none;stroke-width:0.0352777"
       id="path316" />
    <path
       d="m 136.46909,90.60261 c 0.20179,-0.956029 -0.0709,-1.730375 -0.60924,-1.730375 -0.5387,0 -1.13877,0.774346 -1.34056,1.730375 -0.20214,0.956027 0.0702,1.730375 0.60925,1.730375 0.53834,0 1.13841,-0.774348 1.34055,-1.730375"
       style="fill:#664846;fill-opacity:1;fill-rule:nonzero;stroke:none;stroke-width:0.0352777"
       id="path318" />
    <path
       d="m 134.44909,97.308562 h -1.16099 l -0.9144,3.439938 h 1.16099 l 0.9144,-3.439938"
       style="fill:#664846;fill-opacity:1;fill-rule:nonzero;stroke:none;stroke-width:0.0352777"
       id="path320" />
    <path
       d="m 124.82672,120.10436 h 8.25535 c 0,0 -2.35761,-2.4952 -4.33669,-2.4952 -1.97979,0 -3.91866,2.4952 -3.91866,2.4952"
       style="fill:#664846;fill-opacity:1;fill-rule:nonzero;stroke:none;stroke-width:0.0352777"
       id="path322" />
    <path
       d="m 137.15489,121.44526 c 0,-0.44485 -0.36089,-0.80539 -0.80574,-0.80539 -0.4445,0 -0.80469,0.36054 -0.80469,0.80539 0,0.44486 0.36019,0.80469 0.80469,0.80469 0.44485,0 0.80574,-0.35983 0.80574,-0.80469"
       style="fill:#886968;fill-opacity:1;fill-rule:nonzero;stroke:none;stroke-width:0.0352777"
       id="path324" />
    <path
       d="m 121.71099,121.44526 c 0,-0.44485 -0.36089,-0.80539 -0.80539,-0.80539 -0.44486,0 -0.80469,0.36054 -0.80469,0.80539 0,0.44486 0.35983,0.80469 0.80469,0.80469 0.4445,0 0.80539,-0.35983 0.80539,-0.80469"
       style="fill:#886968;fill-opacity:1;fill-rule:nonzero;stroke:none;stroke-width:0.0352777"
       id="path326" />
    <path
       d="m 56.828101,94.579472 h 2.395007 l 0.9144,3.439936 h -2.394655 l -0.914752,-3.439936"
       style="fill:#503631;fill-opacity:1;fill-rule:nonzero;stroke:none;stroke-width:0.0352777"
       id="path328" />
    <path
       d="m 56.287292,89.013345 h 0.931686 l 1.493308,5.925961 H 57.7806 l -1.493308,-5.925961"
       style="fill:#503631;fill-opacity:1;fill-rule:nonzero;stroke:none;stroke-width:0.0352777"
       id="path330" />
    <path
       d="m 55.172514,87.851647 c -0.270933,-1.281641 0.0949,-2.320925 0.816681,-2.320925 0.722489,0 1.527881,1.039284 1.798461,2.320925 0.270933,1.282348 -0.09455,2.32128 -0.817033,2.32128 -0.722489,0 -1.527528,-1.038932 -1.798109,-2.32128"
       style="fill:#503631;fill-opacity:1;fill-rule:nonzero;stroke:none;stroke-width:0.0352777"
       id="path332" />
    <path
       d="m 70.312325,120.25887 c 0,-0.64488 0.557036,-1.16805 1.244247,-1.16805 0.686858,0 1.243894,0.52317 1.243894,1.16805 0,0.64453 -0.557036,1.16699 -1.243894,1.16699 -0.687211,0 -1.244247,-0.52246 -1.244247,-1.16699"
       style="fill:#503631;fill-opacity:1;fill-rule:nonzero;stroke:none;stroke-width:0.0352777"
       id="path334" />
    <path
       d="m 56.470384,120.25887 c 0,-0.64488 0.557389,-1.16805 1.244599,-1.16805 0.686859,0 1.243895,0.52317 1.243895,1.16805 0,0.64453 -0.557036,1.16699 -1.243895,1.16699 -0.68721,0 -1.244599,-0.52246 -1.244599,-1.16699"
       style="fill:#503631;fill-opacity:1;fill-rule:nonzero;stroke:none;stroke-width:0.0352777"
       id="path336" />
    <path
       d="m 63.516061,120.25887 c 0,-0.64488 0.557036,-1.16805 1.243895,-1.16805 0.687563,0 1.2446,0.52317 1.2446,1.16805 0,0.64453 -0.557037,1.16699 -1.2446,1.16699 -0.686859,0 -1.243895,-0.52246 -1.243895,-1.16699"
       style="fill:#503631;fill-opacity:1;fill-rule:nonzero;stroke:none;stroke-width:0.0352777"
       id="path338" />
    <path
       d="m 65.500789,100.49414 -0.460022,16.59502 -0.376061,0.0995 -0.460023,-16.6945 h 1.296106"
       style="fill:#503631;fill-opacity:1;fill-rule:nonzero;stroke:none;stroke-width:0.0352777"
       id="path340" />
    <path
       d="M 72.133011,118.91796 H 57.572462 c 0,0 4.157485,-2.49484 7.648927,-2.49484 3.491794,0 6.911622,2.49484 6.911622,2.49484"
       style="fill:#503631;fill-opacity:1;fill-rule:nonzero;stroke:none;stroke-width:0.0352777"
       id="path342" />
    <path
       d="M 73.515194,98.764122 H 56.047403 c 0,0 4.19735,2.335738 9.864372,2.335738 2.903361,0 7.603419,-2.335738 7.603419,-2.335738"
       style="fill:#503631;fill-opacity:1;fill-rule:nonzero;stroke:none;stroke-width:0.0352777"
       id="path344" />
    <path
       d="m 51.754803,88.512754 c 0.283986,1.348668 1.51765,2.318456 2.949928,2.318456 h 8.421158 c 0.800805,0 1.558572,-0.348192 2.062339,-0.945446 0.504119,-0.597958 0.699558,-1.382887 0.5334,-2.135362 L 61.501347,68.70146 c -0.24518,-1.10737 -1.163108,-1.96462 -2.323041,-2.16782 -3.809647,-0.667808 -6.615289,-0.820914 -9.617428,-0.235655 -1.319388,0.257175 -2.1717,1.492602 -1.905,2.75978 l 4.098925,19.454989"
       style="fill:#be876d;fill-opacity:1;fill-rule:nonzero;stroke:none;stroke-width:0.0352777"
       id="path346" />
    <path
       d="m 55.500245,99.264362 c -0.528814,-0.153813 -0.860072,-0.656521 -0.778581,-1.181806 0.08114,-0.525286 0.550687,-0.913342 1.103489,-0.913342 h 18.023416 c 0.486481,0 0.907698,0.326319 1.008239,0.784225 0.1016,0.4572 -0.143581,0.92075 -0.588785,1.111602 -0.396876,0.169688 -0.88512,0.2794 -1.481315,0.2794 -2.65818,0 -16.739305,-2.65e-4 -16.739305,-2.65e-4 0,0 -0.232127,0.01304 -0.547158,-0.07973"
       style="fill:#c3a076;fill-opacity:1;fill-rule:nonzero;stroke:none;stroke-width:0.0352777"
       id="path348" />
    <path
       d="m 52.833598,88.512754 c 0.284339,1.348668 1.51765,2.318456 2.949928,2.318456 h 8.421157 c 0.800453,0 1.558573,-0.348192 2.062692,-0.945446 0.503767,-0.597958 0.699558,-1.382887 0.533047,-2.135362 l -4.220633,-19.04859 c -0.245533,-1.107369 -1.163108,-1.964619 -2.323042,-2.167114 -3.809294,-0.668161 -6.614583,-0.821619 -9.617074,-0.236008 -1.318683,0.257175 -2.172053,1.49225 -1.904647,2.759428 l 4.098572,19.454636"
       style="fill:#dbb48f;fill-opacity:1;fill-rule:nonzero;stroke:none;stroke-width:0.0352777"
       id="path350" />
    <path
       d="m 56.047403,99.344089 h -0.05186 c 0.03246,2.65e-4 0.05186,0 0.05186,0"
       style="fill:#dac890;fill-opacity:1;fill-rule:nonzero;stroke:none;stroke-width:0.0352777"
       id="path352" />
    <path
       d="m 74.858573,97.953439 c -0.100542,-0.4572 -0.522113,-0.784225 -1.008946,-0.784225 h -9.778646 c 0.488244,0 0.908755,0.327025 1.009297,0.784225 0.102305,0.4572 -0.143934,0.921456 -0.588786,1.111602 -0.397934,0.170392 -0.88512,0.279048 -1.480961,0.279048 3.960636,0 8.401049,2.65e-4 9.776883,2.65e-4 0.597958,0 1.084438,-0.109009 1.482726,-0.2794 0.445203,-0.190146 0.690033,-0.654402 0.588433,-1.111602"
       style="fill:#a98460;fill-opacity:1;fill-rule:nonzero;stroke:none;stroke-width:0.0352777"
       id="path354" />
    <path
       d="m 68.475411,118.55778 h -7.767814 c 0,0 2.217914,-2.22144 4.080581,-2.22144 1.862666,0 3.687233,2.22144 3.687233,2.22144"
       style="fill:#664846;fill-opacity:1;fill-rule:nonzero;stroke:none;stroke-width:0.0352777"
       id="path356" />
    <path
       d="m 50.639673,66.29869 c -1.318683,0.257175 -2.172053,1.49225 -1.904647,2.759428 l 2.050344,9.732079 c 0.799394,-3.447695 2.299053,-9.412815 3.826228,-12.85381 -1.354667,-0.01023 -2.64407,0.103364 -3.971925,0.362303"
       style="fill:#f3d0b5;fill-opacity:1;fill-rule:nonzero;stroke:none;stroke-width:0.0352777"
       id="path358" />
    <path
       d="m 57.971453,64.418385 c 1.04528,-0.551745 5.017911,-1.596673 8.392936,-0.2032 l 0.537633,0.957791 H 58.9871 l -1.015647,-0.754591"
       style="fill:#edd6ad;fill-opacity:1;fill-rule:nonzero;stroke:none;stroke-width:0.0352777"
       id="path360" />
    <path
       d="m 82.255968,110.97023 10.370609,-3.37608 c 0,0 -0.366184,-13.481755 -3.84316,-15.311613 -3.477332,-1.830565 -7.1374,1.524706 -7.1374,1.524706 l 0.609951,17.162987"
       style="fill:#dbac8e;fill-opacity:1;fill-rule:nonzero;stroke:none;stroke-width:0.0352777"
       id="path362" />
    <path
       d="m 81.746206,63.876165 c 0.491771,-0.694619 2.715329,-1.155347 2.192161,-1.857728 -0.467784,-0.629002 -2.105025,-1.144411 -2.825399,1.377245 l 0.633238,0.480483"
       style="fill:#fddba6;fill-opacity:1;fill-rule:nonzero;stroke:none;stroke-width:0.0352777"
       id="path364" />
    <path
       d="m 81.766667,62.244215 c 0.759528,1.146528 2.1082,0.508 2.464858,0.205317 0.392287,-0.334081 0.04657,-1.313392 -0.38453,-1.539169 -0.4318,-0.227542 -2.369605,0.894997 -2.080328,1.333852"
       style="fill:#fddba6;fill-opacity:1;fill-rule:nonzero;stroke:none;stroke-width:0.0352777"
       id="path366" />
    <path
       d="m 82.855692,61.253263 c 0.104068,-0.708378 -0.156634,-1.625953 -0.45579,-1.636889 -0.339019,-0.01341 0.03739,0.762 -0.227894,1.347964 -0.284691,0.636763 -0.425098,1.057627 -0.14605,1.218494 0.277987,0.161219 0.727075,-0.219075 0.829734,-0.929569"
       style="fill:#fddba6;fill-opacity:1;fill-rule:nonzero;stroke:none;stroke-width:0.0352777"
       id="path368" />
    <path
       d="m 84.151443,60.829929 c 0.45579,-0.390525 0.578202,-0.710494 0.43039,-0.831497 -0.146756,-0.122767 -0.389466,0.118181 -0.844904,0.509411 -0.455084,0.390172 -1.159227,0.761295 -1.011061,0.88265 0.147461,0.122414 0.970492,-0.170744 1.425575,-0.560564"
       style="fill:#fddba6;fill-opacity:1;fill-rule:nonzero;stroke:none;stroke-width:0.0352777"
       id="path370" />
    <path
       d="m 84.686254,61.470221 c 0.558448,-0.28822 0.859014,-0.795514 0.738716,-0.935567 -0.12206,-0.1397 -0.543983,0.251178 -1.102428,0.539045 -0.559859,0.287161 -0.897822,0.506236 -0.776113,0.644877 0.121708,0.141111 0.581379,0.03881 1.139825,-0.248355"
       style="fill:#fddba6;fill-opacity:1;fill-rule:nonzero;stroke:none;stroke-width:0.0352777"
       id="path372" />
    <path
       d="m 84.666145,62.251271 c 0.540809,-0.310092 0.745067,-0.613128 0.61948,-0.751064 -0.124883,-0.136878 -0.426863,0.138642 -0.968023,0.450144 -0.53975,0.310092 -0.912284,0.536223 -0.7874,0.674511 0.12559,0.136878 0.593373,-0.06244 1.135943,-0.373591"
       style="fill:#fddba6;fill-opacity:1;fill-rule:nonzero;stroke:none;stroke-width:0.0352777"
       id="path374" />
    <path
       d="m 61.68832,62.67531 c -2.099734,-3.227564 -5.359753,-7.754056 -4.353983,-10.967861 1.005769,-3.213453 7.372702,-6.0706 9.453032,-5.083881 3.340806,1.583972 1.007886,6.5151 1.007886,6.5151 L 61.68832,62.67531"
       style="fill:#844543;fill-opacity:1;fill-rule:nonzero;stroke:none;stroke-width:0.0352777"
       id="path376" />
    <path
       d="m 59.160667,49.228126 c -0.876653,0.752828 -1.551517,1.602317 -1.82633,2.479323 -1.00577,3.213805 2.254249,7.740297 4.353983,10.967861 l 6.106935,-9.536642 c 0,0 0.193675,-0.410633 0.389114,-1.030464 -2.040466,1.021997 -1.642886,-0.258939 -1.951919,-1.539875 -0.327025,-1.354314 -1.444625,-2.70898 -7.071783,-1.340203"
       style="fill:#6d3434;fill-opacity:1;fill-rule:nonzero;stroke:none;stroke-width:0.0352777"
       id="path378" />
    <path
       d="m 66.316411,71.486993 c 1.513769,1.940984 5.457119,6.189134 8.523112,7.1501 3.358795,1.051984 2.094442,-4.331054 -6.073776,-13.171311 -2.005542,-2.164645 -2.449336,6.021211 -2.449336,6.021211"
       style="fill:#fefbe1;fill-opacity:1;fill-rule:nonzero;stroke:none;stroke-width:0.0352777"
       id="path380" />
    <path
       d="m 69.50023,66.475079 c 1.102784,4.736394 -1.012472,12.446706 -1.0922,14.337948 -0.218722,5.192887 2.318103,7.564966 4.270023,8.35801 2.541057,1.031875 -11.146014,8.730544 -12.627681,6.922204 -1.486252,-1.809396 -5.770385,-17.049396 -2.174875,-29.87322 0.822325,-3.43782 11.189406,-1.617134 11.624733,0.255058"
       style="fill:#a168bf;fill-opacity:1;fill-rule:nonzero;stroke:none;stroke-width:0.0352777"
       id="path382" />
    <path
       d="m 63.879069,89.165745 c 0,0 -1.741663,-3.570464 -1.349727,-14.500225 0,0 -1.916289,10.581217 -0.522817,15.109825 l 1.872544,-0.6096"
       style="fill:#713b8e;fill-opacity:1;fill-rule:nonzero;stroke:none;stroke-width:0.0352777"
       id="path384" />
    <path
       d="m 70.10595,87.989937 -1.887008,-4.412544 0.02928,-3.192991 0.493183,-7.983363 -1.712736,-7.431263 -1.226255,-0.314325 c 1.4224,5.022497 1.379008,8.816621 1.162403,10.194219 -0.362656,2.307873 -1.401939,5.287786 -1.344084,7.261932 0.0575,1.957562 1.465439,5.123743 3.079045,7.18961 l 0.04163,0.05327 3.512609,-0.116417 -2.148064,-1.248127"
       style="fill:#713b8e;fill-opacity:1;fill-rule:nonzero;stroke:none;stroke-width:0.0352777"
       id="path386" />
    <path
       d="m 80.13119,62.265735 c -0.330555,2.087033 -7.839782,14.882987 -5.284965,16.146637 4.192058,2.074688 5.461,-5.725935 7.980892,-14.186957 0.06808,-0.226836 -2.695927,-1.95968 -2.695927,-1.95968"
       style="fill:#fefbe1;fill-opacity:1;fill-rule:nonzero;stroke:none;stroke-width:0.0352777"
       id="path388" />
    <path
       d="m 81.949758,63.431312 c -1.088673,5.573536 -2.75096,14.45401 -6.270273,14.195425 -2.961216,-0.218017 -3.657599,-6.83648 -7.228416,-11.277952 -0.06068,0.808213 -0.120297,6.554962 -0.359127,7.191727 10.417881,11.749969 11.549943,2.431344 14.735175,-9.315097 0.01728,-0.06385 -0.577144,-0.566914 -0.877359,-0.794103"
       style="fill:#edd6ad;fill-opacity:1;fill-rule:nonzero;stroke:none;stroke-width:0.0352777"
       id="path390" />
    <path
       d="m 65.723744,64.036679 c 1.281289,0.79375 3.111148,7.138105 1.341967,13.543491 -1.76918,6.405386 2.257425,10.797823 3.355269,11.041944 1.098198,0.243771 18.911712,4.026254 18.911712,4.026254 C 84.45201,88.255579 72.617375,88.744177 71.580208,87.097056 70.543041,85.449585 69.069489,83.327627 69.478711,78.313947 69.753172,74.95127 70.441441,70.664668 70.05515,67.880193 69.754583,65.71449 68.979883,64.730946 65.723744,64.036679"
       style="fill:#fefbe1;fill-opacity:1;fill-rule:nonzero;stroke:none;stroke-width:0.0352777"
       id="path392" />
    <path
       d="m 70.192733,72.517456 c 0,0 -2.525536,7.025216 -2.205919,8.854016 0.319616,1.8288 3.593394,5.725584 3.593394,5.725584 0,0 -1.418167,-2.082446 -1.909939,-5.812719 -0.319264,-2.421115 0.287161,-6.162675 0.522464,-8.766881"
       style="fill:#edd6ad;fill-opacity:1;fill-rule:nonzero;stroke:none;stroke-width:0.0352777"
       id="path394" />
    <path
       d="m 68.128983,95.461416 c 0,0 15.818909,0.414163 18.261542,1.035404 0.842785,0.2159 0.392642,3.154186 1.884537,6.74617 3.027892,7.29086 8.297333,17.85408 8.297333,17.85408 l 0.921809,-0.13476 c 0,0 -6.627987,-27.721275 -8.567912,-28.488921 -2.053874,-0.813152 -14.605707,-4.833054 -21.250275,-3.607504 -3.670653,0.676979 -2.121959,4.173008 0.452966,6.595531"
       style="fill:#5c443b;fill-opacity:1;fill-rule:nonzero;stroke:none;stroke-width:0.0352777"
       id="path396" />
    <path
       d="m 68.128983,95.461416 c 0,0 15.818909,0.414163 18.261542,1.035404 0.842785,0.2159 0.392642,3.154186 1.884537,6.74617 3.027892,7.29086 8.297333,17.85408 8.297333,17.85408 l 0.921809,-0.13476 c 0,0 -8.582025,-24.834848 -9.952212,-26.407883 -2.523422,-2.897013 -11.020777,-3.864682 -19.865975,-5.688542 -3.655836,-0.753533 -2.121959,4.173008 0.452966,6.595531"
       style="fill:#463029;fill-opacity:1;fill-rule:nonzero;stroke:none;stroke-width:0.0352777"
       id="path398" />
    <path
       d="m 60.704422,96.532449 c 2.890309,1.0414 13.178367,0.04974 18.067868,0.73378 1.027287,0.144285 1.186391,3.487211 2.995435,7.359651 3.305527,7.07319 8.442677,16.61301 8.442677,16.61301 l 1.074208,-0.67134 c 0,0 -7.46125,-27.078161 -9.608608,-27.886728 -1.298575,-0.49036 -10.510661,-5.008033 -16.034102,-3.823052 -2.746022,0.592667 -8.708672,0.667809 -4.937478,7.674679"
       style="fill:#5c443b;fill-opacity:1;fill-rule:nonzero;stroke:none;stroke-width:0.0352777"
       id="path400" />
    <path
       d="m 60.704422,96.532449 c 2.890309,1.0414 13.178367,0.04974 18.067868,0.73378 1.027287,0.144285 1.186391,3.487211 2.995435,7.359651 3.305527,7.07319 8.442677,16.61301 8.442677,16.61301 l 1.074208,-0.67134 c 0,0 -8.760177,-23.300969 -10.234787,-25.059213 -1.509183,-1.799873 -12.598754,-5.051073 -18.926881,-5.922081 -2.783417,-0.382763 -5.189714,-0.06068 -1.41852,6.946193"
       style="fill:#463029;fill-opacity:1;fill-rule:nonzero;stroke:none;stroke-width:0.0352777"
       id="path402" />
    <path
       d="m 94.438092,121.42586 h -4.294013 c 0,0 0.687916,-1.20826 1.148291,-1.20826 0.698855,0 3.145722,1.20826 3.145722,1.20826"
       style="fill:#d0b1aa;fill-opacity:1;fill-rule:nonzero;stroke:none;stroke-width:0.0352777"
       id="path404" />
    <path
       d="m 100.9038,121.42586 h -4.294363 c 0,0 0.687917,-1.20826 1.14935,-1.20826 0.698148,0 3.145013,1.20826 3.145013,1.20826"
       style="fill:#d0b1aa;fill-opacity:1;fill-rule:nonzero;stroke:none;stroke-width:0.0352777"
       id="path406" />
    <path
       d="m 66.078639,65.302798 c -0.639939,0.381353 -2.535414,1.553987 -4.463344,-0.502355 l 0.1397,-7.207955 3.827991,4.903611 0.495653,2.806699"
       style="fill:#fddba6;fill-opacity:1;fill-rule:nonzero;stroke:none;stroke-width:0.0352777"
       id="path408" />
    <path
       d="m 61.627642,64.814201 c 0,0 1.208616,1.960386 4.1529,3.581047 0,0 0.826205,-2.064808 0.224014,-3.510844 -0.295981,-0.710847 -2.966862,-0.667808 -4.210756,-0.420158 -0.162278,0.03245 -0.180269,0.08784 -0.166158,0.349955"
       style="fill:#fddba6;fill-opacity:1;fill-rule:nonzero;stroke:none;stroke-width:0.0352777"
       id="path410" />
    <path
       d="m 76.96889,113.49154 10.655652,-1.38289 c 0,0 -4.71805,-17.56904 -7.890227,-18.382546 -3.17218,-0.813507 -16.918518,-2.11455 -17.32527,-4.147961 -0.406753,-2.033764 2.318455,-22.246872 -2.480734,-25.174928 0,0 -2.521655,-1.586089 -3.416299,3.050117 -0.894645,4.636205 -2.887486,18.95228 3.37573,29.851701 0,0 13.229519,-0.147109 14.153091,0.650875 1.78929,1.544814 2.928057,15.535632 2.928057,15.535632"
       style="fill:#fefbe1;fill-opacity:1;fill-rule:nonzero;stroke:none;stroke-width:0.0352777"
       id="path412" />
    <path
       d="m 77.246877,95.218354 c -0.448379,-0.473427 -9.233958,-2.04964 -13.84688,-2.8448 -2.421114,-0.41769 -2.962275,-2.770717 -3.715808,-5.109282 C 57.02107,79.001864 62.76535,74.13847 58.2632,64.29209 c -0.663927,0.304095 -1.361722,1.142647 -1.751188,3.161242 -0.894645,4.636205 -2.887486,18.95228 3.37573,29.851701 0,0 13.229519,-0.147109 14.153091,0.650875 1.78929,1.544814 2.928057,15.535632 2.928057,15.535632 l 7.87047,-1.0213 C 83.325237,108.53289 78.733483,96.784687 77.246877,95.218354"
       style="fill:#edd6ad;fill-opacity:1;fill-rule:nonzero;stroke:none;stroke-width:0.0352777"
       id="path414" />
    <path
       d="m 60.528739,71.34694 c -2.064103,3.95217 -1.163461,7.672212 -3.333044,10.935053 -1.095728,1.647825 -3.255433,0.764821 -3.505906,-1.999191 -0.24518,-2.708982 0.258939,-7.944205 3.234267,-14.356292 0.396522,-0.854428 1.203677,-1.756834 1.831269,-1.624189 1.65982,0.350308 3.272014,4.176536 1.773414,7.044619"
       style="fill:#fefbe1;fill-opacity:1;fill-rule:nonzero;stroke:none;stroke-width:0.0352777"
       id="path416" />
    <path
       d="m 70.285514,82.86196 c 0.915105,0.109008 2.529416,1.662287 2.914297,0.976487 0.343958,-0.613127 -0.04057,-2.094087 -2.797881,-1.660525 l -0.116416,0.684038"
       style="fill:#fddba6;fill-opacity:1;fill-rule:nonzero;stroke:none;stroke-width:0.0352777"
       id="path418" />
    <path
       d="m 71.834208,82.233662 c -0.678039,1.044927 0.639586,1.845381 1.114425,2.004131 0.522464,0.174271 1.26224,-0.482248 1.244952,-0.907698 -0.01447,-0.426508 -2.099732,-1.496131 -2.359377,-1.096433"
       style="fill:#fddba6;fill-opacity:1;fill-rule:nonzero;stroke:none;stroke-width:0.0352777"
       id="path420" />
    <path
       d="m 73.344803,82.69192 c 0.72284,-0.19826 1.448857,-0.763764 1.29928,-1.001889 -0.167216,-0.270934 -0.696383,0.330554 -1.389239,0.354189 -0.751769,0.02893 -1.222022,0.08573 -1.226608,0.36689 -0.0032,0.28081 0.593019,0.481894 1.316567,0.28081"
       style="fill:#fddba6;fill-opacity:1;fill-rule:nonzero;stroke:none;stroke-width:0.0352777"
       id="path422" />
    <path
       d="m 74.43171,83.536118 c 0.6096,0.200025 0.97508,0.168979 1.011415,0.0071 0.03704,-0.162983 -0.318558,-0.256821 -0.92851,-0.457904 -0.609249,-0.20179 -1.33209,-0.603604 -1.368426,-0.440973 -0.03598,0.164042 0.676275,0.690385 1.285521,0.891823"
       style="fill:#fddba6;fill-opacity:1;fill-rule:nonzero;stroke:none;stroke-width:0.0352777"
       id="path424" />
    <path
       d="m 74.112448,84.205689 c 0.567619,0.32244 1.204735,0.356658 1.271762,0.206729 0.06809,-0.149931 -0.523875,-0.325614 -1.091493,-0.647348 -0.56762,-0.322085 -0.953559,-0.500239 -1.020234,-0.350308 -0.06773,0.151342 0.27305,0.468842 0.839965,0.790927"
       style="fill:#fddba6;fill-opacity:1;fill-rule:nonzero;stroke:none;stroke-width:0.0352777"
       id="path426" />
    <path
       d="m 73.364911,84.497437 c 0.580319,0.29986 0.972962,0.340077 1.036814,0.188031 0.06209,-0.151696 -0.356659,-0.278341 -0.937331,-0.577146 -0.578908,-0.299508 -0.989189,-0.499885 -1.053041,-0.347837 -0.0635,0.151342 0.373238,0.438502 0.953558,0.736952"
       style="fill:#fddba6;fill-opacity:1;fill-rule:nonzero;stroke:none;stroke-width:0.0352777"
       id="path428" />
    <path
       d="m 71.112778,81.037039 c -3.683706,0.192971 -16.211197,-2.74461 -16.943916,-0.31891 -1.458031,4.826 17.025054,3.897841 17.025054,3.897841 l -0.08114,-3.578931"
       style="fill:#fefbe1;fill-opacity:1;fill-rule:nonzero;stroke:none;stroke-width:0.0352777"
       id="path430" />
    <path
       d="M 55.633595,80.451781 C 55.407464,80.047852 55.24307,79.556785 55.182392,78.971527 54.907931,76.315462 55.537287,70.528496 58.2632,64.29209 c -0.569736,-0.0568 -0.923924,0.745067 -1.28658,1.52647 -2.975328,6.412087 -3.897489,11.85545 -3.651956,14.564429 0.05292,0.58279 0.210609,1.07174 0.431095,1.474258 1.133122,3.735917 17.438157,2.758371 17.438157,2.758371 l -0.02999,-1.31445 c -4.357507,0.123825 -14.60182,0.09631 -15.530331,-2.849387"
       style="fill:#edd6ad;fill-opacity:1;fill-rule:nonzero;stroke:none;stroke-width:0.0352777"
       id="path432" />
    <path
       d="m 73.76355,71.588593 1.335265,1.6256 1.538462,-2.990145 -1.306335,3.948289 -1.567392,-2.583744"
       style="fill:#edd6ad;fill-opacity:1;fill-rule:nonzero;stroke:none;stroke-width:0.0352777"
       id="path434" />
    <path
       d="m 65.852861,64.023626 v 0 l -0.269875,-1.527527 0.269875,1.527527"
       style="fill:#dd9f99;fill-opacity:1;fill-rule:nonzero;stroke:none;stroke-width:0.0352777"
       id="path436" />
    <path
       d="m 66.339694,64.778571 c -0.121002,-0.02999 -0.244475,-0.05891 -0.369005,-0.08643 l -0.0949,-0.53728 c 0.151694,0.140052 0.308327,0.350661 0.463902,0.623711 M 60.09835,64.516457 c -0.05574,-0.04022 -0.112536,-0.07796 -0.170039,-0.113242 0,0 -0.416278,-0.261761 -0.970491,-0.261761 -0.216253,0 -0.45332,0.03986 -0.695325,0.150636 -0.0046,-3.44e-4 -0.0092,-0.0011 -0.01376,-0.0014 0.673453,-0.281517 1.92017,-0.620183 3.390547,-0.73025 l -0.01446,0.744714 c -0.543277,0.0314 -1.059744,0.09984 -1.526469,0.211314 m 6.022269,-0.390525 c -0.08467,-0.02011 -0.17145,-0.03986 -0.26035,-0.05962 l -0.0074,-0.04269 v 0 l 7.14e-4,0.0049 c 0.08961,0.03034 0.178506,0.06385 0.267053,0.09737"
       style="fill:#cc8466;fill-opacity:1;fill-rule:nonzero;stroke:none;stroke-width:0.0352777"
       id="path438" />
    <path
       d="m 65.863797,71.266154 c -1.335616,0 -2.495903,-0.84067 -3.571875,-1.93287 -0.404283,-2.248958 -1.086202,-4.016727 -2.193572,-4.816827 0.466725,-0.111478 0.983192,-0.179917 1.52647,-0.211314 l -0.0095,0.4953 c 0.0039,0.0042 0.0081,0.0085 0.01235,0.01305 0,3.44e-4 0,3.44e-4 0,7.14e-4 0,0 1.208616,1.960386 4.1529,3.581047 0,0 0.4064,-1.016352 0.441325,-2.121958 0.428625,1.821745 0.661458,3.442406 0.77223,4.794603 -0.390878,0.136172 -0.766939,0.198261 -1.1303,0.198261 m 0.485775,-6.470297 -0.377472,-0.09666 -0.0014,-0.0071 c 0.12453,0.02752 0.248002,0.05645 0.369005,0.08643 0.0032,0.0056 0.0064,0.01164 0.0099,0.01729"
       style="fill:#430e60;fill-opacity:1;fill-rule:nonzero;stroke:none;stroke-width:0.0352777"
       id="path440" />
    <path
       d="m 66.994097,71.067893 c -0.110772,-1.352197 -0.343605,-2.972858 -0.77223,-4.794603 0.01482,-0.4699 -0.03739,-0.95638 -0.216959,-1.387475 l -0.03281,-0.186619 0.377472,0.09666 c 0.625475,1.10878 1.229431,3.222978 1.400881,5.798255 -0.201084,0.204964 -0.449792,0.366536 -0.750711,0.471664 -0.0021,7.14e-4 -0.0035,0.0014 -0.0056,0.0021"
       style="fill:#4a0072;fill-opacity:1;fill-rule:nonzero;stroke:none;stroke-width:0.0352777"
       id="path442" />
    <path
       d="m 67.750453,70.594112 c -0.17145,-2.575277 -0.775406,-4.689475 -1.400881,-5.798255 -0.0035,-0.0056 -0.0067,-0.01164 -0.0099,-0.01728 -0.155575,-0.27305 -0.312208,-0.483659 -0.463902,-0.623711 l -0.01552,-0.08855 c 0.0889,0.01976 0.175683,0.03951 0.26035,0.05962 0.0049,0.0018 0.0099,0.0035 0.01482,0.0056 1.823861,0.512233 3.207456,4.840816 1.615017,6.462536"
       style="fill:#dc9d84;fill-opacity:1;fill-rule:nonzero;stroke:none;stroke-width:0.0352777"
       id="path444" />
    <path
       d="m 66.004908,64.885815 c 0,-3.44e-4 -3.44e-4,-0.0011 -3.44e-4,-0.0014 -0.179211,-0.429683 -1.226255,-0.5842 -2.301169,-0.5842 -0.703086,0 -1.417814,0.06597 -1.909586,0.164042 -0.161925,0.03246 -0.18027,0.08784 -0.166159,0.34925 -0.0042,-0.0046 -0.0085,-0.0088 -0.01235,-0.01305 l 0.0095,-0.4953 0.01446,-0.744714 v 0 l 0.08079,-4.171245 1.241425,-0.251177 2.621492,3.358091 0.269875,1.527528 0.0074,0.04269 0.01552,0.08855 0.0949,0.537281 0.0014,0.0071 0.03281,0.186619"
       style="fill:#dc8661;fill-opacity:1;fill-rule:nonzero;stroke:none;stroke-width:0.0352777"
       id="path446" />
    <path
       d="m 65.780542,68.395248 c -2.944284,-1.620661 -4.1529,-3.581047 -4.1529,-3.581047 0,-3.44e-4 0,-3.44e-4 0,-7.14e-4 -0.01411,-0.261408 0.0042,-0.316794 0.166158,-0.34925 0.491772,-0.09807 1.2065,-0.164042 1.909586,-0.164042 1.074914,0 2.121958,0.154517 2.30117,0.5842 0,3.44e-4 3.43e-4,0.0011 3.43e-4,0.0014 0.179564,0.431094 0.231775,0.917574 0.216959,1.387474 -0.03493,1.105606 -0.441325,2.121959 -0.441325,2.121959"
       style="fill:#dc8661;fill-opacity:1;fill-rule:nonzero;stroke:none;stroke-width:0.0352777"
       id="path448" />
    <path
       d="m 62.291922,69.333284 c -0.4191,-0.425097 -0.8255,-0.888999 -1.224491,-1.355372 -0.245886,-1.864077 -1.269648,-3.455811 -2.312106,-3.675591 -0.04163,-0.0088 -0.08431,-0.01305 -0.127353,-0.01305 -0.107597,0 -0.219075,0.02646 -0.331964,0.07444 -0.01093,-0.02399 -0.02152,-0.04763 -0.03281,-0.07161 v 0 c 0,0 -3.44e-4,0 -7.14e-4,0 0.242005,-0.110772 0.479072,-0.150636 0.695325,-0.150636 0.554213,0 0.970491,0.261761 0.970491,0.261761 0.0575,0.03528 0.1143,0.07302 0.170039,0.113242 1.10737,0.800099 1.789289,2.567869 2.193572,4.816827"
       style="fill:#dc9d84;fill-opacity:1;fill-rule:nonzero;stroke:none;stroke-width:0.0352777"
       id="path450" />
    <path
       d="m 58.215575,64.401804 c 0.01587,-0.03669 0.03175,-0.07302 0.04763,-0.109714 v 0 0 c 0.01129,0.02399 0.02187,0.04763 0.03281,0.07161 -0.02681,0.01164 -0.05362,0.02399 -0.08043,0.0381"
       style="fill:#cc8466;fill-opacity:1;fill-rule:nonzero;stroke:none;stroke-width:0.0352777"
       id="path452" />
    <path
       d="m 61.067431,67.977912 c -1.036814,-1.213202 -2.024239,-2.44863 -3.056467,-3.095272 0.06668,-0.160161 0.135114,-0.320675 0.204611,-0.480836 0.02681,-0.01411 0.05362,-0.02646 0.08043,-0.0381 0.112889,-0.04798 0.224367,-0.07444 0.331964,-0.07444 0.04304,0 0.08573,0.0042 0.127353,0.01305 1.042458,0.219781 2.06622,1.811514 2.312106,3.675592"
       style="fill:#dc9d84;fill-opacity:1;fill-rule:nonzero;stroke:none;stroke-width:0.0352777"
       id="path454" />
    <path
       d="m 58.010964,64.88264 c -0.133703,-0.08396 -0.268464,-0.158044 -0.40393,-0.220486 0.17533,-0.223661 0.369711,-0.371475 0.601133,-0.371475 0.01235,0 0.02505,3.44e-4 0.03775,0.0014 0.0011,-3.44e-4 0.0021,-7.14e-4 0.0028,-0.0014 0.0046,3.44e-4 0.0092,0.0011 0.01376,0.0014 3.44e-4,0 7.15e-4,0 7.15e-4,0 v 0 c -0.01587,0.03669 -0.03175,0.07303 -0.04763,0.109714 -0.0695,0.160161 -0.137937,0.320675 -0.204612,0.480836"
       style="fill:#cc8466;fill-opacity:1;fill-rule:nonzero;stroke:none;stroke-width:0.0352777"
       id="path456" />
    <path
       d="m 68.4994,64.159093 c 0.853017,-0.489656 1.379361,-11.684706 -1.572331,-14.337594 -2.950633,-2.652889 -6.350352,0.974725 -6.554611,1.6637 -0.204258,0.68968 1.407937,10.626019 1.629834,11.026775 0.220839,0.401108 5.741458,2.079977 6.497108,1.647119"
       style="fill:#fddba6;fill-opacity:1;fill-rule:nonzero;stroke:none;stroke-width:0.0352777"
       id="path458" />
    <path
       d="m 63.018292,60.386135 c 0.01729,-2.392539 2.127602,-12.257617 -2.204156,-10.511014 -4.333169,1.746603 -0.545394,8.258175 -0.545394,8.258175 l 1.103136,2.103614 1.646414,0.149225"
       style="fill:#6d3434;fill-opacity:1;fill-rule:nonzero;stroke:none;stroke-width:0.0352777"
       id="path460" />
    <path
       d="m 62.200553,59.698924 c -1.038225,-1.73355 -3.140781,-1.865136 -3.269192,-0.70485 -0.129822,1.160286 2.436989,3.402188 3.0988,2.563636 0.662164,-0.838906 0.784578,-0.832556 0.170392,-1.858786"
       style="fill:#fddba6;fill-opacity:1;fill-rule:nonzero;stroke:none;stroke-width:0.0352777"
       id="path462" />
    <path
       d="m 61.674561,59.804051 c -0.659694,-1.102783 -1.998133,-1.186744 -2.08033,-0.44838 -0.08184,0.738011 1.550458,2.164644 1.97238,1.630892 0.420864,-0.534106 0.498828,-0.52952 0.10795,-1.182512"
       style="fill:#f07c61;fill-opacity:1;fill-rule:nonzero;stroke:none;stroke-width:0.0352777"
       id="path464" />
    <path
       d="m 61.874939,60.592157 c -0.444853,-0.744008 -1.346906,-0.8001 -1.402997,-0.302331 -0.05503,0.498123 1.045986,1.4605 1.330325,1.100314 0.284691,-0.360186 0.337255,-0.357364 0.07267,-0.797983"
       style="fill:#fddba6;fill-opacity:1;fill-rule:nonzero;stroke:none;stroke-width:0.0352777"
       id="path466" />
    <path
       d="m 63.714322,46.953415 3.407481,0.849136 c 0.757766,-0.581025 2.085269,-0.586316 2.085269,-0.586316 -1.736019,-1.263297 -4.249561,-0.89535 -5.49275,-0.26282"
       style="fill:#844543;fill-opacity:1;fill-rule:nonzero;stroke:none;stroke-width:0.0352777"
       id="path468" />
    <path
       d="m 61.090008,48.178613 3.669595,-0.888295 c 0.444147,-0.878064 1.710619,-1.520825 1.710619,-1.520825 -2.270478,-0.282222 -4.496505,1.251656 -5.380214,2.40912"
       style="fill:#844543;fill-opacity:1;fill-rule:nonzero;stroke:none;stroke-width:0.0352777"
       id="path470" />
    <path
       d="m 64.4735,55.334357 c -0.277636,-0.162984 -0.319264,-0.611364 -0.05186,-0.889 0.22225,-0.23107 1.929341,-0.856545 2.132894,-0.767292 0.2032,0.08925 0.169686,1.258711 0.169686,1.258711 0,0 -1.846791,0.634295 -2.250722,0.397581"
       style="fill:#844543;fill-opacity:1;fill-rule:nonzero;stroke:none;stroke-width:0.0352777"
       id="path472" />
    <path
       d="m 69.657217,54.910671 c 0.178505,-0.213784 0.100541,-0.657578 -0.179917,-0.874536 -0.233186,-0.179564 -1.736372,-0.4445 -1.875014,-0.316795 -0.138289,0.127353 0.178858,1.2573 0.178858,1.2573 0,0 1.61537,0.245534 1.876073,-0.06597"
       style="fill:#844543;fill-opacity:1;fill-rule:nonzero;stroke:none;stroke-width:0.0352777"
       id="path474" />
    <path
       d="m 65.185758,60.398129 c 0.206728,1.023409 0.901348,1.948392 1.478845,2.017889 0.483305,0.05856 1.1938,-0.568678 1.628775,-1.498247 l -3.10762,-0.519642"
       style="fill:#532625;fill-opacity:1;fill-rule:nonzero;stroke:none;stroke-width:0.0352777"
       id="path476" />
    <path
       d="m 66.20705,57.032982 c -0.02434,-0.41663 -0.259292,-0.76588 -0.524581,-0.780344 -0.265994,-0.01446 -0.461433,0.310797 -0.437091,0.72778 0.02469,0.416278 0.259644,0.765881 0.525286,0.780345 0.265642,0.01482 0.46108,-0.311503 0.436386,-0.727781"
       style="fill:#603e37;fill-opacity:1;fill-rule:nonzero;stroke:none;stroke-width:0.0352777"
       id="path478" />
    <path
       d="m 68.901567,56.859768 c -0.02469,-0.41663 -0.26035,-0.76588 -0.525287,-0.780697 -0.265994,-0.01446 -0.461433,0.31115 -0.436738,0.727781 0.02434,0.416983 0.259997,0.766233 0.525286,0.780697 0.265641,0.01446 0.460727,-0.31115 0.436739,-0.727781"
       style="fill:#603e37;fill-opacity:1;fill-rule:nonzero;stroke:none;stroke-width:0.0352777"
       id="path480" />
    <path
       d="m 67.947655,59.876724 c 0.287867,-0.04763 1.554692,-0.539398 1.567745,-0.655461 0.01341,-0.115712 -2.355497,-3.457223 -2.355497,-3.457223 l 0.787752,4.112684"
       style="fill:#fddba6;fill-opacity:1;fill-rule:nonzero;stroke:none;stroke-width:0.0352777"
       id="path482" />
    <path
       d="m 67.390619,55.866699 0.141817,0.74048 c 0.700969,0.998361 1.896886,2.575631 1.887714,2.652889 -0.0092,0.08361 -0.814564,0.297745 -1.290814,0.464961 l 0.04833,0.254 c 0.288925,-0.04727 1.555397,-0.539044 1.568097,-0.654755 0.01341,-0.116064 -2.355145,-3.457575 -2.355145,-3.457575"
       style="fill:#f89f82;fill-opacity:1;fill-rule:nonzero;stroke:none;stroke-width:0.0352777"
       id="path484" />
    <path
       d="m 65.424942,60.512076 c 0.168275,0.832909 0.804686,1.119012 1.274586,1.176514 0.3937,0.04763 0.900641,0.0025 1.25483,-0.753533 l -2.529416,-0.422981"
       style="fill:#fefbe1;fill-opacity:1;fill-rule:nonzero;stroke:none;stroke-width:0.0352777"
       id="path486" />
    <path
       d="m 58.595164,93.032189 2.461683,-3.268485 c 0,0 1.098198,0.889706 0.789517,1.508125 -0.309033,0.618066 -1.737431,2.804231 -2.214033,2.593975 -0.476603,-0.209902 -1.037167,-0.833615 -1.037167,-0.833615"
       style="fill:#fefbe1;fill-opacity:1;fill-rule:nonzero;stroke:none;stroke-width:0.0352777"
       id="path488" />
  </g>
</svg>
