<?xml version="1.0" encoding="UTF-8" standalone="no"?>
<svg
   xmlns:dc="http://purl.org/dc/elements/1.1/"
   xmlns:cc="http://creativecommons.org/ns#"
   xmlns:rdf="http://www.w3.org/1999/02/22-rdf-syntax-ns#"
   xmlns:svg="http://www.w3.org/2000/svg"
   xmlns="http://www.w3.org/2000/svg"
   xmlns:sodipodi="http://sodipodi.sourceforge.net/DTD/sodipodi-0.dtd"
   xmlns:inkscape="http://www.inkscape.org/namespaces/inkscape"
   sodipodi:docname="doctor-result.svg"
   inkscape:version="1.0 (4035a4fb49, 2020-05-01)"
   id="svg4726"
   version="1.1"
   viewBox="0 0 87.432755 96.915985"
   height="96.915985mm"
   width="87.432755mm">
  <defs
     id="defs4720" />
  <sodipodi:namedview
     inkscape:window-maximized="1"
     inkscape:window-y="187"
     inkscape:window-x="1592"
     inkscape:window-height="705"
     inkscape:window-width="1366"
     showgrid="false"
     inkscape:document-rotation="0"
     inkscape:current-layer="layer1"
     inkscape:document-units="mm"
     inkscape:cy="184.93609"
     inkscape:cx="46.366702"
     inkscape:zoom="0.7"
     inkscape:pageshadow="2"
     inkscape:pageopacity="0.0"
     borderopacity="1.0"
     bordercolor="#666666"
     pagecolor="#ffffff"
     id="base" />
  <metadata
     id="metadata4723">
    <rdf:RDF>
      <cc:Work
         rdf:about="">
        <dc:format>image/svg+xml</dc:format>
        <dc:type
           rdf:resource="http://purl.org/dc/dcmitype/StillImage" />
        <dc:title></dc:title>
      </cc:Work>
    </rdf:RDF>
  </metadata>
  <g
     transform="translate(-18.824695,-61.657054)"
     id="layer1"
     inkscape:groupmode="layer"
     inkscape:label="Layer 1">
    <path
       d="m 48.887767,108.2694 h 2.663746 v -0.56514 h -2.663746 z"
       style="fill:#4e342d;fill-opacity:1;fill-rule:nonzero;stroke:none;stroke-width:0.0352777"
       id="path498" />
    <path
       d="m 48.887767,111.09585 h 2.663746 v -0.56513 h -2.663746 z"
       style="fill:#4e342d;fill-opacity:1;fill-rule:nonzero;stroke:none;stroke-width:0.0352777"
       id="path500" />
    <path
       d="m 44.945122,110.46861 h 3.642147 v -2.07257 h -3.642147 z"
       style="fill:#4e342d;fill-opacity:1;fill-rule:nonzero;stroke:none;stroke-width:0.0352777"
       id="path502" />
    <path
       d="m 44.4216,114.9817 h 1.502199 v -4.38079 H 44.4216 Z"
       style="fill:#4e342d;fill-opacity:1;fill-rule:nonzero;stroke:none;stroke-width:0.0352777"
       id="path504" />
    <path
       d="m 47.960313,111.45639 h 1.566555 v -4.04992 h -1.566555 z"
       style="fill:#dac48c;fill-opacity:1;fill-rule:nonzero;stroke:none;stroke-width:0.0352777"
       id="path506" />
    <path
       d="m 48.077436,111.26907 h 1.332423 v -3.67387 h -1.332423 z"
       style="fill:#f1eaae;fill-opacity:1;fill-rule:nonzero;stroke:none;stroke-width:0.0352777"
       id="path508" />
    <path
       d="m 48.652111,111.26907 h 0.653327 v -3.67387 h -0.653327 z"
       style="fill:#fef9d1;fill-opacity:1;fill-rule:nonzero;stroke:none;stroke-width:0.0352777"
       id="path510" />
    <path
       d="M 48.678217,111.26907 H 48.91386 V 107.5952 H 48.678217 Z"
       style="fill:#fefbe1;fill-opacity:1;fill-rule:nonzero;stroke:none;stroke-width:0.0352777"
       id="path512" />
    <path
       d="m 43.61268,120.89355 h 3.210631 l -0.417335,-7.08202 h -2.37596 l -0.417336,7.08202"
       style="fill:#dac48c;fill-opacity:1;fill-rule:nonzero;stroke:none;stroke-width:0.0352777"
       id="path514" />
    <path
       d="m 43.853627,120.56406 h 2.729794 l -0.355245,-6.42303 h -2.02036 l -0.354189,6.42303"
       style="fill:#f1eaae;fill-opacity:1;fill-rule:nonzero;stroke:none;stroke-width:0.0352777"
       id="path516" />
    <path
       d="m 45.030494,120.56406 h 1.338085 l -0.299153,-6.42303 h -0.98919 l -0.04974,6.42303"
       style="fill:#fef9d1;fill-opacity:1;fill-rule:nonzero;stroke:none;stroke-width:0.0352777"
       id="path518" />
    <path
       d="m 45.084116,120.56406 h 0.482601 l -0.09102,-6.42303 h -0.357012 l -0.03457,6.42303"
       style="fill:#fefbe1;fill-opacity:1;fill-rule:nonzero;stroke:none;stroke-width:0.0352777"
       id="path520" />
    <path
       d="m 46.693842,109.52599 c 0,-1.07491 -0.724958,-1.94698 -1.619251,-1.94698 -0.894291,0 -1.61925,0.87207 -1.61925,1.94698 0,1.07492 0.724959,1.94733 1.61925,1.94733 0.894293,0 1.619251,-0.87241 1.619251,-1.94733"
       style="fill:#fefbe1;fill-opacity:1;fill-rule:nonzero;stroke:none;stroke-width:0.0352777"
       id="path522" />
    <path
       d="m 46.536854,109.52599 c 0,-0.97155 -0.654753,-1.75824 -1.462263,-1.75824 -0.807508,0 -1.461911,0.78669 -1.461911,1.75824 0,0.97155 0.654403,1.75824 1.461911,1.75824 0.80751,0 1.462263,-0.78669 1.462263,-1.75824"
       style="fill:#4e342d;fill-opacity:1;fill-rule:nonzero;stroke:none;stroke-width:0.0352777"
       id="path524" />
    <path
       d="m 46.328717,109.52599 c 0,-0.8322 -0.562329,-1.50742 -1.254126,-1.50742 -0.691797,0 -1.252714,0.67522 -1.252714,1.50742 0,0.8322 0.560917,1.50742 1.252714,1.50742 0.691797,0 1.254126,-0.67522 1.254126,-1.50742"
       style="fill:#dac48c;fill-opacity:1;fill-rule:nonzero;stroke:none;stroke-width:0.0352777"
       id="path526" />
    <path
       d="m 45.231577,110.0608 c 0,0.30445 -0.08537,0.58561 -0.227188,0.81139 l 0.0702,0.004 c 0.620185,0 1.123245,-0.60501 1.123245,-1.35043 0,-0.74542 -0.50306,-1.35043 -1.123245,-1.35043 -0.366536,0 -0.690386,0.21201 -0.895702,0.53869 0.587022,0.0441 1.052688,0.62865 1.052688,1.34655"
       style="fill:#fef9d1;fill-opacity:1;fill-rule:nonzero;stroke:none;stroke-width:0.0352777"
       id="path528" />
    <path
       d="M 51.180821,116.58296 H 72.465987 V 101.6037 H 51.180821 Z"
       style="fill:#dac48c;fill-opacity:1;fill-rule:nonzero;stroke:none;stroke-width:0.0352777"
       id="path530" />
    <path
       d="M 51.488092,116.28662 H 72.158787 V 101.89989 H 51.488092 Z"
       style="fill:#fef9d1;fill-opacity:1;fill-rule:nonzero;stroke:none;stroke-width:0.0352777"
       id="path532" />
    <path
       d="m 61.916909,107.20118 c -3.876323,-0.82408 -7.55015,-0.88194 -10.428817,-0.31397 V 101.9 h 20.67066 v 9.68762 c -2.418646,-1.87571 -6.037439,-3.49355 -10.241843,-4.38644"
       style="fill:#f1eaae;fill-opacity:1;fill-rule:nonzero;stroke:none;stroke-width:0.0352777"
       id="path534" />
    <path
       d="M 52.744686,115.43784 H 70.901839 V 102.74885 H 52.744686 Z"
       style="fill:#c09b76;fill-opacity:1;fill-rule:nonzero;stroke:none;stroke-width:0.0352777"
       id="path536" />
    <path
       d="M 53.151438,114.95665 H 70.495439 V 103.22954 H 53.151438 Z"
       style="fill:#4e342d;fill-opacity:1;fill-rule:nonzero;stroke:none;stroke-width:0.0352777"
       id="path538" />
    <path
       d="M 53.398029,114.61234 H 70.248813 V 103.42682 H 53.398029 Z"
       style="fill:#d2efdb;fill-opacity:1;fill-rule:nonzero;stroke:none;stroke-width:0.0352777"
       id="path540" />
    <path
       d="M 53.557838,114.43983 H 70.088652 V 103.59894 H 53.557838 Z"
       style="fill:#b1e3c1;fill-opacity:1;fill-rule:nonzero;stroke:none;stroke-width:0.0352777"
       id="path542" />
    <path
       d="M 53.800551,114.28002 H 69.846294 V 103.75748 H 53.800551 Z"
       style="fill:#36514f;fill-opacity:1;fill-rule:nonzero;stroke:none;stroke-width:0.0352777"
       id="path544" />
    <path
       d="m 72.762354,111.54882 h 1.576613 v -4.27041 h -1.576613 z"
       style="fill:#4e342d;fill-opacity:1;fill-rule:nonzero;stroke:none;stroke-width:0.0352777"
       id="path546" />
    <path
       d="m 71.407688,110.76777 h 3.522125 v -2.70936 h -3.522125 z"
       style="fill:#dac48c;fill-opacity:1;fill-rule:nonzero;stroke:none;stroke-width:0.0352777"
       id="path548" />
    <path
       d="m 71.530102,110.52223 h 3.301641 v -2.21712 h -3.301641 z"
       style="fill:#f1eaae;fill-opacity:1;fill-rule:nonzero;stroke:none;stroke-width:0.0352777"
       id="path550" />
    <path
       d="m 71.530102,110.52223 h 1.354746 v -2.21712 h -1.354746 z"
       style="fill:#fef9d1;fill-opacity:1;fill-rule:nonzero;stroke:none;stroke-width:0.0352777"
       id="path552" />
    <path
       d="m 62.171967,114.28038 h -6.194425 l 5.496984,-10.52301 h 6.194422 l -5.496981,10.52301"
       style="fill:#56958a;fill-opacity:1;fill-rule:nonzero;stroke:none;stroke-width:0.0352777"
       id="path554" />
    <path
       d="m 73.579388,108.2694 h 2.756352 v -0.56514 h -2.756352 z"
       style="fill:#4e342d;fill-opacity:1;fill-rule:nonzero;stroke:none;stroke-width:0.0352777"
       id="path556" />
    <path
       d="m 73.579388,111.09585 h 2.756352 v -0.56513 h -2.756352 z"
       style="fill:#4e342d;fill-opacity:1;fill-rule:nonzero;stroke:none;stroke-width:0.0352777"
       id="path558" />
    <path
       d="m 76.64679,110.46861 h 3.769079 v -2.07257 H 76.64679 Z"
       style="fill:#4e342d;fill-opacity:1;fill-rule:nonzero;stroke:none;stroke-width:0.0352777"
       id="path560" />
    <path
       d="m 79.403044,114.9817 h 1.552908 v -4.38079 h -1.552908 z"
       style="fill:#4e342d;fill-opacity:1;fill-rule:nonzero;stroke:none;stroke-width:0.0352777"
       id="path562" />
    <path
       d="m 75.673829,111.45639 h 1.620711 v -4.04992 h -1.620711 z"
       style="fill:#dac48c;fill-opacity:1;fill-rule:nonzero;stroke:none;stroke-width:0.0352777"
       id="path564" />
    <path
       d="m 75.795186,111.26907 h 1.3779 v -3.67387 h -1.3779 z"
       style="fill:#f1eaae;fill-opacity:1;fill-rule:nonzero;stroke:none;stroke-width:0.0352777"
       id="path566" />
    <path
       d="m 75.904194,111.26907 h 0.6751 v -3.67387 h -0.6751 z"
       style="fill:#fef9d1;fill-opacity:1;fill-rule:nonzero;stroke:none;stroke-width:0.0352777"
       id="path568" />
    <path
       d="m 76.307771,111.26907 h 0.243777 v -3.67387 h -0.243777 z"
       style="fill:#fefbe1;fill-opacity:1;fill-rule:nonzero;stroke:none;stroke-width:0.0352777"
       id="path570" />
    <path
       d="m 81.793819,120.89355 h -3.323873 l 0.432858,-7.08202 h 2.458509 l 0.432506,7.08202"
       style="fill:#dac48c;fill-opacity:1;fill-rule:nonzero;stroke:none;stroke-width:0.0352777"
       id="path572" />
    <path
       d="m 81.544404,120.56406 h -2.825043 l 0.367945,-6.42303 h 2.08915 l 0.367948,6.42303"
       style="fill:#f1eaae;fill-opacity:1;fill-rule:nonzero;stroke:none;stroke-width:0.0352777"
       id="path574" />
    <path
       d="m 80.324852,120.56406 h -1.383596 l 0.310092,-6.42303 h 1.023763 l 0.04974,6.42303"
       style="fill:#fef9d1;fill-opacity:1;fill-rule:nonzero;stroke:none;stroke-width:0.0352777"
       id="path576" />
    <path
       d="M 80.271229,120.56406 H 79.77099 l 0.09349,-6.42303 h 0.369359 l 0.03739,6.42303"
       style="fill:#fefbe1;fill-opacity:1;fill-rule:nonzero;stroke:none;stroke-width:0.0352777"
       id="path578" />
    <path
       d="m 78.605061,109.52599 c 0,-1.07491 0.749652,-1.94698 1.675693,-1.94698 0.924632,0 1.674284,0.87207 1.674284,1.94698 0,1.07492 -0.749652,1.94733 -1.674284,1.94733 -0.926041,0 -1.675693,-0.87241 -1.675693,-1.94733"
       style="fill:#fefbe1;fill-opacity:1;fill-rule:nonzero;stroke:none;stroke-width:0.0352777"
       id="path580" />
    <path
       d="m 78.76769,109.52599 c 0,-0.97155 0.676629,-1.75824 1.513064,-1.75824 0.835025,0 1.513065,0.78669 1.513065,1.75824 0,0.97155 -0.67804,1.75824 -1.513065,1.75824 -0.836435,0 -1.513064,-0.78669 -1.513064,-1.75824"
       style="fill:#4e342d;fill-opacity:1;fill-rule:nonzero;stroke:none;stroke-width:0.0352777"
       id="path582" />
    <path
       d="m 78.983944,109.52599 c 0,-0.8322 0.580319,-1.50742 1.29681,-1.50742 0.715082,0 1.296811,0.67522 1.296811,1.50742 0,0.8322 -0.581729,1.50742 -1.296811,1.50742 -0.716491,0 -1.29681,-0.67522 -1.29681,-1.50742"
       style="fill:#dac48c;fill-opacity:1;fill-rule:nonzero;stroke:none;stroke-width:0.0352777"
       id="path584" />
    <path
       d="m 80.118123,110.0608 c 0,0.30445 0.0882,0.58561 0.235656,0.81139 l -0.07302,0.004 c -0.642056,0 -1.161698,-0.60501 -1.161698,-1.35043 0,-0.74542 0.519642,-1.35043 1.161698,-1.35043 0.378884,0 0.713669,0.21201 0.926042,0.53869 -0.607835,0.0441 -1.088673,0.62865 -1.088673,1.34655"
       style="fill:#fef9d1;fill-opacity:1;fill-rule:nonzero;stroke:none;stroke-width:0.0352777"
       id="path586" />
    <path
       d="m 37.410142,121.24774 h -1.483078 l 2.593622,33.90512 h 1.019881 l -2.130425,-33.90512"
       style="fill:#7e5335;fill-opacity:1;fill-rule:nonzero;stroke:none;stroke-width:0.0352777"
       id="path588" />
    <path
       d="m 84.960704,121.24774 h 1.481315 l -2.592213,33.90512 h -1.019527 l 2.130425,-33.90512"
       style="fill:#5d3530;fill-opacity:1;fill-rule:nonzero;stroke:none;stroke-width:0.0352777"
       id="path590" />
    <path
       d="m 72.952502,121.24774 h 1.426279 l -2.497312,33.90512 h -0.979665 l 2.050698,-33.90512"
       style="fill:#5d3530;fill-opacity:1;fill-rule:nonzero;stroke:none;stroke-width:0.0352777"
       id="path592" />
    <path
       d="m 73.083381,132.22512 h 11.791881 v -0.97014 H 73.083381 Z"
       style="fill:#5d3530;fill-opacity:1;fill-rule:nonzero;stroke:none;stroke-width:0.0352777"
       id="path594" />
    <path
       d="M 86.034206,120.76267 H 34.912828 l 0.341912,3.30306 h 50.779466 v -3.30306"
       style="fill:#b4885c;fill-opacity:1;fill-rule:nonzero;stroke:none;stroke-width:0.0352777"
       id="path596" />
    <path
       d="M 86.361938,120.76267 H 47.745119 l 0.255058,3.30306 h 38.034029 l 0.327732,-3.30306"
       style="fill:#5d3530;fill-opacity:1;fill-rule:nonzero;stroke:none;stroke-width:0.0352777"
       id="path598" />
    <path
       d="m 36.463286,121.24774 h -1.481278 l 2.593198,33.90512 h 1.018505 l -2.130425,-33.90512"
       style="fill:#b4885c;fill-opacity:1;fill-rule:nonzero;stroke:none;stroke-width:0.0352777"
       id="path600" />
    <path
       d="m 48.472901,121.24774 h -1.426282 l 2.49555,33.90512 h 0.980017 l -2.049285,-33.90512"
       style="fill:#b4885c;fill-opacity:1;fill-rule:nonzero;stroke:none;stroke-width:0.0352777"
       id="path602" />
    <path
       d="m 49.467734,121.24774 h -1.426282 l 2.495902,33.90512 h 0.981075 l -2.050695,-33.90512"
       style="fill:#5d3530;fill-opacity:1;fill-rule:nonzero;stroke:none;stroke-width:0.0352777"
       id="path604" />
    <path
       d="M 36.413544,132.22653 H 48.205566 V 131.2535 H 36.413544 Z"
       style="fill:#b4885c;fill-opacity:1;fill-rule:nonzero;stroke:none;stroke-width:0.0352777"
       id="path606" />
    <path
       d="m 87.505644,119.69305 -53.893543,-0.001 0.221862,1.24319 0.647841,0.70132 h 52.252315 l 0.40781,-0.57856 0.363715,-1.36454"
       style="fill:#dbc0a1;fill-opacity:1;fill-rule:nonzero;stroke:none;stroke-width:0.0352777"
       id="path608" />
    <path
       d="m 47.764521,120.4995 0.373592,1.13665 h 38.612585 l 0.399698,-0.33902 0.355248,-0.79763 H 47.764521"
       style="fill:#b89c7d;fill-opacity:1;fill-rule:nonzero;stroke:none;stroke-width:0.0352777"
       id="path610" />
    <path
       d="m 83.535836,157.44027 c 0,-0.62548 -0.505884,-1.13136 -1.131359,-1.13136 -0.625829,0 -1.132771,0.50588 -1.132771,1.13136 0,0.62583 0.506942,1.13277 1.132771,1.13277 0.625475,0 1.131359,-0.50694 1.131359,-1.13277"
       style="fill:#503631;fill-opacity:1;fill-rule:nonzero;stroke:none;stroke-width:0.0352777"
       id="path612" />
    <path
       d="m 98.463979,157.44027 c 0,-0.62548 -0.507293,-1.13136 -1.132768,-1.13136 -0.624065,0 -1.131359,0.50588 -1.131359,1.13136 0,0.62583 0.507294,1.13277 1.131359,1.13277 0.625475,0 1.132768,-0.50694 1.132768,-1.13277"
       style="fill:#503631;fill-opacity:1;fill-rule:nonzero;stroke:none;stroke-width:0.0352777"
       id="path614" />
    <path
       d="m 90.664415,157.44027 c 0,-0.62548 -0.507294,-1.13136 -1.131359,-1.13136 -0.625827,0 -1.132768,0.50588 -1.132768,1.13136 0,0.62583 0.506941,1.13277 1.132768,1.13277 0.624065,0 1.131359,-0.50694 1.131359,-1.13277"
       style="fill:#503631;fill-opacity:1;fill-rule:nonzero;stroke:none;stroke-width:0.0352777"
       id="path616" />
    <path
       d="m 88.858898,138.27738 v 16.08984 l 1.178279,0.0967 v -16.1865 h -1.178279"
       style="fill:#503631;fill-opacity:1;fill-rule:nonzero;stroke:none;stroke-width:0.0352777"
       id="path618" />
    <path
       d="m 83.535836,156.14099 h 13.251037 c 0,0 -3.783894,-2.42006 -6.961717,-2.42006 -3.17641,0 -6.28932,2.42006 -6.28932,2.42006"
       style="fill:#503631;fill-opacity:1;fill-rule:nonzero;stroke:none;stroke-width:0.0352777"
       id="path620" />
    <path
       d="m 81.565219,136.60027 h 15.89546 c 0,0 -3.819877,2.26413 -8.976431,2.26413 -2.6416,0 -6.919029,-2.26413 -6.919029,-2.26413"
       style="fill:#503631;fill-opacity:1;fill-rule:nonzero;stroke:none;stroke-width:0.0352777"
       id="path622" />
    <path
       d="m 102.00269,126.66041 c -0.2921,1.30775 -1.55716,2.24755 -3.027536,2.24755 h -8.638823 c -0.821266,0 -1.598435,-0.33761 -2.115254,-0.91617 -0.518231,-0.58032 -0.717904,-1.34091 -0.547158,-2.07116 l 4.329642,-18.47003 c 0.250825,-1.0735 1.192035,-1.90288 2.38266,-2.1015 3.908425,-0.6477 6.787089,-0.79516 9.866839,-0.22719 1.35326,0.24942 2.2285,1.44675 1.95404,2.67617 l -4.20441,18.86233"
       style="fill:#be876d;fill-opacity:1;fill-rule:nonzero;stroke:none;stroke-width:0.0352777"
       id="path624" />
    <path
       d="m 97.959506,137.08534 c 0.48119,-0.15028 0.781405,-0.63676 0.70838,-1.14652 -0.07444,-0.50836 -0.50165,-0.88618 -1.004713,-0.88618 H 81.261829 c -0.442383,0 -0.8255,0.31714 -0.917575,0.76094 -0.09243,0.44344 0.130882,0.89429 0.535869,1.07738 0.361246,0.16546 0.804688,0.27164 1.347965,0.27164 2.418291,0 15.232591,0 15.232591,0 0,0 0.212373,0.0124 0.498827,-0.0773"
       style="fill:#dbb48f;fill-opacity:1;fill-rule:nonzero;stroke:none;stroke-width:0.0352777"
       id="path626" />
    <path
       d="m 100.89638,126.66041 c -0.29245,1.30775 -1.557511,2.24755 -3.02789,2.24755 h -8.638821 c -0.821267,0 -1.598438,-0.33761 -2.116667,-0.91617 -0.516821,-0.58032 -0.717904,-1.34091 -0.547158,-2.07116 l 4.331404,-18.46862 c 0.250825,-1.0735 1.193448,-1.90429 2.382663,-2.1015 3.90807,-0.6477 6.786739,-0.79657 9.866489,-0.2286 1.35325,0.24942 2.2285,1.44675 1.95403,2.67617 l -4.20405,18.86233"
       style="fill:#dbb48f;fill-opacity:1;fill-rule:nonzero;stroke:none;stroke-width:0.0352777"
       id="path628" />
    <path
       d="m 80.342844,135.81358 c 0.09102,-0.44238 0.475192,-0.76094 0.917575,-0.76094 h 8.899525 c -0.445206,0 -0.826913,0.31856 -0.91934,0.76094 -0.09207,0.44344 0.131234,0.89429 0.536223,1.07738 0.362302,0.16546 0.804686,0.27164 1.347611,0.27164 -3.604684,0 -7.6454,0 -8.89635,0 -0.544336,0 -0.988132,-0.10618 -1.349375,-0.27164 -0.40499,-0.18309 -0.628298,-0.63394 -0.535869,-1.07738"
       style="fill:#be876d;fill-opacity:1;fill-rule:nonzero;stroke:none;stroke-width:0.0352777"
       id="path630" />
    <path
       d="m 105.10043,107.79808 c 0.27447,-1.22942 -0.60078,-2.42675 -1.95403,-2.67617 -0.85972,-0.15875 -1.70463,-0.25929 -2.5587,-0.31009 l 1.9678,14.40604 2.54493,-11.41978"
       style="fill:#f3d0b5;fill-opacity:1;fill-rule:nonzero;stroke:none;stroke-width:0.0352777"
       id="path632" />
    <path
       d="m 70.389219,124.26011 c -0.962025,0.0399 -3.09245,1.70039 -3.263196,0.85972 -0.106185,-0.51682 0.09102,-2.12761 1.247071,-2.00907 0.82691,0.084 1.544812,0.0441 2.079625,-0.11854 l -0.0635,1.26789"
       style="fill:#fddba6;fill-opacity:1;fill-rule:nonzero;stroke:none;stroke-width:0.0352777"
       id="path634" />
    <path
       d="m 69.020794,123.37252 c 0.352777,1.29116 -1.236133,2.10009 -1.768123,2.23943 -0.58561,0.15276 -1.125715,-0.68792 -0.972608,-1.18533 0.149931,-0.49883 2.602793,-1.54729 2.740731,-1.0541"
       style="fill:#fddba6;fill-opacity:1;fill-rule:nonzero;stroke:none;stroke-width:0.0352777"
       id="path636" />
    <path
       d="m 67.342277,123.76269 c -0.668162,-0.3048 -1.223787,-1.03787 -0.997656,-1.30246 0.255058,-0.29915 0.602192,0.45474 1.2954,0.5514 0.752475,0.10724 1.21144,0.22048 1.125715,0.54963 -0.08537,0.32949 -0.753534,0.50588 -1.423459,0.20143"
       style="fill:#fddba6;fill-opacity:1;fill-rule:nonzero;stroke:none;stroke-width:0.0352777"
       id="path638" />
    <path
       d="m 65.972442,124.64463 c -0.680508,0.17639 -1.043165,0.10302 -1.026583,-0.091 0.01376,-0.19437 0.403929,-0.27022 1.085847,-0.4452 0.682273,-0.17639 1.541992,-0.5775 1.527175,-0.38171 -0.01516,0.19439 -0.905579,0.74154 -1.586439,0.91793"
       style="fill:#fddba6;fill-opacity:1;fill-rule:nonzero;stroke:none;stroke-width:0.0352777"
       id="path640" />
    <path
       d="m 66.084271,125.46026 c -0.678037,0.32244 -1.335262,0.29915 -1.356077,0.11853 -0.02082,-0.18344 0.635352,-0.32949 1.311979,-0.65193 0.67804,-0.32385 1.125715,-0.49319 1.146529,-0.3115 0.02045,0.18344 -0.425804,0.52387 -1.102431,0.8449"
       style="fill:#fddba6;fill-opacity:1;fill-rule:nonzero;stroke:none;stroke-width:0.0352777"
       id="path642" />
    <path
       d="m 66.74714,125.87653 c -0.682271,0.29493 -1.094314,0.30304 -1.110896,0.11713 -0.01376,-0.18345 0.45226,-0.29069 1.135592,-0.58455 0.68086,-0.29352 1.160285,-0.48895 1.178277,-0.30445 0.01376,0.18485 -0.519642,0.47695 -1.202973,0.77187"
       style="fill:#fddba6;fill-opacity:1;fill-rule:nonzero;stroke:none;stroke-width:0.0352777"
       id="path644" />
    <path
       d="m 98.200806,80.916421 -3.334808,1.265061 0.155575,0.384528 3.201106,-0.843139 0.398286,-0.425803 -0.420159,-0.380647"
       style="fill:#c39169;fill-opacity:1;fill-rule:nonzero;stroke:none;stroke-width:0.0352777"
       id="path646" />
    <path
       d="m 94.958073,81.593049 1.988608,-2.149475 1.674284,1.853494 -0.398286,0.425803 -1.139473,-1.371247 -1.648177,1.496483 -0.476956,-0.255058"
       style="fill:#e4bb97;fill-opacity:1;fill-rule:nonzero;stroke:none;stroke-width:0.0352777"
       id="path648" />
    <path
       d="m 95.737006,78.478726 -1.47461,3.248025 0.381706,0.162631 1.677104,-2.852561 -0.01799,-0.5842 -0.566209,0.02611"
       style="fill:#c39169;fill-opacity:1;fill-rule:nonzero;stroke:none;stroke-width:0.0352777"
       id="path650" />
    <path
       d="m 93.913852,81.243093 -0.104775,-2.925586 2.494138,0.135114 0.01799,0.5842 -1.774825,-0.172156 -0.114652,2.224264 -0.517877,0.154164"
       style="fill:#e4bb97;fill-opacity:1;fill-rule:nonzero;stroke:none;stroke-width:0.0352777"
       id="path652" />
    <path
       d="m 85.305015,82.406201 c 0,0 0.927454,-5.221463 5.127625,-4.528255 4.199114,0.694619 3.680883,3.066344 3.680883,3.066344 0,0 4.558596,3.668183 2.812698,5.782028 0,0 1.916642,5.462764 -1.982965,6.476999 0,0 -1.13171,3.815646 -6.748285,1.001538 -5.616927,-2.813757 -2.889956,-11.798654 -2.889956,-11.798654"
       style="fill:#b35b46;fill-opacity:1;fill-rule:nonzero;stroke:none;stroke-width:0.0352777"
       id="path654" />
    <path
       d="m 88.317386,81.860454 c 0.956379,-0.3429 1.94592,-0.0949 2.826454,0.154517 1.374071,0.386997 2.487437,0.774347 2.805641,-1.08197 0.139348,-0.112889 0.43674,0.285398 0.737307,0.682273 0.336198,0.443794 0.673806,0.887236 0.796573,0.622652 1.176866,1.261181 2.5273,3.175 1.44286,4.488392 0,0 1.916642,5.462764 -1.982965,6.476999 0,0 -1.13171,3.815646 -6.748285,1.001538 -3.729215,-1.868665 -4.231923,-10.776304 0.122415,-12.344401"
       style="fill:#983e31;fill-opacity:1;fill-rule:nonzero;stroke:none;stroke-width:0.0352777"
       id="path656" />
    <path
       d="m 81.960681,114.61657 c -2.99861,0.59796 -9.534877,7.33249 -13.624629,9.47809 l 0.468488,0.86818 c 0,0 13.026673,-3.67665 15.187437,-6.33906 0.655813,-0.80892 0.462844,-4.50215 -2.031296,-4.00721"
       style="fill:#fddba6;fill-opacity:1;fill-rule:nonzero;stroke:none;stroke-width:0.0352777"
       id="path658" />
    <path
       d="m 81.960681,114.61657 c -0.362654,0.073 -0.775758,0.23566 -1.229429,0.46708 0.362654,0.83221 0.08431,2.45851 0.431446,2.97639 0,0 -8.789104,5.24369 -12.642144,6.37504 l 0.283986,0.52776 c 0,0 13.026673,-3.67665 15.187437,-6.33906 0.655813,-0.80892 0.462844,-4.50215 -2.031296,-4.00721"
       style="fill:#f89f82;fill-opacity:1;fill-rule:nonzero;stroke:none;stroke-width:0.0352777"
       id="path660" />
    <path
       d="m 88.565388,98.92608 c -3.439584,2.27118 -5.061302,13.19883 -7.037565,15.29362 -1.019527,1.08021 2.531533,5.27932 3.463221,4.68101 0.931333,-0.59796 8.658225,-12.75786 8.290277,-14.77257 -0.570794,-3.12526 -3.680883,-5.883981 -4.715933,-5.20206"
       style="fill:#fabd55;fill-opacity:1;fill-rule:nonzero;stroke:none;stroke-width:0.0352777"
       id="path662" />
    <path
       d="m 93.281321,104.12814 c -0.259292,-1.42205 -3.084335,-5.716058 -4.266494,-5.139973 -1.845381,0.899938 -5.618339,17.312213 -6.550025,17.910173 -0.03704,0.0236 -0.07832,0.0374 -0.123825,0.0469 0.897113,1.21709 2.149827,2.27648 2.650067,1.95545 0.931333,-0.59796 8.658225,-12.75786 8.290277,-14.77257"
       style="fill:#f39c3c;fill-opacity:1;fill-rule:nonzero;stroke:none;stroke-width:0.0352777"
       id="path664" />
    <path
       d="m 80.945036,114.31601 c 0,0 1.262237,4.22381 3.699933,5.26838 0,0 2.09056,-0.34748 2.569985,-2.65571 0,0 -5.705123,-3.17888 -5.878689,-3.13478 -0.173567,0.0427 -0.391229,0.52211 -0.391229,0.52211"
       style="fill:#fdf5b3;fill-opacity:1;fill-rule:nonzero;stroke:none;stroke-width:0.0352777"
       id="path666" />
    <path
       d="m 84.188827,115.26286 c -0.210962,1.05128 -0.9398,1.87114 -1.858787,2.07786 0.588433,0.9398 1.361371,1.83586 2.314929,2.24367 0,0 2.09056,-0.34748 2.569985,-2.65571 0,0 -1.526823,-0.85161 -3.026127,-1.66582"
       style="fill:#f8d8a1;fill-opacity:1;fill-rule:nonzero;stroke:none;stroke-width:0.0352777"
       id="path668" />
    <path
       d="m 89.609963,130.35364 2.141714,4.72934 -18.854562,-1.6757 -4.890559,-6.69995 21.603407,3.64631"
       style="fill:#4e709d;fill-opacity:1;fill-rule:nonzero;stroke:none;stroke-width:0.0352777"
       id="path670" />
    <path
       d="m 76.281665,132.74723 c 0,0 -2.308225,-4.75826 -7.203017,-5.33858 0,0 8.312504,-0.93698 15.005404,4.95547 l -7.802387,0.38311"
       style="fill:#2d4d70;fill-opacity:1;fill-rule:nonzero;stroke:none;stroke-width:0.0352777"
       id="path672" />
    <path
       d="m 90.398421,132.09566 c 0,0 2.620785,2.80564 1.353256,2.98732 -5.832123,0.83643 -18.854562,-1.6757 -18.854562,-1.6757 l -1.357136,-1.86161 18.858442,0.54999"
       style="fill:#2d4d70;fill-opacity:1;fill-rule:nonzero;stroke:none;stroke-width:0.0352777"
       id="path674" />
    <path
       d="m 92.334465,134.56757 c -4.856338,0.5267 -20.681596,-10.10074 -23.947613,-6.60753 -1.111956,1.18922 0.61595,5.37175 0.61595,7.44008 0,1.93746 -0.697089,19.10221 -0.697089,19.10221 l -0.756709,0.36654 c 0,0 -4.73357,-26.95293 -3.006725,-30.16532 1.547284,-2.87584 20.058592,-0.61454 20.058592,-0.61454 0,0 5.64021,0.47696 8.779581,2.97815 1.905704,1.51695 3.593746,6.9977 -1.045987,7.50041"
       style="fill:#4e709d;fill-opacity:1;fill-rule:nonzero;stroke:none;stroke-width:0.0352777"
       id="path676" />
    <path
       d="m 67.232211,134.41905 c 0,-2.0701 -0.766234,-6.09812 0.34572,-7.28733 3.26743,-3.49321 14.588067,3.25226 19.462046,2.94781 1.393119,-0.0882 -0.304448,-4.8768 -0.483658,-5.70653 2.102908,0.36653 5.390796,1.13136 7.231944,2.53012 1.940277,1.47567 3.17641,7.72125 -1.461911,8.22254 -4.856339,0.52811 -20.372916,-10.23725 -23.640346,-6.74405 -1.112308,1.19062 0.803275,5.12375 0.803275,7.19208 0,1.93746 -1.183568,18.92864 -1.183568,18.92864 l -0.585611,0.28399 c 0.06174,-2.92982 -0.487891,-18.63372 -0.487891,-20.36727"
       style="fill:#34547d;fill-opacity:1;fill-rule:nonzero;stroke:none;stroke-width:0.0352777"
       id="path678" />
    <path
       d="m 67.906015,131.1488 c 0.367948,-4.93607 2.895248,-3.24097 4.074937,-1.58327 1.992488,2.79859 0.606071,16.49624 1.166988,28.2 l -1.344788,-0.58561 c 0,0 -4.266496,-21.09505 -3.897137,-26.03112"
       style="fill:#4e709d;fill-opacity:1;fill-rule:nonzero;stroke:none;stroke-width:0.0352777"
       id="path680" />
    <path
       d="m 72.17639,157.81386 c -0.341488,-9.29499 0.795162,-22.05002 -0.01376,-27.94811 2.160765,3.87667 0.769057,16.53645 0.985309,27.89978 l -0.97155,0.0483"
       style="fill:#2d4d70;fill-opacity:1;fill-rule:nonzero;stroke:none;stroke-width:0.0352777"
       id="path682" />
    <path
       d="m 73.497896,158.09361 h -5.20206 c 0,0 2.996141,-1.72543 4.265083,-1.55046 1.270704,0.17639 0.936977,1.55046 0.936977,1.55046"
       style="fill:#d9bf9f;fill-opacity:1;fill-rule:nonzero;stroke:none;stroke-width:0.0352777"
       id="path684" />
    <path
       d="m 68.910727,154.75598 -3.860093,3.3722 c 0,0 1.097137,-4.53954 2.162172,-5.2324 1.06398,-0.6932 1.697921,1.8602 1.697921,1.8602"
       style="fill:#d9bf9f;fill-opacity:1;fill-rule:nonzero;stroke:none;stroke-width:0.0352777"
       id="path686" />
    <path
       d="m 95.179971,134.0952 c 5.571419,-17.57715 5.694189,-35.742385 -4.836935,-36.150195 -2.2225,-0.439563 -3.326342,3.532005 -3.569055,4.612215 2.082448,13.73364 -0.106185,21.62422 0.07585,21.78967 1.987198,1.78999 7.427736,12.59946 8.330142,9.74831"
       style="fill:#fabd55;fill-opacity:1;fill-rule:nonzero;stroke:none;stroke-width:0.0352777"
       id="path688" />
    <path
       d="m 86.849829,124.34689 0.05927,-0.62583 c 0,0 3.048352,2.4818 4.747331,1.917 l -1.001889,4.17971 -3.804709,-5.47088"
       style="fill:#f39c3c;fill-opacity:1;fill-rule:nonzero;stroke:none;stroke-width:0.0352777"
       id="path690" />
    <path
       d="m 90.700046,97.968288 c 3.881967,5.866342 3.038475,18.363842 -0.654402,30.884632 2.178402,3.38737 4.563885,7.04462 5.134327,5.24228 5.508269,-17.37431 5.910439,-35.454166 -4.479925,-36.126912"
       style="fill:#f39c3c;fill-opacity:1;fill-rule:nonzero;stroke:none;stroke-width:0.0352777"
       id="path692" />
    <path
       d="m 87.623119,116.58437 c -3.127023,0.17921 -10.923765,6.01521 -15.480948,7.60271 l 0.279752,0.9398 c 0,0 13.821481,-1.87007 16.561154,-4.2485 0.832202,-0.72214 1.242836,-4.44288 -1.359958,-4.29401"
       style="fill:#fddba6;fill-opacity:1;fill-rule:nonzero;stroke:none;stroke-width:0.0352777"
       id="path694" />
    <path
       d="m 87.623119,116.58437 c -0.689329,0.0399 -1.606904,0.3556 -2.666648,0.83926 0.321027,0.76623 -0.08961,2.60032 0.299156,2.98873 l -11.652956,4.28872 -1.180748,0.4258 c 0,0 13.821481,-1.87007 16.561154,-4.2485 0.832202,-0.72214 1.242836,-4.44288 -1.359958,-4.29401"
       style="fill:#f89f82;fill-opacity:1;fill-rule:nonzero;stroke:none;stroke-width:0.0352777"
       id="path696" />
    <path
       d="m 92.865044,115.42937 -0.188738,-0.0191 c 0.08537,-0.19579 0.170746,-0.39299 0.256117,-0.59407 -0.02045,0.2039 -0.0441,0.40922 -0.06738,0.61312"
       style="fill:#fcda86;fill-opacity:1;fill-rule:nonzero;stroke:none;stroke-width:0.0352777"
       id="path698" />
    <path
       d="m 98.866498,116.0552 -6.001454,-0.62583 c 0.02328,-0.2039 0.04692,-0.40922 0.06738,-0.61312 0.420513,-0.97684 0.846315,-2.00237 1.252715,-3.0219 l 4.813652,0.50165 c 0.0067,1.20686 -0.03739,2.46239 -0.132292,3.7592"
       style="fill:#f6c656;fill-opacity:1;fill-rule:nonzero;stroke:none;stroke-width:0.0352777"
       id="path700" />
    <path
       d="m 87.678152,114.10646 c 0,-0.9398 -0.02082,-1.93887 -0.06491,-2.99861 l 0.0013,0.001 c 0.04551,1.05692 0.06491,2.05599 0.06491,2.99473 -0.0013,0 -0.0013,0.001 -0.0013,0.002"
       style="fill:#f6c656;fill-opacity:1;fill-rule:nonzero;stroke:none;stroke-width:0.0352777"
       id="path702" />
    <path
       d="m 87.679563,114.10399 c 0,-0.93874 -0.01939,-1.93781 -0.06491,-2.99473 l 1.110896,0.11571 c -0.310092,1.04069 -0.64911,2.02177 -1.045985,2.87902"
       style="fill:#fcda86;fill-opacity:1;fill-rule:nonzero;stroke:none;stroke-width:0.0352777"
       id="path704" />
    <path
       d="m 92.672073,100.38129 c -3.150304,3.05505 -3.216275,13.49516 -6.792383,16.19884 -1.300692,0.9839 3.088216,5.42255 3.944056,4.61645 0.85584,-0.8075 7.484181,-15.75505 6.868231,-18.0922 -0.953912,-3.625498 -3.071637,-3.64208 -4.019904,-2.72309"
       style="fill:#fabd55;fill-opacity:1;fill-rule:nonzero;stroke:none;stroke-width:0.0352777"
       id="path706" />
    <path
       d="m 88.700502,101.94127 c -0.212021,-0.60078 0.08678,-2.828924 1.438627,-4.24568 0,0 2.313869,0.23001 3.428648,1.011415 -1.340908,1.397355 -2.798939,2.450045 -4.867275,3.234265"
       style="fill:#fdf5b3;fill-opacity:1;fill-rule:nonzero;stroke:none;stroke-width:0.0352777"
       id="path708" />
    <path
       d="m 89.130538,101.07873 -1.52259,-5.040842 3.232856,-3.5941 1.893359,6.143271 c -1.027994,1.248481 -1.849261,1.807991 -3.603625,2.491671"
       style="fill:#fddba6;fill-opacity:1;fill-rule:nonzero;stroke:none;stroke-width:0.0352777"
       id="path710" />
    <path
       d="m 97.142473,103.34286 c -0.217662,-0.82691 -1.450975,-3.193 -2.306812,-3.395489 0.173566,3.657249 -6.504517,17.462499 -8.038042,19.404189 1.092552,1.24707 2.562929,2.28176 3.026127,1.84502 0.85584,-0.8075 7.934677,-15.51516 7.318727,-17.85372"
       style="fill:#f39c3c;fill-opacity:1;fill-rule:nonzero;stroke:none;stroke-width:0.0352777"
       id="path712" />
    <path
       d="m 84.993513,116.62423 c 0,0 1.26365,4.22381 3.701698,5.26839 0,0 2.090208,-0.3489 2.568575,-2.65571 0,0 -5.703713,-3.17889 -5.87728,-3.13479 -0.174977,0.0427 -0.392993,0.52211 -0.392993,0.52211"
       style="fill:#fdf5b3;fill-opacity:1;fill-rule:nonzero;stroke:none;stroke-width:0.0352777"
       id="path714" />
    <path
       d="m 87.730363,99.842596 c 0.06491,-0.179212 0.140758,-0.319616 0.226131,-0.406754 -0.08008,0.132292 -0.154517,0.268817 -0.226131,0.406754"
       style="fill:#dd7436;fill-opacity:1;fill-rule:nonzero;stroke:none;stroke-width:0.0352777"
       id="path716" />
    <path
       d="m 88.431686,98.764859 -0.16369,-0.541513 0.16369,0.541513"
       style="fill:#dd9f99;fill-opacity:1;fill-rule:nonzero;stroke:none;stroke-width:0.0352777"
       id="path718" />
    <path
       d="m 89.016238,104.73033 c -0.188736,0 -0.383117,-0.0342 -0.583142,-0.11007 -1.08444,-0.40922 -1.150408,-3.53624 -0.702733,-4.777664 0.07161,-0.137937 0.14605,-0.274462 0.226131,-0.406754 0,0 0.0013,-0.0011 0.0028,-0.0024 0.14323,-0.23989 0.301625,-0.467432 0.472371,-0.668515 l 0.406752,1.343733 c -0.221898,0.81562 -0.244123,1.52964 -0.137935,1.83268 1.2319,-0.46708 2.247545,-1.02941 3.151717,-1.70321 0.09772,0.25364 0.190145,0.51399 0.276928,0.7814 -0.515408,0.7179 -0.94121,1.6577 -1.316212,2.72027 -0.571854,0.59231 -1.158875,0.9906 -1.796698,0.9906"
       style="fill:#dd7436;fill-opacity:1;fill-rule:nonzero;stroke:none;stroke-width:0.0352777"
       id="path720" />
    <path
       d="m 92.129148,101.01946 c -0.08678,-0.2674 -0.17921,-0.52775 -0.276929,-0.7814 0.611717,-0.456143 1.171221,-0.964495 1.712735,-1.528235 0.352777,0.173567 0.680861,0.38453 0.995186,0.61313 -0.213784,0.162629 -0.420511,0.347485 -0.623004,0.549979 -0.0056,0 -0.0095,0 -0.01516,0 -0.489302,0 -0.934154,0.202496 -1.249892,0.508356 -0.191558,0.18732 -0.372178,0.40111 -0.542925,0.63817"
       style="fill:#d56027;fill-opacity:1;fill-rule:nonzero;stroke:none;stroke-width:0.0352777"
       id="path722" />
    <path
       d="m 90.812936,103.73973 c 0.375002,-1.06257 0.800804,-2.00237 1.316212,-2.72027 0.170746,-0.23706 0.351367,-0.45085 0.542925,-0.63817 0.315738,-0.30586 0.76059,-0.508356 1.249892,-0.508356 0.0056,0 0.0095,0 0.01516,0 -1.131358,1.135586 -2.104321,2.809876 -3.1242,3.866796"
       style="fill:#dd7436;fill-opacity:1;fill-rule:nonzero;stroke:none;stroke-width:0.0352777"
       id="path724" />
    <path
       d="m 93.567777,98.707005 c -0.0013,-0.0013 -0.0042,-0.0028 -0.0056,-0.0042 0.0013,0.0013 0.0042,0.0028 0.0056,0.0042 m -0.0081,-0.0067 c -0.0013,0 -0.0028,-0.0013 -0.0042,-0.0013 0.0013,0 0.0028,0.0013 0.0042,0.0013 m -0.0099,-0.0056 v 0"
       style="fill:#dd9f99;fill-opacity:1;fill-rule:nonzero;stroke:none;stroke-width:0.0352777"
       id="path726" />
    <path
       d="m 88.700502,101.94127 c -0.106187,-0.30304 -0.08396,-1.01706 0.137936,-1.83268 l 0.2921,0.97014 c 1.754364,-0.68368 2.575631,-1.24319 3.603625,-2.491671 l -0.106186,-0.3429 c 0.340429,0.123825 0.662869,0.272698 0.921809,0.450498 0.0028,0.0013 0.0042,0.0028 0.0056,0.0042 0.0013,0 0.0028,0.0013 0.0042,0.0013 0,0.0011 0.0013,0.0011 0.0024,0.0024 0.0013,0.0013 0.0042,0.0028 0.0056,0.0042 l -0.0028,0.0028 c -0.541515,0.563739 -1.101019,1.072091 -1.712736,1.528233 -0.904171,0.67381 -1.919816,1.23613 -3.151716,1.70321"
       style="fill:#db986a;fill-opacity:1;fill-rule:nonzero;stroke:none;stroke-width:0.0352777"
       id="path728" />
    <path
       d="m 89.130538,101.07873 -0.2921,-0.97014 -0.406752,-1.343731 -0.16369,-0.541513 c 0.76341,-0.130881 1.592792,-0.391231 2.470856,-0.842081 0.0053,-0.0028 0.01093,-0.0053 0.01622,-0.0081 0.0042,-0.0028 0.0099,-0.0056 0.01376,-0.0085 0.0085,-0.0039 0.01516,-0.0067 0.02363,-0.01236 0.01236,-0.0053 0.02469,-0.01236 0.03563,-0.01799 0.0042,-0.0024 0.0071,-0.0039 0.0113,-0.0053 0,-0.0013 0.0013,-0.0013 0.0028,-0.0013 0.0024,-0.0028 0.0053,-0.0042 0.0081,-0.0056 0.428625,-0.230011 0.82409,-0.573265 1.184981,-1.002948 l 0.592667,1.925108 0.106185,0.3429 c -1.027993,1.248481 -1.84926,1.807985 -3.603625,2.491675"
       style="fill:#dc8661;fill-opacity:1;fill-rule:nonzero;stroke:none;stroke-width:0.0352777"
       id="path730" />
    <path
       d="m 90.944169,96.382198 c -0.184856,0.957792 -3.825523,2.318102 -7.360356,1.0668 0,0 -0.494594,-11.100152 4.024135,-14.612761 2.489906,-1.936044 7.099654,1.667228 5.955596,4.628797 -1.142296,2.960158 -2.1717,6.606116 -2.619375,8.917164"
       style="fill:#fddba6;fill-opacity:1;fill-rule:nonzero;stroke:none;stroke-width:0.0352777"
       id="path732" />
    <path
       d="m 89.870665,91.498342 c -1.393471,3.288242 -6.292144,5.661025 -6.292144,5.661025 l 0.0053,0.289631 c 4.53531,0.0053 8.1153,-5.406318 8.1153,-5.406318 l -1.828456,-0.544338"
       style="fill:#f8a38f;fill-opacity:1;fill-rule:nonzero;stroke:none;stroke-width:0.0352777"
       id="path734" />
    <path
       d="m 87.760702,88.187171 c 0.02222,0.417336 -0.214841,1.459088 -0.807508,1.306336 -0.591256,-0.154517 -0.3556,-1.86302 -0.3556,-1.86302 l 1.163108,0.556684"
       style="fill:#593c2e;fill-opacity:1;fill-rule:nonzero;stroke:none;stroke-width:0.0352777"
       id="path736" />
    <path
       d="m 84.810421,87.531004 c -0.158398,0.367947 -0.428625,1.400176 -0.121356,1.484136 0.308681,0.08432 0.817387,-1.550106 0.817387,-1.550106 l -0.696031,0.06597"
       style="fill:#593c2e;fill-opacity:1;fill-rule:nonzero;stroke:none;stroke-width:0.0352777"
       id="path738" />
    <path
       d="m 89.249071,92.277275 c 0.53199,-3.46992 1.041752,-9.383182 4.303535,-8.126588 3.261784,1.255536 -0.526343,6.831188 -0.526343,6.831188 l -2.70369,1.372307 -1.073502,-0.07691"
       style="fill:#983e31;fill-opacity:1;fill-rule:nonzero;stroke:none;stroke-width:0.0352777"
       id="path740" />
    <path
       d="m 91.680063,93.429096 c 1.164166,-0.296333 2.573866,-2.251781 1.782939,-3.161241 -0.790929,-0.912284 -3.205339,-0.137584 -3.436762,1.580795 -0.232834,1.718382 0.201083,1.948392 1.653823,1.580446"
       style="fill:#f8a38f;fill-opacity:1;fill-rule:nonzero;stroke:none;stroke-width:0.0352777"
       id="path742" />
    <path
       d="m 85.164611,92.498821 c -0.32385,0.111829 -2.284942,0.07197 -2.53859,-0.407812 -0.128058,-0.242359 3.424415,-4.824588 3.424415,-4.824588 0,0 -0.533048,5.111396 -0.885825,5.2324"
       style="fill:#fddba6;fill-opacity:1;fill-rule:nonzero;stroke:none;stroke-width:0.0352777"
       id="path744" />
    <path
       d="m 88.682511,88.295825 c -0.750713,0.110421 -1.981555,-0.268463 -2.343857,-0.483657 -0.395464,-0.235656 -0.0635,-1.31445 0.194382,-1.373717 0.257527,-0.06068 2.185458,0.772936 2.35091,1.019528 0.16651,0.246944 0.110067,0.793751 -0.201435,0.837846"
       style="fill:#983e31;fill-opacity:1;fill-rule:nonzero;stroke:none;stroke-width:0.0352777"
       id="path746" />
    <path
       d="m 84.556773,87.758546 c 0.166865,0.07444 0.753888,0.09631 0.985308,-0.12947 0.337609,-0.329494 0.463198,-1.13418 0.27305,-1.210028 -0.191558,-0.07444 -1.127477,0.297745 -1.334204,0.468489 -0.208139,0.172156 -0.133704,0.778581 0.07585,0.871009"
       style="fill:#983e31;fill-opacity:1;fill-rule:nonzero;stroke:none;stroke-width:0.0352777"
       id="path748" />
    <path
       d="m 86.050436,87.266421 c -0.05891,0.562327 -3.065992,4.669013 -3.032832,4.732161 0.205317,0.38735 1.524,0.487891 2.194984,0.453673 l -0.04798,0.04657 c -0.32385,0.111829 -2.284942,0.07197 -2.53859,-0.407812 -0.128058,-0.242359 3.424415,-4.824588 3.424415,-4.824588"
       style="fill:#f8a38f;fill-opacity:1;fill-rule:nonzero;stroke:none;stroke-width:0.0352777"
       id="path750" />
    <path
       d="m 87.361004,94.003771 0.195792,0.02893 c -1.520119,-1.394534 -3.369381,-0.511178 -3.369381,-0.511178 l 0.390173,0.05927 c 0.55245,-0.168275 1.716968,-0.369358 2.783416,0.422981"
       style="fill:#f07c61;fill-opacity:1;fill-rule:nonzero;stroke:none;stroke-width:0.0352777"
       id="path752" />
    <path
       d="m 83.583813,97.448998 c 3.76061,-1.116189 10.119077,-7.648223 10.641189,-16.444383 0,0 0.871009,-0.304447 1.306336,0.262114 0.435681,0.564797 0.3048,1.262239 0.3048,1.262239 0,0 -0.871009,12.628387 -5.008034,14.805378 -4.13526,2.177344 -7.244291,0.114652 -7.244291,0.114652"
       style="fill:#ecb886;fill-opacity:1;fill-rule:nonzero;stroke:none;stroke-width:0.0352777"
       id="path754" />
    <path
       d="m 95.681621,84.13834 c 0.111831,-0.98813 0.154517,-1.609372 0.154517,-1.609372 0,0 0.130881,-0.697442 -0.3048,-1.262239 -0.435327,-0.566561 -1.306336,-0.262114 -1.306336,-0.262114 -0.06174,1.054453 -0.210608,2.073981 -0.425804,3.057878 0.660048,-0.0314 1.292579,-0.0039 1.882423,0.07585"
       style="fill:#d99f6d;fill-opacity:1;fill-rule:nonzero;stroke:none;stroke-width:0.0352777"
       id="path756" />
    <path
       d="m 86.995879,98.332355 h -0.0013 0.0013 m 0.0042,0 c 0.396875,0 0.821266,-0.03316 1.267883,-0.109009 -0.446617,0.07585 -0.871008,0.109009 -1.267883,0.109009"
       style="fill:#fef6dd;fill-opacity:1;fill-rule:nonzero;stroke:none;stroke-width:0.0352777"
       id="path758" />
    <path
       d="m 88.267996,98.223346 c 0.76341,-0.130881 1.592792,-0.391231 2.470856,-0.842081 -0.878064,0.45085 -1.707446,0.7112 -2.470856,0.842081"
       style="fill:#f1c39a;fill-opacity:1;fill-rule:nonzero;stroke:none;stroke-width:0.0352777"
       id="path760" />
    <path
       d="m 90.755079,97.37315 c 0.0042,-0.0028 0.0099,-0.0056 0.01376,-0.0085 -0.0039,0.0028 -0.0095,0.0056 -0.01376,0.0085 m 0.03739,-0.02082 c 0.01236,-0.0053 0.02469,-0.01236 0.03563,-0.01799 0.0042,-0.0024 0.0071,-0.0039 0.0113,-0.0053 -0.0042,0.0013 -0.0071,0.0028 -0.0113,0.0053 -0.01093,0.0056 -0.02328,0.0127 -0.03563,0.01799 m 0.04974,-0.02469 c 0.0024,-0.0028 0.0053,-0.0042 0.0081,-0.0056 -0.0028,0.0013 -0.0056,0.0028 -0.0081,0.0056"
       style="fill:#f1c39a;fill-opacity:1;fill-rule:nonzero;stroke:none;stroke-width:0.0352777"
       id="path762" />
    <path
       d="m 86.995879,98.332355 h -0.0013 c -2.066925,0 -3.394075,-0.873832 -3.410656,-0.883357 0.448027,0.123825 1.141235,0.348544 2.210506,0.348544 1.434394,0 3.545769,-0.4064 6.633986,-2.0066 -0.464609,0.67804 -0.986719,1.214263 -1.577975,1.531056 -0.0028,0.0013 -0.0056,0.0028 -0.0081,0.0056 -0.0013,0 -0.0013,0 -0.0028,0.0013 -0.0042,0.0013 -0.0071,0.0028 -0.0113,0.0053 -0.01093,0.0056 -0.02328,0.0127 -0.03563,0.01799 -0.0085,0.0056 -0.01516,0.0085 -0.02363,0.01236 -0.0039,0.0028 -0.0095,0.0056 -0.01376,0.0085 -0.0053,0.0028 -0.01093,0.0053 -0.01622,0.0081 -0.878065,0.45085 -1.707446,0.7112 -2.470856,0.842081 -0.446617,0.07585 -0.871009,0.109008 -1.267884,0.109008 -0.0013,0 -0.0028,0 -0.0042,0"
       style="fill:#f7d8a9;fill-opacity:1;fill-rule:nonzero;stroke:none;stroke-width:0.0352777"
       id="path764" />
    <path
       d="m 92.046598,88.969984 c -2.318102,4.600929 -5.963002,7.736064 -8.462785,8.479014 4.849283,0.668161 7.496527,-5.435248 8.462785,-8.479014"
       style="fill:#fdeec2;fill-opacity:1;fill-rule:nonzero;stroke:none;stroke-width:0.0352777"
       id="path766" />
    <path
       d="m 87.827023,96.804121 c 1.321506,-0.842081 3.494617,-3.878087 5.295548,-9.436806 -0.78105,3.734152 -2.327275,8.981723 -5.295548,9.436806"
       style="fill:#f7d8a9;fill-opacity:1;fill-rule:nonzero;stroke:none;stroke-width:0.0352777"
       id="path768" />
    <path
       d="m 88.481427,117.70197 c -0.08255,1.11054 -0.769056,2.05034 -1.73355,2.49414 0.531988,0.72637 1.1811,1.36842 1.947334,1.69651 0,0 2.090208,-0.3489 2.568575,-2.65571 0,0 -1.367015,-0.762 -2.782359,-1.53494"
       style="fill:#f8d8a1;fill-opacity:1;fill-rule:nonzero;stroke:none;stroke-width:0.0352777"
       id="path770" />
    <path
       d="m 73.588913,124.91733 c -0.961673,0.0303 -3.107267,1.67146 -3.269898,0.82974 -0.101952,-0.51824 0.110066,-2.12796 1.265062,-1.99849 0.826559,0.0924 1.544813,0.0593 2.080684,-0.0991 l -0.07585,1.26789"
       style="fill:#fddba6;fill-opacity:1;fill-rule:nonzero;stroke:none;stroke-width:0.0352777"
       id="path772" />
    <path
       d="m 72.228954,124.0174 c 0.340432,1.29398 -1.255535,2.08773 -1.788935,2.22285 -0.587023,0.14746 -1.118658,-0.69885 -0.961673,-1.19486 0.155575,-0.49601 2.618317,-1.52259 2.750608,-1.02799"
       style="fill:#fddba6;fill-opacity:1;fill-rule:nonzero;stroke:none;stroke-width:0.0352777"
       id="path774" />
    <path
       d="m 70.547615,124.39099 c -0.66675,-0.31009 -1.215319,-1.04881 -0.986719,-1.31057 0.257881,-0.29775 0.59831,0.46037 1.291167,0.56374 0.751064,0.1143 1.208616,0.23142 1.120423,0.56056 -0.0882,0.32809 -0.757767,0.49777 -1.424871,0.18627"
       style="fill:#fddba6;fill-opacity:1;fill-rule:nonzero;stroke:none;stroke-width:0.0352777"
       id="path776" />
    <path
       d="m 69.169665,125.26058 c -0.683684,0.17075 -1.043163,0.0949 -1.026584,-0.0995 0.01659,-0.19402 0.4064,-0.26599 1.091496,-0.43532 0.681919,-0.17075 1.547284,-0.56374 1.529292,-0.36936 -0.01622,0.19579 -0.911931,0.73448 -1.594204,0.90417"
       style="fill:#fddba6;fill-opacity:1;fill-rule:nonzero;stroke:none;stroke-width:0.0352777"
       id="path778" />
    <path
       d="m 69.273029,126.07903 c -0.68086,0.31433 -1.336675,0.28645 -1.357489,0.10478 -0.01799,-0.18345 0.639587,-0.32385 1.319037,-0.63959 0.680509,-0.3168 1.131359,-0.48366 1.147586,-0.30163 0.01939,0.18309 -0.428273,0.51929 -1.109134,0.83644"
       style="fill:#fddba6;fill-opacity:1;fill-rule:nonzero;stroke:none;stroke-width:0.0352777"
       id="path780" />
    <path
       d="m 69.931665,126.49919 c -0.683329,0.28963 -1.095375,0.29351 -1.110544,0.10901 -0.0127,-0.18486 0.453319,-0.28787 1.139473,-0.57468 0.685094,-0.28645 1.165929,-0.47801 1.1811,-0.29351 0.01376,0.18345 -0.522465,0.47131 -1.210029,0.75918"
       style="fill:#fddba6;fill-opacity:1;fill-rule:nonzero;stroke:none;stroke-width:0.0352777"
       id="path782" />
    <path
       d="m 64.318971,89.745742 c 0.694621,-0.562327 3.355623,-0.771877 2.871965,-1.429102 -0.294923,-0.403931 -1.582209,-1.343731 -2.29729,-0.558094 -0.511175,0.560917 -1.03787,0.972961 -1.524,1.192036 l 0.949325,0.79516"
       style="fill:#fddba6;fill-opacity:1;fill-rule:nonzero;stroke:none;stroke-width:0.0352777"
       id="path784" />
    <path
       d="m 64.633296,88.326165 c 0.677688,1.063977 2.354792,0.624417 2.822223,0.391583 0.513996,-0.256468 0.286454,-1.139825 -0.173921,-1.374069 -0.460021,-0.235656 -2.906181,0.574675 -2.648302,0.982486"
       style="fill:#fddba6;fill-opacity:1;fill-rule:nonzero;stroke:none;stroke-width:0.0352777"
       id="path786" />
    <path
       d="m 67.649546,87.299582 c 0.59831,-0.300214 0.796573,-0.569031 0.64629,-0.687564 -0.148873,-0.118533 -0.472371,0.0702 -1.070682,0.370769 -0.596548,0.300214 -1.478491,0.563386 -1.328208,0.68192 0.148519,0.119944 1.156052,-0.06456 1.7526,-0.365125"
       style="fill:#fddba6;fill-opacity:1;fill-rule:nonzero;stroke:none;stroke-width:0.0352777"
       id="path788" />
    <path
       d="m 68.155429,87.904596 c 0.699911,-0.203906 1.138061,-0.620184 1.02235,-0.751064 -0.11571,-0.133703 -0.675216,0.170744 -1.372306,0.373591 -0.701675,0.201084 -1.131358,0.363714 -1.015646,0.494595 0.115711,0.133703 0.668161,0.08396 1.365602,-0.117122"
       style="fill:#fddba6;fill-opacity:1;fill-rule:nonzero;stroke:none;stroke-width:0.0352777"
       id="path790" />
    <path
       d="m 67.994211,88.582634 c 0.681918,-0.221896 0.97296,-0.4699 0.851604,-0.60078 -0.119944,-0.12947 -0.519642,0.08396 -1.201561,0.30868 -0.68086,0.223308 -1.153583,0.386998 -1.033639,0.519289 0.121356,0.129823 0.699912,-0.0024 1.383596,-0.227189"
       style="fill:#fddba6;fill-opacity:1;fill-rule:nonzero;stroke:none;stroke-width:0.0352777"
       id="path792" />
    <path
       d="m 62.437961,89.037365 1.26224,-0.673806 1.219551,2.13995 -0.924631,0.952148 -1.55716,-2.418292"
       style="fill:#933e3d;fill-opacity:1;fill-rule:nonzero;stroke:none;stroke-width:0.0352777"
       id="path794" />
    <path
       d="m 39.945591,79.592093 c 0,0 -4.718403,-1.016705 -6.873522,0.650522 l 1.056957,2.603147 6.060299,-2.236611 -0.243734,-1.017058"
       style="fill:#dbac8e;fill-opacity:1;fill-rule:nonzero;stroke:none;stroke-width:0.0352777"
       id="path796" />
    <path
       d="m 38.953544,93.473192 c 1.162756,0.164042 7.883525,6.128104 10.72656,7.213958 2.841625,1.08479 4.455232,-3.351393 3.396898,-4.543429 -6.388806,-7.187848 -6.565193,-11.800064 -9.580386,-13.352992 -2.356202,-1.214261 -4.543072,10.682463 -4.543072,10.682463"
       style="fill:#fdfad8;fill-opacity:1;fill-rule:nonzero;stroke:none;stroke-width:0.0352777"
       id="path798" />
    <path
       d="m 51.431646,94.676165 c -1.617837,1.21426 -4.722635,6.164085 -1.106662,6.555315 3.617383,0.39441 12.595225,-7.27745 14.421202,-9.515121 l -2.220032,-3.701697 c -1.017058,0.908403 -9.476668,5.449005 -11.094508,6.661503"
       style="fill:#fdfad8;fill-opacity:1;fill-rule:nonzero;stroke:none;stroke-width:0.0352777"
       id="path800" />
    <path
       d="m 50.455863,99.01145 c -0.801862,-0.08678 -1.273175,-0.399343 -1.503537,-0.84455 -0.566209,1.474613 -0.475192,2.86491 1.372658,3.06458 3.617383,0.39441 12.595225,-7.27745 14.421202,-9.515121 l -0.82691,-1.378302 c -2.807055,2.86526 -10.20304,9.027583 -13.463413,8.673393"
       style="fill:#edd6ad;fill-opacity:1;fill-rule:nonzero;stroke:none;stroke-width:0.0352777"
       id="path802" />
    <path
       d="M 51.248202,98.066359 C 48.231601,96.387842 46.458186,84.88129 43.234855,83.443721 c -0.763411,2.674761 -4.281311,10.029471 -4.281311,10.029471 1.162756,0.164042 7.847894,6.52639 10.689167,7.612238 1.833033,0.70027 3.598333,-1.179334 4.338108,-2.924173 -0.866775,0.358423 -1.823156,0.410633 -2.732617,-0.0949"
       style="fill:#edd6ad;fill-opacity:1;fill-rule:nonzero;stroke:none;stroke-width:0.0352777"
       id="path804" />
    <path
       d="m 32.665281,135.55288 18.436871,0.47695 c 0,0 -3.917598,-28.66037 -3.673826,-32.19908 0.135112,-1.95439 0.800803,-8.780993 -0.202497,-14.233879 -0.814562,-4.416778 -2.914649,-7.606947 -5.753451,-9.136592 -6.344426,-3.415947 -8.807097,55.092601 -8.807097,55.092601"
       style="fill:#fdfad8;fill-opacity:1;fill-rule:nonzero;stroke:none;stroke-width:0.0352777"
       id="path806" />
    <path
       d="m 31.951576,135.80229 18.180437,0.12136 c 0,0 -3.661479,-28.30478 -3.417359,-31.84349 0.134763,-1.95545 0.800455,-8.782401 -0.202845,-14.233876 -0.8128,-4.416777 -2.912887,-7.608358 -5.75169,-9.136591 -6.344743,-3.415947 -8.808543,55.092597 -8.808543,55.092597"
       style="fill:#dbac8e;fill-opacity:1;fill-rule:nonzero;stroke:none;stroke-width:0.0352777"
       id="path808" />
    <path
       d="m 30.836869,109.69003 c -0.325332,5.53156 0.213324,20.6883 -0.0332,23.75888 -0.245145,3.06881 -1.070751,4.89056 -1.310499,7.96078 -0.239924,3.07164 1.37788,15.63794 1.37788,15.63794 h 1.120493 c 0,0 2.484613,-15.9438 3.84623,-21.49475 0.593795,-2.42253 2.072569,-9.31969 2.718893,-12.35393 0.0441,-0.20955 0.2177,-0.36653 0.429649,-0.38876 0.212372,-0.0233 0.414937,0.0924 0.503131,0.28681 1.366979,3.01378 4.558559,10.13954 5.113831,12.26044 0.708379,2.7118 0.05645,4.433 0.810331,7.13387 0.753885,2.70122 6.976885,15.15851 6.976885,15.15851 l 1.291521,-0.17075 c 0,0 -2.5908,-13.3297 -3.962048,-21.92055 -1.372658,-8.59084 -3.877733,-26.27771 -3.877733,-26.27771 0,0 -14.652589,-5.57989 -15.005367,0.40922"
       style="fill:#372a30;fill-opacity:1;fill-rule:nonzero;stroke:none;stroke-width:0.0352777"
       id="path810" />
    <path
       d="m 32.162572,107.52786 c -0.282504,0.15698 -0.526697,0.34995 -0.726369,0.58032 0.23562,-0.19862 0.478014,-0.39159 0.726369,-0.58032"
       style="fill:#30252a;fill-opacity:1;fill-rule:nonzero;stroke:none;stroke-width:0.0352777"
       id="path812" />
    <path
       d="m 29.504039,141.26788 c 0.110384,-1.29822 0.325226,-2.37455 0.551356,-3.42442 -0.22613,1.04987 -0.440972,2.1262 -0.551356,3.42442"
       style="fill:#959094;fill-opacity:1;fill-rule:nonzero;stroke:none;stroke-width:0.0352777"
       id="path814" />
    <path
       d="m 35.771489,135.82875 c 0.02219,-0.0953 0.0441,-0.18627 0.06629,-0.27587 -0.02219,0.0896 -0.0441,0.18062 -0.06629,0.27587 m 0.19431,-0.81033 c 0.0029,-0.01 0.0043,-0.018 0.0068,-0.0275 -0.0025,0.01 -0.0039,0.0177 -0.0068,0.0275"
       style="fill:#83665c;fill-opacity:1;fill-rule:nonzero;stroke:none;stroke-width:0.0352777"
       id="path816" />
    <path
       d="m 31.991546,157.04763 h -1.120493 c 0,0 -1.401198,-10.88496 -1.402715,-14.86888 0,-0.29633 0.0081,-0.55563 0.02484,-0.76906 0.0041,-0.0483 0.007,-0.0953 0.01087,-0.14181 0.110384,-1.29822 0.325226,-2.37455 0.551356,-3.42442 l 3.952205,0.39406 c 0,0 0.212372,-1.48026 0.523522,-3.9744 0.467431,0.25929 0.948231,0.50306 1.44145,0.72778 -0.0025,0.01 -0.0039,0.0177 -0.0068,0.0275 -0.04547,0.19544 -0.08957,0.37606 -0.128023,0.53446 -0.02219,0.0896 -0.0441,0.18062 -0.06629,0.27587 -1.373752,5.78062 -3.779943,21.21888 -3.779943,21.21888"
       style="fill:#33272d;fill-opacity:1;fill-rule:nonzero;stroke:none;stroke-width:0.0352777"
       id="path818" />
    <path
       d="m 52.390496,157.64982 c 0,0 -0.500237,-1.00189 -1.23472,-2.49696 0.729191,1.48554 1.226608,2.48179 1.23472,2.49696 m -3.137604,-6.42303 c -1.67005,-3.49038 -3.457575,-7.36706 -3.840691,-8.73548 -0.593726,-2.13325 -0.313974,-3.65725 -0.51929,-5.53826 0.0011,0 0.0011,0 0.0025,0 0.203906,1.88242 -0.07691,3.40501 0.518232,5.53826 0.381706,1.36842 2.169231,5.2451 3.839281,8.73548"
       style="fill:#959094;fill-opacity:1;fill-rule:nonzero;stroke:none;stroke-width:0.0352777"
       id="path820" />
    <path
       d="m 50.428346,153.66167 c -0.370769,-0.762 -0.770467,-1.5875 -1.175454,-2.43488 0.4064,0.84738 0.804685,1.67288 1.175454,2.43382 v 0.001"
       style="fill:#6f5345;fill-opacity:1;fill-rule:nonzero;stroke:none;stroke-width:0.0352777"
       id="path822" />
    <path
       d="m 51.155776,155.15286 c -0.222957,-0.45614 -0.46849,-0.95779 -0.72743,-1.49119 v -10e-4 c 0.25894,0.53304 0.504473,1.0361 0.72743,1.49225"
       style="fill:#452c2d;fill-opacity:1;fill-rule:nonzero;stroke:none;stroke-width:0.0352777"
       id="path824" />
    <path
       d="m 51.314526,144.82317 c -0.215197,-1.18674 -0.428625,-2.39113 -0.636765,-3.57752 v -0.001 c 0.20814,1.1878 0.421568,2.39219 0.636765,3.57893"
       style="fill:#959094;fill-opacity:1;fill-rule:nonzero;stroke:none;stroke-width:0.0352777"
       id="path826" />
    <path
       d="m 50.677761,141.24565 c -0.289277,-1.651 -0.56515,-3.26989 -0.810332,-4.77343 0.245182,1.50212 0.521055,3.12243 0.810332,4.77202 v 0.001"
       style="fill:#452c2d;fill-opacity:1;fill-rule:nonzero;stroke:none;stroke-width:0.0352777"
       id="path828" />
    <path
       d="m 52.390496,157.64982 c -0.0081,-0.0152 -0.505529,-1.01142 -1.23472,-2.49696 -0.222957,-0.45614 -0.46849,-0.95921 -0.72743,-1.49225 -0.370769,-0.76094 -0.769054,-1.58644 -1.175454,-2.43382 -1.67005,-3.49038 -3.457575,-7.36706 -3.839281,-8.73548 -0.595136,-2.13325 -0.314325,-3.65584 -0.518231,-5.53826 0.09525,0 0.188736,0.006 0.285397,0.006 1.615017,0 3.184525,-0.1711 4.686652,-0.48648 0.245182,1.50354 0.521055,3.12244 0.810332,4.77344 0.20814,1.18639 0.421568,2.39077 0.636765,3.57751 1.187801,6.58707 2.367491,12.65591 2.367491,12.65591 l -1.291521,0.17074"
       style="fill:#33272d;fill-opacity:1;fill-rule:nonzero;stroke:none;stroke-width:0.0352777"
       id="path830" />
    <path
       d="m 36.100983,121.45693 c 1.393049,0.11572 4.782961,0.52247 6.351411,-0.46425 0,0 -1.510594,2.09056 -3.01946,2.09056 -1.510171,0 -3.331951,-1.62631 -3.331951,-1.62631"
       style="fill:#2e2227;fill-opacity:1;fill-rule:nonzero;stroke:none;stroke-width:0.0352777"
       id="path832" />
    <path
       d="m 31.043597,140.18062 2.089114,-0.52247 c 0,0 2.00339,-21.24922 2.700796,-22.81625 0.695784,-1.5681 5.137221,-1.74167 6.705671,-1.13277 1.566686,0.61065 5.612693,21.27003 5.612693,21.27003 l 1.912763,0.68897 c -0.121357,-0.72601 -0.237067,-1.43298 -0.344665,-2.10961 -1.372658,-8.59084 -3.877733,-26.27771 -3.877733,-26.27771 0,0 -14.652589,-5.57989 -15.005367,0.40922 -0.325332,5.53156 0.213324,20.6883 -0.0332,23.75888 -0.245145,3.06881 -1.070751,4.89056 -1.310499,7.96078 -0.239924,3.07164 1.37788,15.63794 1.37788,15.63794 h 0.250825 l -0.07828,-16.86701"
       style="fill:#2e2227;fill-opacity:1;fill-rule:nonzero;stroke:none;stroke-width:0.0352777"
       id="path834" />
    <path
       d="m 45.498984,135.1299 c -0.283634,-2.22144 -3.542948,-13.35582 -6.241063,-13.43978 -1.857728,-0.0582 -1.160145,3.66007 -0.702663,1.50883 0.04551,-0.20955 0.219111,-0.36512 0.43106,-0.38876 0.212372,-0.0233 0.414937,0.0924 0.503131,0.28681 1.366979,3.01378 4.558559,10.14095 5.113831,12.26044 0.708379,2.7118 0.05645,4.433 0.808921,7.13387 0.755295,2.70122 6.977237,15.15851 6.977237,15.15851 l 0.720373,-0.0949 C 48.784402,148.91433 45.909617,138.3243 45.498984,135.1299"
       style="fill:#2e2227;fill-opacity:1;fill-rule:nonzero;stroke:none;stroke-width:0.0352777"
       id="path836" />
    <path
       d="m 46.248636,110.82703 c 0.04974,-3.9758 -0.829382,-12.865446 0.162631,-17.732721 0.814562,-3.985329 -1.423459,-8.539691 -3.293534,-10.492316 -1.090083,-1.138414 -4.753998,-3.112911 -8.337197,-2.196747 -3.497439,0.894291 -6.329186,3.213805 -7.314459,4.478514 -0.983933,1.265061 0.396875,7.735005 1.894805,12.714111 1.253984,4.167009 0.945303,7.372349 1.108075,13.308889 0.04547,1.65382 10.736015,3.90525 15.779679,-0.0797"
       style="fill:#a168bf;fill-opacity:1;fill-rule:nonzero;stroke:none;stroke-width:0.0352777"
       id="path838" />
    <path
       d="m 44.367625,110.71662 c 0,0 -2.046464,2.20627 -6.7056,1.50883 -0.617361,-0.0921 0.304835,-22.946785 -3.047929,-27.388257 l -2.046535,1.219553 1.784703,26.779364 c 0,0 6.096352,1.61078 10.551583,-1.15359 l -0.536222,-0.9659"
       style="fill:#7b1fa2;fill-opacity:1;fill-rule:nonzero;stroke:none;stroke-width:0.0352777"
       id="path840" />
    <path
       d="m 44.934186,96.20193 c -0.523875,0 -4.437239,0.360891 -4.050242,0.217662 4.137025,-1.524352 4.659135,-4.659135 4.659135,-4.659135 l -0.608893,4.441473"
       style="fill:#7b1fa2;fill-opacity:1;fill-rule:nonzero;stroke:none;stroke-width:0.0352777"
       id="path842" />
    <path
       d="m 35.199601,96.721217 c 0.597958,-0.04692 5.075449,-0.111477 4.634477,-0.188735 -4.714522,-0.826911 -5.26408,-3.23709 -5.26408,-3.23709 l 0.629603,3.425825"
       style="fill:#7b1fa2;fill-opacity:1;fill-rule:nonzero;stroke:none;stroke-width:0.0352777"
       id="path844" />
    <path
       d="m 43.117733,82.601993 c -0.833614,-0.869597 -3.173518,-2.225675 -5.829018,-2.407356 4.565368,1.803753 8.333036,7.168445 7.369599,12.001147 -1.033287,5.186891 -0.210609,14.290326 -0.290689,18.520836 -0.223309,0.18732 -1.688042,1.7018 -1.9304,1.86584 1.420636,-0.34996 2.743552,-0.91229 3.811411,-1.75543 0.04974,-3.9758 -0.829382,-12.865446 0.162631,-17.732721 0.814562,-3.985329 -1.423459,-8.539691 -3.293534,-10.492316"
       style="fill:#7b1fa2;fill-opacity:1;fill-rule:nonzero;stroke:none;stroke-width:0.0352777"
       id="path846" />
    <path
       d="m 33.612101,80.831049 c 0.4064,0.986719 2.452934,3.933119 5.123427,3.817408 2.67088,-0.116064 3.599744,-2.090561 3.599744,-2.090561 0,0 -1.396294,-2.286353 -3.77324,-2.554817 -3.552578,-0.399697 -4.949931,0.82797 -4.949931,0.82797"
       style="fill:#de8a8e;fill-opacity:1;fill-rule:nonzero;stroke:none;stroke-width:0.0352777"
       id="path848" />
    <path
       d="m 27.907049,137.62686 6.100551,0.61066 c 0,0 6.872464,-47.827497 -0.325191,-58.44258 0,0 -4.067986,0.976842 -5.898162,4.270375 -1.829893,3.294944 0.244052,14.152385 0.975783,16.715665 0.733143,2.56188 -0.12139,31.11183 -0.852981,36.84588"
       style="fill:#edd6ad;fill-opacity:1;fill-rule:nonzero;stroke:none;stroke-width:0.0352777"
       id="path850" />
    <path
       d="m 33.682409,79.79494 c 0,0 -0.06353,0.01517 -0.176388,0.04798 0.05923,0.180622 -3.479553,0.335139 -5.298441,3.565172 7.393164,9.949392 2.801409,48.337258 1.92652,54.442078 l 3.8735,0.38735 c 0,0 6.872464,-47.827495 -0.325191,-58.442578"
       style="fill:#fdfad8;fill-opacity:1;fill-rule:nonzero;stroke:none;stroke-width:0.0352777"
       id="path852" />
    <path
       d="m 25.440357,101.28263 c -0.387386,-2.286348 4.756855,-5.389382 6.967361,-10.479965 1.947015,-4.485569 -0.741539,-10.406944 -4.200138,-7.394575 -0.866775,0.755297 -6.430044,10.127192 -7.468975,11.400367 -1.041788,1.273527 -1.605527,5.411613 -0.93031,6.967363 0.676627,1.55469 5.863554,0.86818 5.632062,-0.49319"
       style="fill:#fdfad8;fill-opacity:1;fill-rule:nonzero;stroke:none;stroke-width:0.0352777"
       id="path854" />
    <path
       d="m 20.845814,102.5985 c -0.827899,-1.60938 -0.196921,-6.192666 0.822713,-7.621768 0.867057,-1.215319 5.041124,-8.961261 6.806106,-11.782425 -0.0882,0.06632 -0.177482,0.135114 -0.267053,0.213783 -0.866775,0.755297 -6.737349,10.182225 -7.777656,11.455752 -1.040412,1.273175 -1.912831,5.516028 -1.236239,7.071778 0.21209,0.4879 0.944104,0.77859 1.839842,0.90559 -0.07595,-0.0744 -0.140829,-0.15452 -0.187713,-0.24271"
       style="fill:#edd6ad;fill-opacity:1;fill-rule:nonzero;stroke:none;stroke-width:0.0352777"
       id="path856" />
    <path
       d="m 34.820788,81.178535 1.030781,-8.593667 4.9276,4.637264 0.669925,5.175955 c 0,0 -3.490771,3.429706 -6.628306,-1.219552"
       style="fill:#fddba6;fill-opacity:1;fill-rule:nonzero;stroke:none;stroke-width:0.0352777"
       id="path858" />
    <path
       d="m 28.875812,113.77732 c 0.65331,0.63253 0.982381,3.15983 1.700354,2.66382 0.440972,-0.3048 1.447059,-1.58362 0.543207,-2.22285 -0.645195,-0.45756 -1.12462,-0.93698 -1.387828,-1.39065 l -0.855733,0.94968"
       style="fill:#fddba6;fill-opacity:1;fill-rule:nonzero;stroke:none;stroke-width:0.0352777"
       id="path860" />
    <path
       d="m 30.475554,114.00062 c -1.166919,0.70415 -0.615986,2.28036 -0.338984,2.71463 0.306211,0.47554 1.285839,0.21096 1.530985,-0.23989 0.246662,-0.45191 -0.745385,-2.74214 -1.192001,-2.47474"
       style="fill:#fddba6;fill-opacity:1;fill-rule:nonzero;stroke:none;stroke-width:0.0352777"
       id="path862" />
    <path
       d="m 31.386461,115.33166 c 0.689011,0.20108 1.60401,0.0247 1.630186,-0.30728 0.03323,-0.375 -0.748241,-0.0511 -1.307747,-0.41768 -0.608965,-0.39406 -1.014236,-0.60078 -1.187873,-0.31115 -0.173496,0.28927 0.175013,0.83502 0.865434,1.03611"
       style="fill:#fddba6;fill-opacity:1;fill-rule:nonzero;stroke:none;stroke-width:0.0352777"
       id="path864" />
    <path
       d="m 31.729714,116.82285 c 0.358422,0.55527 0.665727,0.72883 0.790998,0.57996 0.129399,-0.14887 -0.09356,-0.44626 -0.452014,-1.00189 -0.357046,-0.55245 -0.682237,-1.38077 -0.808884,-1.23049 -0.129399,0.14888 0.112854,1.09961 0.4699,1.65242"
       style="fill:#fddba6;fill-opacity:1;fill-rule:nonzero;stroke:none;stroke-width:0.0352777"
       id="path866" />
    <path
       d="m 31.072524,117.33931 c 0.25079,0.65476 0.731591,1.05163 0.8763,0.93451 0.143193,-0.11853 -0.216358,-0.63535 -0.467148,-1.28975 -0.250825,-0.65758 -0.447993,-1.05975 -0.589809,-0.94263 -0.14471,0.11854 -0.07013,0.64206 0.180657,1.29787"
       style="fill:#fddba6;fill-opacity:1;fill-rule:nonzero;stroke:none;stroke-width:0.0352777"
       id="path868" />
    <path
       d="m 30.307702,117.22113 c 0.274108,0.63924 0.559506,0.90241 0.702663,0.78105 0.140441,-0.12241 -0.112854,-0.49177 -0.388726,-1.13136 -0.274108,-0.63782 -0.475156,-1.07879 -0.618737,-0.95744 -0.140441,0.12242 0.02921,0.66675 0.3048,1.30775"
       style="fill:#fddba6;fill-opacity:1;fill-rule:nonzero;stroke:none;stroke-width:0.0352777"
       id="path870" />
    <path
       d="m 30.184935,111.95839 1.080523,1.41112 -2.377404,1.92757 -1.353221,-0.94227 2.650102,-2.39642"
       style="fill:#933e3d;fill-opacity:1;fill-rule:nonzero;stroke:none;stroke-width:0.0352777"
       id="path872" />
    <path
       d="m 25.120775,100.00522 c -0.992328,-1.761061 -5.268383,-3.810347 -6.127044,-0.275513 -0.859755,3.534483 6.35,13.420373 8.329012,15.522223 l 3.749781,-3.43147 c -0.766339,-1.12713 -4.959703,-10.05276 -5.951749,-11.81524"
       style="fill:#fdfad8;fill-opacity:1;fill-rule:nonzero;stroke:none;stroke-width:0.0352777"
       id="path874" />
    <path
       d="m 52.243036,157.99307 h 4.551891 c 0,0 -2.993318,-1.35184 -3.803298,-1.41675 -0.810328,-0.0635 -0.748593,1.41675 -0.748593,1.41675"
       style="fill:#ebd3e2;fill-opacity:1;fill-rule:nonzero;stroke:none;stroke-width:0.0352777"
       id="path876" />
    <path
       d="m 29.254625,157.99307 h 3.518253 c 0,0 -0.733108,-1.52435 -1.544779,-1.5875 -0.808884,-0.0649 -1.973474,1.5875 -1.973474,1.5875"
       style="fill:#ebd3e2;fill-opacity:1;fill-rule:nonzero;stroke:none;stroke-width:0.0352777"
       id="path878" />
    <path
       d="m 20.679373,97.827882 -0.12954,-0.493536 c -0.751028,0.182034 -1.380807,0.963436 -1.655162,2.08915 -0.859755,3.536244 6.44906,13.726584 8.428072,15.828434 l 1.061226,-0.97296 c -2.511072,-3.19582 -8.495594,-13.19742 -7.704596,-16.451088"
       style="fill:#edd6ad;fill-opacity:1;fill-rule:nonzero;stroke:none;stroke-width:0.0352777"
       id="path880" />
    <path
       d="m 26.630981,102.96503 c -0.493501,-1.30633 -1.393084,-2.32198 0.173638,-4.586109 0,0 -1.59565,1.044575 -1.59565,2.002369 0,0.9592 1.422012,2.58374 1.422012,2.58374"
       style="fill:#edd6ad;fill-opacity:1;fill-rule:nonzero;stroke:none;stroke-width:0.0352777"
       id="path882" />
    <path
       d="m 41.472378,80.460279 c -0.09349,-0.04939 -0.185914,-0.08678 -0.278342,-0.110067 0.09913,0.0194 0.310092,0.0081 0.278342,0.110067"
       style="fill:#dd9f99;fill-opacity:1;fill-rule:nonzero;stroke:none;stroke-width:0.0352777"
       id="path884" />
    <path
       d="m 42.295055,81.758501 c -0.32773,-0.27693 -0.669572,-0.527755 -1.025172,-0.752475 l -0.08537,-0.658636 c 0.0028,0 0.0053,0.0014 0.0095,0.0028 0.09243,0.02328 0.184855,0.06068 0.278342,0.110067 -0.119945,0.401108 0.317147,0.836789 0.822677,1.298222"
       style="fill:#dc9c7e;fill-opacity:1;fill-rule:nonzero;stroke:none;stroke-width:0.0352777"
       id="path886" />
    <path
       d="m 43.350566,82.856699 c -0.07832,-0.08961 -0.155575,-0.174978 -0.232833,-0.254706 -0.0028,-0.0028 -0.0039,-0.0042 -0.0053,-0.0056 0,-0.0014 -0.0014,-0.0014 -0.0014,-0.0014 -0.0014,-0.0014 -0.0028,-0.0028 -0.0042,-0.0042 l -0.0014,-0.0011 c -0.0014,-0.0014 -0.0028,-0.0028 -0.0042,-0.0042 0,0 -0.0014,-0.0014 -0.0014,-0.0028 -0.0011,0 -0.0025,-0.0014 -0.0025,-0.0028 -0.0014,0 -0.0014,-0.0014 -0.0028,-0.0028 -0.0014,0 -0.0014,-0.0011 -0.0028,-0.0025 -0.0014,0 -0.0028,-0.0014 -0.0028,-0.0028 -0.0014,0 -0.0014,-0.0014 -0.0028,-0.0014 0,-0.0014 -0.0011,-0.0028 -0.0025,-0.0042 -0.0014,0 -0.0014,-0.0014 -0.0014,-0.0014 -0.0014,-0.0014 -0.0028,-0.0028 -0.0042,-0.0039 -0.0014,0 -0.0014,0 -0.0014,-0.0014 -0.0014,-0.0014 -0.0028,-0.0028 -0.0042,-0.0042 0,0 0,0 -0.0014,0 -0.362303,-0.363714 -0.975431,-0.804686 -1.756834,-1.208617 l -0.0441,-0.34043 c 0.3556,0.224719 0.697442,0.475544 1.025172,0.752475 0.383117,0.349955 0.806097,0.714022 1.056922,1.090083 -0.0014,0.0028 -0.0014,0.0056 -0.0014,0.0081"
       style="fill:#bf6955;fill-opacity:1;fill-rule:nonzero;stroke:none;stroke-width:0.0352777"
       id="path888" />
    <path
       d="m 35.028892,79.442163 0.650134,-5.42537 -0.650134,5.42537"
       style="fill:#dd9f99;fill-opacity:1;fill-rule:nonzero;stroke:none;stroke-width:0.0352777"
       id="path890" />
    <path
       d="m 34.120489,80.519546 c -0.128023,-0.236714 -0.261691,-0.458611 -0.400756,-0.668161 0.399345,-0.188736 0.844621,-0.319617 1.309159,-0.407811 v -0.0014 l -0.0925,0.768703 c -0.34036,0.09948 -0.610587,0.20955 -0.815904,0.30868"
       style="fill:#bf6955;fill-opacity:1;fill-rule:nonzero;stroke:none;stroke-width:0.0352777"
       id="path892" />
    <path
       d="m 33.361311,79.885957 c 0.055,-0.01658 0.103364,-0.03034 0.14471,-0.04304 -0.04135,0.0127 -0.08971,0.02646 -0.14471,0.04304 m 0.168275,-0.04974 c 0.02893,-0.0085 0.05359,-0.01517 0.0744,-0.02081 -0.007,0.0014 -0.01408,0.0028 -0.02082,0.0056 -0.01517,0.0042 -0.03305,0.0095 -0.05359,0.01517"
       style="fill:#dd9f99;fill-opacity:1;fill-rule:nonzero;stroke:none;stroke-width:0.0352777"
       id="path894" />
    <path
       d="m 37.726936,87.956807 c -0.538692,0 -1.050219,-0.08396 -1.535289,-0.236714 -0.268428,-1.775178 -0.61595,-3.376436 -1.055546,-4.751564 0.883461,0.891469 2.078214,1.682397 3.446744,1.682397 0.0507,0 0.101812,0 0.152683,-0.0025 1.513063,-0.06632 2.468033,-0.729192 3.0099,-1.290109 0.446263,0.493537 0.855486,1.021292 1.219552,1.575153 -0.534811,1.419578 -1.779058,2.68852 -4.693708,2.994378 -0.184538,0.02081 -0.366571,0.02893 -0.544336,0.02893 m 5.385505,-5.360467 c 0,-0.0014 -0.0014,-0.0014 -0.0014,-0.0014 0,0 0.0014,0 0.0014,0.0014 m -0.0056,-0.0056 c 0,-0.0011 -0.0014,-0.0011 -0.0014,-0.0011 l 0.0014,0.0011 m -0.0056,-0.0053 c 0,0 -0.0014,-0.0014 -0.0014,-0.0028 0,0.0014 0.0014,0.0028 0.0014,0.0028 m -0.0039,-0.0056 c -0.0014,0 -0.0014,-0.0014 -0.0028,-0.0028 0.0014,0.0014 0.0014,0.0028 0.0028,0.0028 m -0.0056,-0.0053 c -0.0014,0 -0.0028,-0.0014 -0.0028,-0.0028 0,0.0014 0.0014,0.0028 0.0028,0.0028 m -0.0056,-0.0042 c -0.0011,-0.0014 -0.0011,-0.0028 -0.0025,-0.0042 0.0014,0.0014 0.0025,0.0028 0.0025,0.0042 m -0.0039,-0.0056 c -0.0014,-0.0014 -0.0028,-0.0028 -0.0042,-0.0039 0.0014,0.0011 0.0028,0.0025 0.0042,0.0039 m -0.0056,-0.0053 c -0.0014,-0.0014 -0.0028,-0.0028 -0.0042,-0.0042 0.0014,0.0014 0.0028,0.0028 0.0042,0.0042 m -0.0056,-0.0042 c -0.362303,-0.363714 -0.97543,-0.803275 -1.756833,-1.205794 v -0.0028 c 0.781403,0.40393 1.39453,0.844902 1.756833,1.208616"
       style="fill:#430e60;fill-opacity:1;fill-rule:nonzero;stroke:none;stroke-width:0.0352777"
       id="path896" />
    <path
       d="m 42.96498,84.933501 c -0.364066,-0.553861 -0.773289,-1.081616 -1.219552,-1.575153 0.415925,-0.429683 0.589844,-0.800452 0.589844,-0.800452 0,0 -0.358422,-0.585611 -1.019881,-1.200503 l -0.0014,-0.0081 c 0.781403,0.40252 1.394531,0.842081 1.756833,1.205795 0.0014,0 0.0014,0 0.0014,0 0.0014,0.0014 0.0028,0.0028 0.0042,0.0042 0,0.0014 0,0.0014 0.0014,0.0014 0.0014,0.0011 0.0028,0.0025 0.0042,0.0039 0,0 0,0.0014 0.0014,0.0014 0.0014,0.0014 0.0014,0.0028 0.0025,0.0042 0.0014,0 0.0014,0.0014 0.0028,0.0014 0,0.0014 0.0014,0.0028 0.0028,0.0028 0.0014,0.0014 0.0014,0.0025 0.0028,0.0025 0.0014,0.0014 0.0014,0.0028 0.0028,0.0028 0,0.0014 0.0014,0.0028 0.0025,0.0028 0,0.0014 0.0014,0.0028 0.0014,0.0028 0.0014,0.0014 0.0028,0.0028 0.0042,0.0042 0,0 0.0014,0 0.0014,0.0011 0.0014,0.0014 0.0028,0.0028 0.0042,0.0042 0,0 0.0014,0 0.0014,0.0014 0.0014,0.0014 0.0025,0.0028 0.0053,0.0056 0.07726,0.07973 0.154517,0.1651 0.232833,0.254705 -0.03422,0.665692 -0.126647,1.389239 -0.385586,2.076803"
       style="fill:#430e60;fill-opacity:1;fill-rule:nonzero;stroke:none;stroke-width:0.0352777"
       id="path898" />
    <path
       d="m 38.582845,84.650926 c -1.36853,0 -2.563283,-0.790928 -3.446744,-1.682397 -0.294922,-0.923219 -0.632531,-1.745897 -1.015612,-2.448983 0.205317,-0.09913 0.475544,-0.209197 0.815904,-0.308681 l -0.115605,0.96767 c 1.267531,1.878188 2.593199,2.437694 3.722088,2.437694 1.665852,0 2.906218,-1.218142 2.906218,-1.218142 l -0.133703,-1.040694 c 0.661459,0.614892 1.019881,1.200503 1.019881,1.200503 0,0 -0.173919,0.370769 -0.589844,0.800452 -0.541867,0.560917 -1.496837,1.223787 -3.0099,1.290109 -0.05087,0.0025 -0.101988,0.0025 -0.152683,0.0025"
       style="fill:#c05355;fill-opacity:1;fill-rule:nonzero;stroke:none;stroke-width:0.0352777"
       id="path900" />
    <path
       d="m 32.941153,80.026362 c 0.162595,-0.05785 0.304412,-0.104775 0.420158,-0.140405 0.055,-0.01658 0.103364,-0.03034 0.14471,-0.04304 0.01513,0.04551 -0.202601,0.08961 -0.564868,0.183444 m 0.64202,-0.205316 c 0.0067,-0.0028 0.01379,-0.0042 0.02081,-0.0056 0.0025,0 0.0038,-0.0014 0.0054,-0.0014 -0.0081,0.0014 -0.01665,0.0042 -0.02618,0.0071"
       style="fill:#cc8466;fill-opacity:1;fill-rule:nonzero;stroke:none;stroke-width:0.0352777"
       id="path902" />
    <path
       d="m 36.191647,87.720093 c -1.344824,-0.424745 -2.49562,-1.372658 -3.475249,-2.490258 -0.363678,-1.158875 -0.997585,-2.065867 -1.798496,-2.447573 -0.322298,-0.501297 -0.615844,-0.9906 -0.884696,-1.438627 1.098585,-0.810331 2.243737,-1.146528 2.906571,-1.315861 0,-0.0014 0,-0.0014 0.0014,-0.0014 0.362267,-0.09384 0.580002,-0.137936 0.564868,-0.183444 l 0.0028,-0.0011 c 0.007,-0.0014 0.01376,-0.0042 0.02081,-0.0056 0.02053,-0.0056 0.03842,-0.01093 0.05359,-0.01517 0.0095,-0.0028 0.01806,-0.0056 0.02618,-0.0071 0.0095,-0.0025 0.0193,-0.0053 0.02607,-0.0067 l 0.007,-0.0014 0.03997,-0.01093 0.03595,0.05785 0.0014,-0.0014 c 1.168435,1.756833 1.962185,4.50215 2.471913,7.868708"
       style="fill:#dc9c7e;fill-opacity:1;fill-rule:nonzero;stroke:none;stroke-width:0.0352777"
       id="path904" />
    <path
       d="m 32.716398,85.229835 c -0.678003,-0.774348 -1.274551,-1.628775 -1.798496,-2.447573 0.800911,0.381706 1.434818,1.288698 1.798496,2.447573"
       style="fill:#dc9c7e;fill-opacity:1;fill-rule:nonzero;stroke:none;stroke-width:0.0352777"
       id="path906" />
    <path
       d="m 38.542876,83.616229 c -1.128889,0 -2.454557,-0.559506 -3.722088,-2.437694 l 0.115605,-0.96767 0.0925,-0.768702 0.650134,-5.42537 0.118533,-0.98813 5.075449,4.912783 v 0.0014 l 0.311503,2.404534 0.08537,0.658636 0.0441,0.34043 v 0.0028 l 0.0014,0.0081 0.133703,1.040694 c 0,0 -1.240367,1.218142 -2.906219,1.218142"
       style="fill:#dc8661;fill-opacity:1;fill-rule:nonzero;stroke:none;stroke-width:0.0352777"
       id="path908" />
    <path
       d="m 47.184554,62.551515 c -3.90419,-1.911349 -9.191659,-0.406752 -10.839801,1.226256 l 8.561916,3.328105 c -0.528108,-1.586088 2.277885,-4.554361 2.277885,-4.554361"
       style="fill:#e06b36;fill-opacity:1;fill-rule:nonzero;stroke:none;stroke-width:0.0352777"
       id="path910" />
    <path
       d="m 34.309543,72.263841 c 0,0 -0.534811,0.387349 -0.785636,0.210961 -0.25079,-0.176389 -0.206693,-0.749653 0.103363,-1.189215 0.310057,-0.439561 0.682273,0.978254 0.682273,0.978254"
       style="fill:#543836;fill-opacity:1;fill-rule:nonzero;stroke:none;stroke-width:0.0352777"
       id="path912" />
    <path
       d="M 47.905279,72.947524 45.2344,71.956571 44.810008,71.56781 l 3.173588,0.968728 -0.07832,0.410986"
       style="fill:#946b6a;fill-opacity:1;fill-rule:nonzero;stroke:none;stroke-width:0.0352777"
       id="path914" />
    <path
       d="m 35.034254,72.401777 c -1.63449,-3.800828 -1.872615,-6.729237 1.835397,-9.063567 1.596037,-1.004358 7.554418,-0.494595 7.554418,-0.494595 0,0 1.176867,3.248025 0.32385,5.562953 -0.853017,2.316692 -9.713665,3.995209 -9.713665,3.995209"
       style="fill:#e06b36;fill-opacity:1;fill-rule:nonzero;stroke:none;stroke-width:0.0352777"
       id="path916" />
    <path
       d="m 42.483791,67.217354 c -3.047964,-0.399344 -6.05222,-1.67005 -6.03705,-3.527777 -4.89906,0.0071 -3.056502,4.886677 -1.412487,8.7122 0,0 8.860648,-1.678517 9.713665,-3.995209 0.14217,-0.382764 0.223308,-0.792339 0.267406,-1.208264 -0.783873,0.121003 -1.641123,0.136172 -2.531534,0.01905"
       style="fill:#d94f28;fill-opacity:1;fill-rule:nonzero;stroke:none;stroke-width:0.0352777"
       id="path918" />
    <path
       d="m 38.046518,80.474037 c 0.530683,0.25647 3.396932,1.22802 6.323929,0.912284 0,0 2.712155,-11.66495 1.774824,-13.150497 -0.935566,-1.486959 -2.285999,-4.918075 -3.012369,-4.752975 -0.724605,0.165453 -4.697659,-0.399345 -5.468125,0.729191 -3.67658,5.401734 0.01379,16.085609 0.381741,16.261997"
       style="fill:#fddba6;fill-opacity:1;fill-rule:nonzero;stroke:none;stroke-width:0.0352777"
       id="path920" />
    <path
       d="m 37.331437,63.917118 c -0.795126,1.429103 -2.488883,4.654903 -1.476022,7.551561 l 2.411589,2.827867 c 0,0 1.593144,-6.818489 1.073467,-8.040864 -0.519218,-1.222375 1.988679,-2.67088 4.046079,-2.796117 l 0.161219,-0.577497 c 0,0 -5.419689,-0.395464 -6.216332,1.03505"
       style="fill:#e06b36;fill-opacity:1;fill-rule:nonzero;stroke:none;stroke-width:0.0352777"
       id="path922" />
    <path
       d="m 36.545836,64.27801 c -1.504562,1.418166 -2.094512,4.652433 -1.098162,7.507817 l 2.81933,2.510719 c 0,0 1.142647,-4.89197 1.176972,-7.131403 -0.985449,-0.690386 -2.518904,-1.52153 -2.89814,-2.887133"
       style="fill:#d94f28;fill-opacity:1;fill-rule:nonzero;stroke:none;stroke-width:0.0352777"
       id="path924" />
    <path
       d="m 37.278944,73.62274 c -0.07415,-1.131358 -1.539135,-4.903258 -2.76158,-4.187825 -1.223433,0.71367 -0.987778,2.102556 -0.679097,2.633134 0.30868,0.530578 1.302102,1.416755 1.594238,1.700741 0.359798,0.347134 1.890536,0.51682 1.846439,-0.14605"
       style="fill:#fddba6;fill-opacity:1;fill-rule:nonzero;stroke:none;stroke-width:0.0352777"
       id="path926" />
    <path
       d="m 36.472776,73.163777 c -0.04121,-0.61595 -0.836472,-2.668059 -1.501775,-2.277887 -0.66421,0.388409 -0.536187,1.143706 -0.369323,1.431573 0.167993,0.288219 0.708025,0.770466 0.866775,0.92463 0.195439,0.187678 1.029405,0.281164 1.004323,-0.07832"
       style="fill:#f07c61;fill-opacity:1;fill-rule:nonzero;stroke:none;stroke-width:0.0352777"
       id="path928" />
    <path
       d="m 36.565239,73.651668 c -0.02755,-0.413455 -0.560846,-1.786114 -1.006087,-1.525764 -0.444853,0.259292 -0.359551,0.764823 -0.246662,0.957792 0.111866,0.192969 0.472793,0.515408 0.580425,0.618772 0.130775,0.127 0.687493,0.188736 0.672324,-0.0508"
       style="fill:#fddba6;fill-opacity:1;fill-rule:nonzero;stroke:none;stroke-width:0.0352777"
       id="path930" />
    <path
       d="m 44.811419,70.856962 c -0.159808,-0.132291 -0.141817,-1.097138 0.125589,-1.26365 0.268464,-0.166863 1.652059,0.77717 1.636888,0.894292 -0.01659,0.118533 -0.04409,0.704145 -0.143227,0.740128 -0.09913,0.03704 -1.42628,-0.210961 -1.61925,-0.37077"
       style="fill:#e06b36;fill-opacity:1;fill-rule:nonzero;stroke:none;stroke-width:0.0352777"
       id="path932" />
    <path
       d="m 43.27225,70.539815 c 0.300214,-0.07161 0.588433,-0.996244 0.208139,-1.247069 -0.380648,-0.249414 -2.932642,0.182033 -2.9464,0.300566 -0.01235,0.117123 -0.158398,0.683331 -0.0081,0.752475 0.14852,0.0702 2.38125,0.280812 2.746375,0.194028"
       style="fill:#e06b36;fill-opacity:1;fill-rule:nonzero;stroke:none;stroke-width:0.0352777"
       id="path934" />
    <path
       d="M 43.874441,77.811976 40.56715,76.65416 c 0,0 -0.271639,1.627716 0.119944,2.02318 0.38982,0.394053 2.335742,0.564798 2.473325,0.496006 0.136525,-0.0702 0.714022,-1.36137 0.714022,-1.36137"
       style="fill:#4a2422;fill-opacity:1;fill-rule:nonzero;stroke:none;stroke-width:0.0352777"
       id="path936" />
    <path
       d="m 43.430647,78.504832 c 0.165453,-0.334786 0.325261,-0.690386 0.325261,-0.690386 l -3.078692,-1.074561 c 0,0 -0.07691,0.464255 -0.08396,0.9398 l 2.837392,0.825147"
       style="fill:#fef7ed;fill-opacity:1;fill-rule:nonzero;stroke:none;stroke-width:0.0352777"
       id="path938" />
    <path
       d="m 43.305411,73.848518 c -0.417689,0.05927 -2.336095,-0.01905 -2.543881,-0.337608 -0.20955,-0.316795 -0.06632,-1.927931 -0.06632,-1.927931 l 3.284008,0.552803 c 0,0 -0.256469,1.65347 -0.673805,1.712736 z m -2.823633,-2.521656 c 0,0 -0.155928,1.969206 0.08255,2.357615 0.235655,0.38735 2.402063,0.493536 2.871963,0.423333 0.471311,-0.06915 0.753534,-2.08915 0.753534,-2.08915 l -3.708047,-0.691798"
       style="fill:#543836;fill-opacity:1;fill-rule:nonzero;stroke:none;stroke-width:0.0352777"
       id="path940" />
    <path
       d="m 44.983575,74.128271 c 0.325261,0.184856 1.841146,0.646289 2.111376,0.409222 0.269875,-0.237066 0.64911,-1.809397 0.64911,-1.809397 l -2.789414,-0.429683 c 0,0 -0.297392,1.648177 0.02893,1.829858 z m 3.018013,-1.576564 c 0,0 -0.480836,1.912761 -0.797984,2.209095 -0.31397,0.294922 -2.137127,-0.265995 -2.505074,-0.475192 -0.367947,-0.20955 0.02328,-2.210506 0.02328,-2.210506 l 3.279774,0.476603"
       style="fill:#543836;fill-opacity:1;fill-rule:nonzero;stroke:none;stroke-width:0.0352777"
       id="path942" />
    <path
       d="m 45.270383,72.699168 0.445205,0.08961 c 0,0 -0.124177,0.686505 -0.396875,0.587022 -0.274461,-0.09913 -0.04833,-0.676628 -0.04833,-0.676628"
       style="fill:#492c2a;fill-opacity:1;fill-rule:nonzero;stroke:none;stroke-width:0.0352777"
       id="path944" />
    <path
       d="m 42.260836,72.287124 0.551039,0.07585 c 0,0 -0.09772,0.789869 -0.480836,0.621594 -0.32385,-0.144638 -0.0702,-0.697441 -0.0702,-0.697441"
       style="fill:#492c2a;fill-opacity:1;fill-rule:nonzero;stroke:none;stroke-width:0.0352777"
       id="path946" />
    <path
       d="m 41.797639,73.811477 1.591733,-1.776236 0.445205,0.07444 -1.29293,1.759655 -0.744008,-0.05785"
       style="fill:#fefce5;fill-opacity:1;fill-rule:nonzero;stroke:none;stroke-width:0.0352777"
       id="path948" />
    <path
       d="m 41.038461,71.770657 0.763411,0.144639 -0.7112,0.636411 z"
       style="fill:#fefce5;fill-opacity:1;fill-rule:nonzero;stroke:none;stroke-width:0.0352777"
       id="path950" />
    <path
       d="m 47.490413,72.830402 -0.391584,0.899583 -0.58702,-1.049867 z"
       style="fill:#fefce5;fill-opacity:1;fill-rule:nonzero;stroke:none;stroke-width:0.0352777"
       id="path952" />
    <path
       d="m 40.494125,71.773127 -4.070667,-1.161698 -0.638175,-0.413103 4.841133,1.171223 -0.132291,0.403578"
       style="fill:#543836;fill-opacity:1;fill-rule:nonzero;stroke:none;stroke-width:0.0352777"
       id="path954" />
    <path
       d="m 43.66348,77.210843 c 0,0 2.604558,-0.1143 2.663824,-0.301625 0.06209,-0.188736 -1.97626,-6.354233 -1.97626,-6.354233 l -0.687564,6.655858"
       style="fill:#fddba6;fill-opacity:1;fill-rule:nonzero;stroke:none;stroke-width:0.0352777"
       id="path956" />
    <path
       d="m 44.468166,70.636476 -0.04939,0.480836 c 0.518231,1.580798 1.81469,5.564364 1.766711,5.714648 -0.04833,0.150283 -1.715911,0.253647 -2.386894,0.28963 l -0.01658,0.170745 c 0,0 2.601738,-0.112889 2.663825,-0.301978 0.05927,-0.187325 -1.977673,-6.353881 -1.977673,-6.353881"
       style="fill:#f89f82;fill-opacity:1;fill-rule:nonzero;stroke:none;stroke-width:0.0352777"
       id="path958" />
    <path
       d="m 40.999655,113.73604 -1.91523,0.23142 v 0.87101 h 1.91523 v -1.10243"
       style="fill:#dbac8e;fill-opacity:1;fill-rule:nonzero;stroke:none;stroke-width:0.0352777"
       id="path960" />
    <path
       d="m 37.835944,114.44689 0.304412,6.31437 0.435328,-0.0882 0.0441,-6.61741 -0.783837,0.39123"
       style="fill:#2e2227;fill-opacity:1;fill-rule:nonzero;stroke:none;stroke-width:0.0352777"
       id="path962" />
    <path
       d="m 75.273073,73.233979 c 0.05221,-0.216252 0.271288,-0.347133 0.487892,-0.293511 0.214841,0.05362 0.347133,0.271639 0.2921,0.487892 -0.05256,0.216253 -0.271638,0.347133 -0.486479,0.293511 -0.216607,-0.05362 -0.347488,-0.27305 -0.293513,-0.487892 z m -11.389429,-2.477558 -3.438525,13.8049 c -0.178858,0.719314 0.259292,1.448505 0.978607,1.626305 l 10.209739,2.543881 c 0.777171,0.194381 1.564216,-0.279752 1.757187,-1.055511 l 3.438171,-13.805253 c 0.156988,-0.63253 -0.227542,-1.274939 -0.860071,-1.431925 L 65.444686,69.817679 c -0.690385,-0.172155 -1.388885,0.248356 -1.561042,0.938742"
       style="fill:#36514f;fill-opacity:1;fill-rule:nonzero;stroke:none;stroke-width:0.0352777"
       id="path964" />
    <path
       d="m 64.969494,69.790162 c -1.671815,3.503084 -0.811742,8.155517 2.430637,11.470923 1.930755,1.973438 4.35469,3.1115 6.748288,3.373261 l -0.757767,3.04165 c -0.192971,0.775759 -0.980016,1.249892 -1.757187,1.055511 L 61.423726,86.187626 c -0.719315,-0.1778 -1.157465,-0.906991 -0.978607,-1.626305 l 3.438525,-13.8049 c 0.132292,-0.529167 0.574323,-0.899936 1.08585,-0.966259"
       style="fill:#314a47;fill-opacity:1;fill-rule:nonzero;stroke:none;stroke-width:0.0352777"
       id="path966" />
    <path
       d="m 69.366869,86.617662 2.030942,0.505531 -0.05927,0.234244 -2.030942,-0.50553 0.05927,-0.234245"
       style="fill:#3f756c;fill-opacity:1;fill-rule:nonzero;stroke:none;stroke-width:0.0352777"
       id="path968" />
    <path
       d="m 69.531969,86.118482 2.031294,0.507294 -0.05786,0.234245 -2.032704,-0.505884 0.05927,-0.235655"
       style="fill:#3f756c;fill-opacity:1;fill-rule:nonzero;stroke:none;stroke-width:0.0352777"
       id="path970" />
    <path
       d="m 70.419556,85.884237 1.251305,0.311503 -0.05927,0.234245 -1.249892,-0.311503 0.05785,-0.234245"
       style="fill:#3f756c;fill-opacity:1;fill-rule:nonzero;stroke:none;stroke-width:0.0352777"
       id="path972" />
    <path
       d="m 64.108011,83.470179 c 0.05398,-2.560461 0.605015,-9.390239 2.243666,-10.117666 1.6383,-0.727781 2.230967,1.131358 2.813754,1.124302 0.583142,-0.0053 1.774825,-0.947913 3.322463,0.0056 1.546225,0.953558 -1.095375,8.353777 -3.399721,10.654947 0,0 0.198615,-4.1783 -1.352902,-4.433006 -1.550458,-0.255058 -3.62726,2.765778 -3.62726,2.765778"
       style="fill:#56958a;fill-opacity:1;fill-rule:nonzero;stroke:none;stroke-width:0.0352777"
       id="path974" />
    <path
       d="m 66.665648,83.551318 c 0,0 -0.294921,-2.080683 -0.01516,-2.273653 0.278342,-0.19438 1.338086,-0.799394 1.628775,0.363714 0,0 -0.593725,1.258006 -1.613606,1.909939"
       style="fill:#56958a;fill-opacity:1;fill-rule:nonzero;stroke:none;stroke-width:0.0352777"
       id="path976" />
    <path
       d="m 68.769969,81.029662 c 0.42051,0.899584 3.409244,-5.37986 3.128079,-6.147505 -0.281162,-0.769055 -2.194983,0.110067 -2.8702,-0.169686 -0.674158,-0.278342 -1.207204,-1.156053 -1.653821,-1.065036 -0.445206,0.09243 -0.947914,5.24898 -0.781404,6.793794 0,0 1.774825,-0.278342 2.177346,0.588433"
       style="fill:#3f756c;fill-opacity:1;fill-rule:nonzero;stroke:none;stroke-width:0.0352777"
       id="path978" />
    <path
       d="m 70.160619,75.251515 c 0.567619,-0.384527 0.917575,-0.48648 1.080204,0.140406 0.162631,0.625828 -2.771069,4.605514 -2.771069,4.605514 0,0 1.10349,-4.349045 1.690865,-4.74592"
       style="fill:#71baa6;fill-opacity:1;fill-rule:nonzero;stroke:none;stroke-width:0.0352777"
       id="path980" />
    <path
       d="m 67.462221,74.525146 c 0.21096,-0.310092 0.367948,-0.432506 0.578908,-0.147461 0.209198,0.286808 -0.476956,2.907594 -0.476956,2.907594 0,0 -0.319617,-2.437694 -0.101952,-2.760133"
       style="fill:#71baa6;fill-opacity:1;fill-rule:nonzero;stroke:none;stroke-width:0.0352777"
       id="path982" />
    <path
       d="m 66.106144,87.331332 c 0.253646,-0.702734 0.04974,-1.569509 -0.349956,-1.551517 -0.453319,0.02046 -0.07161,0.738364 -0.522111,1.336675 -0.483658,0.648758 -0.740126,1.073502 -0.390173,1.20156 0.347488,0.130882 1.011415,-0.285396 1.26224,-0.986718"
       style="fill:#fddba6;fill-opacity:1;fill-rule:nonzero;stroke:none;stroke-width:0.0352777"
       id="path984" />
  </g>
</svg>
