<?xml version="1.0" encoding="UTF-8" standalone="no"?>
<svg
   xmlns:dc="http://purl.org/dc/elements/1.1/"
   xmlns:cc="http://creativecommons.org/ns#"
   xmlns:rdf="http://www.w3.org/1999/02/22-rdf-syntax-ns#"
   xmlns:svg="http://www.w3.org/2000/svg"
   xmlns="http://www.w3.org/2000/svg"
   xmlns:sodipodi="http://sodipodi.sourceforge.net/DTD/sodipodi-0.dtd"
   xmlns:inkscape="http://www.inkscape.org/namespaces/inkscape"
   sodipodi:docname="doctor-paciente.svg"
   inkscape:version="1.0 (4035a4fb49, 2020-05-01)"
   id="svg3824"
   version="1.1"
   viewBox="0 0 71.31749 96.868645"
   height="96.868645mm"
   width="71.31749mm">
  <defs
     id="defs3818" />
  <sodipodi:namedview
     inkscape:window-maximized="1"
     inkscape:window-y="-8"
     inkscape:window-x="-8"
     inkscape:window-height="837"
     inkscape:window-width="1600"
     showgrid="false"
     inkscape:document-rotation="0"
     inkscape:current-layer="layer1"
     inkscape:document-units="mm"
     inkscape:cy="178.92735"
     inkscape:cx="-9.5300714"
     inkscape:zoom="0.7"
     inkscape:pageshadow="2"
     inkscape:pageopacity="0.0"
     borderopacity="1.0"
     bordercolor="#666666"
     pagecolor="#ffffff"
     id="base" />
  <metadata
     id="metadata3821">
    <rdf:RDF>
      <cc:Work
         rdf:about="">
        <dc:format>image/svg+xml</dc:format>
        <dc:type
           rdf:resource="http://purl.org/dc/dcmitype/StillImage" />
        <dc:title></dc:title>
      </cc:Work>
    </rdf:RDF>
  </metadata>
  <g
     transform="translate(-61.859113,-64.202634)"
     id="layer1"
     inkscape:groupmode="layer"
     inkscape:label="Layer 1">
    <path
       d="m 104.3571,73.805951 -6.037787,7.69761 3.018717,-8.82403 z"
       style="fill:#ae52d4;fill-opacity:1;fill-rule:nonzero;stroke:none;stroke-width:0.0352777"
       id="path1336" />
    <path
       d="m 115.50418,64.202634 -16.720259,1.6256 0.348192,9.405408 15.675677,0.580672 0.69639,-11.61168"
       style="fill:#ae52d4;fill-opacity:1;fill-rule:nonzero;stroke:none;stroke-width:0.0352777"
       id="path1338" />
    <path
       d="m 102.38331,135.55582 c -4.770257,0 -5.747806,-2.29732 -5.747806,-5.74777 h 0.696738 c 0,3.27614 0.805037,5.05131 5.051068,5.05131 v 0.69646"
       style="fill:#34241f;fill-opacity:1;fill-rule:nonzero;stroke:none;stroke-width:0.0352777"
       id="path1340" />
    <path
       d="m 124.96744,135.55582 v -0.69646 c 4.24603,0 5.05107,-1.77517 5.05107,-5.05131 h 0.69674 c 0,3.45045 -0.97755,5.74777 -5.74781,5.74777"
       style="fill:#34241f;fill-opacity:1;fill-rule:nonzero;stroke:none;stroke-width:0.0352777"
       id="path1342" />
    <path
       d="m 119.45917,144.12158 c 0,-2.60519 -2.25813,-4.7184 -5.04402,-4.7184 -2.78624,0 -5.04507,2.11321 -5.04507,4.7184 0,2.60601 2.25883,4.71773 5.04507,4.71773 2.78589,0 5.04402,-2.11172 5.04402,-4.71773"
       style="fill:#34241f;fill-opacity:1;fill-rule:nonzero;stroke:none;stroke-width:0.0352777"
       id="path1344" />
    <path
       d="m 113.28485,159.70912 2.44475,-0.57229 1.28059,-19.7484 -4.93607,0.42926 1.21073,19.89143"
       style="fill:#34241f;fill-opacity:1;fill-rule:nonzero;stroke:none;stroke-width:0.0352777"
       id="path1346" />
    <path
       d="m 125.41759,101.90929 c -0.037,-0.86854 -0.7045,-1.57445 -1.56916,-1.663 -7.40481,-0.757412 -12.28866,-0.727073 -19.88326,0.0127 -0.84067,0.0822 -1.49437,0.77011 -1.5307,1.61431 l -1.36032,31.83887 h 25.70339 l -1.35995,-31.80288"
       style="fill:#b38e7a;fill-opacity:1;fill-rule:nonzero;stroke:none;stroke-width:0.0352777"
       id="path1348" />
    <path
       d="m 114.67868,109.75718 c -4.70041,0 -9.03182,-0.6664 -12.50456,-1.78858 l -1.10032,25.74357 h 25.70374 l -1.08197,-25.30719 c -3.19017,0.85549 -6.96701,1.3522 -11.01689,1.3522"
       style="fill:#b38e7a;fill-opacity:1;fill-rule:nonzero;stroke:none;stroke-width:0.0352777"
       id="path1350" />
    <path
       d="m 104.97799,120.67706 c 0,5.17808 -0.75212,9.82977 -1.94733,13.03511 h 22.81767 c -1.03153,-2.59112 -1.8983,-5.54454 -2.50684,-8.7231 -1.18004,-6.15809 -1.15323,-11.89214 -0.15699,-16.00941 -2.59433,0.49847 -5.47299,0.77752 -8.50582,0.77752 -4.22205,0 -8.14458,-0.53975 -11.41695,-1.46156 1.0608,3.1683 1.71626,7.54557 1.71626,12.38144"
       style="fill:#996d5d;fill-opacity:1;fill-rule:nonzero;stroke:none;stroke-width:0.0352777"
       id="path1352" />
    <path
       d="m 125.55658,111.36973 c -1.65453,-2.52413 -3.23815,-4.88174 -4.23686,-4.92055 l -3.26813,8.58908 c 2.54881,1.42769 4.99674,4.2284 7.16385,7.3593 0.3489,-0.50482 0.65546,-0.9966 0.93804,-1.48449 l -0.5969,-9.54334"
       style="fill:#996d5d;fill-opacity:1;fill-rule:nonzero;stroke:none;stroke-width:0.0352777"
       id="path1354" />
    <path
       d="m 107.13699,107.36958 c -1.04104,-0.061 -3.39407,3.4036 -5.2137,6.14257 l -0.32385,8.86213 c 0.26705,0.56162 0.58455,1.10454 0.97085,1.64571 2.19533,-2.88537 4.8835,-6.36059 7.04038,-6.70137 l -2.47368,-9.94904"
       style="fill:#996d5d;fill-opacity:1;fill-rule:nonzero;stroke:none;stroke-width:0.0352777"
       id="path1356" />
    <path
       d="m 122.79645,103.90707 c -1.16135,-1.16558 -15.39946,-1.10279 -16.95274,0.69638 -1.55222,1.80023 2.52554,13.31313 0.80927,24.16983 3.20111,-0.4184 4.59211,1.66906 7.74736,1.71591 2.15088,0.0318 4.03507,-1.71591 7.97912,-1.99457 -1.14688,-3.81988 -1.08691,-9.42446 -0.51082,-14.28927 0.63006,-5.30542 1.53352,-9.68939 0.92781,-10.29828"
       style="fill:#89ccdd;fill-opacity:1;fill-rule:nonzero;stroke:none;stroke-width:0.0352777"
       id="path1358" />
    <path
       d="m 109.97721,103.43293 c 0,0 0.99413,4.19559 4.51661,6.22336 0,0 2.37208,-0.97861 3.44382,-6.43396 -2.48144,-0.12736 -4.75474,-0.3168 -7.96043,0.2106"
       style="fill:#dbf3fa;fill-opacity:1;fill-rule:nonzero;stroke:none;stroke-width:0.0352777"
       id="path1360" />
    <path
       d="m 121.75187,113.91361 c -7.46654,2.29058 -10.48561,1.97414 -15.23859,-0.47802 0.52211,4.54484 0.90135,9.93317 0.1397,15.18278 3.20111,-0.45572 4.59211,1.81928 7.74736,1.87082 2.15088,0.0346 4.03507,-1.87082 7.97912,-2.17414 -1.06327,-3.86009 -1.08832,-9.39059 -0.62759,-14.40144"
       style="fill:#7ac3cf;fill-opacity:1;fill-rule:nonzero;stroke:none;stroke-width:0.0352777"
       id="path1362" />
    <path
       d="m 121.9967,114.21418 c 0.0536,-0.45191 -0.0191,-0.90488 0.0374,-1.34162 -2.61409,5.4677 -1.83127,13.20444 -1.45415,15.86971 0.55209,-0.11261 1.35325,-0.10693 2.00801,-0.15353 -1.14724,-3.81945 -1.1677,-9.51011 -0.59126,-14.37456"
       style="fill:#6cbbca;fill-opacity:1;fill-rule:nonzero;stroke:none;stroke-width:0.0352777"
       id="path1364" />
    <path
       d="m 106.01199,111.95499 c 0.66286,4.65172 1.32679,10.68775 0.37747,16.69206 0.44767,-0.0586 1.12007,0.062 1.50671,0.0889 0.40534,-7.60025 -0.2928,-13.08523 -1.88418,-16.78093"
       style="fill:#6cbbca;fill-opacity:1;fill-rule:nonzero;stroke:none;stroke-width:0.0352777"
       id="path1366" />
    <path
       d="m 125.6169,130.05637 c -1.22025,-1.04207 -2.4197,-2.10605 -7.68808,-1.32264 -1.24248,0.18493 -3.0607,0.61182 -7.75088,-0.21759 -2.96404,-0.52395 -5.71853,-0.78176 -8.45326,1.37308 l 0.0811,5.44929 21.9209,-0.20285 1.89018,-5.07929"
       style="fill:#553b39;fill-opacity:1;fill-rule:nonzero;stroke:none;stroke-width:0.0352777"
       id="path1368" />
    <path
       d="m 113.66127,130.432 c -4.93572,0 -9.15812,1.94635 -11.9126,1.07322 l 0.0571,3.83329 21.9209,-0.20285 1.11337,-3.33276 c -2.75449,0.70139 -6.83013,-1.3709 -11.17882,-1.3709"
       style="fill:#483130;fill-opacity:1;fill-rule:nonzero;stroke:none;stroke-width:0.0352777"
       id="path1370" />
    <path
       d="m 127.69724,133.30467 h -27.54348 v 11.34745 h 27.54348 v -11.34745"
       style="fill:#996d5d;fill-opacity:1;fill-rule:nonzero;stroke:none;stroke-width:0.0352777"
       id="path1372" />
    <path
       d="m 127.69724,133.9245 h -27.54348 v 8.88905 h 27.54348 v -8.88905"
       style="fill:#c6ad94;fill-opacity:1;fill-rule:nonzero;stroke:none;stroke-width:0.0352777"
       id="path1374" />
    <path
       d="m 119.75656,133.30467 c -1.02588,3.05471 -1.5808,7.43342 -1.89689,11.34745 h 5.74393 c 1.73179,-4.51266 3.26778,-8.55239 3.86115,-11.34745 h -7.70819"
       style="fill:#996d5d;fill-opacity:1;fill-rule:nonzero;stroke:none;stroke-width:0.0352777"
       id="path1376" />
    <path
       d="m 100.81592,133.30467 c 0.5267,2.80388 2.39854,6.84925 3.94159,11.34745 h 5.73052 c -0.2032,-3.91678 -0.6283,-8.28876 -1.54517,-11.34745 h -8.12694"
       style="fill:#996d5d;fill-opacity:1;fill-rule:nonzero;stroke:none;stroke-width:0.0352777"
       id="path1378" />
    <path
       d="m 122.238,133.30467 h -22.08424 v 2.07504 H 122.238 v -2.07504"
       style="fill:#996d5d;fill-opacity:1;fill-rule:nonzero;stroke:none;stroke-width:0.0352777"
       id="path1380" />
    <path
       d="m 127.69724,144.04154 h -27.54348 v 1.63833 c 0,0.54434 0.65652,0.98556 1.46649,0.98556 h 24.20374 c 1.03505,0 1.87325,-0.56403 1.87325,-1.25896 v -1.36493"
       style="fill:#8c5a4a;fill-opacity:1;fill-rule:nonzero;stroke:none;stroke-width:0.0352777"
       id="path1382" />
    <path
       d="m 108.65076,156.73021 c -2.96016,-13.35193 -9.982901,-25.90408 -6.11646,-27.34056 2.42853,-0.90272 4.711,3.96699 5.77109,8.04651 1.0414,4.00791 0.84032,14.30225 1.52506,19.05952 0,0 -0.29033,0.84198 -1.17969,0.23453"
       style="fill:#553b39;fill-opacity:1;fill-rule:nonzero;stroke:none;stroke-width:0.0352777"
       id="path1384" />
    <path
       d="m 108.30539,137.43616 c -0.39969,-1.53677 -0.97225,-3.18534 -1.66123,-4.59602 0.78458,3.35636 0.33338,6.36834 -1.05022,6.79481 -0.9465,0.29242 -2.08774,-0.70375 -3.00355,-2.42397 1.60197,5.13832 4.43901,12.20611 6.06037,19.51923 0.88936,0.60745 1.17969,-0.23453 1.17969,-0.23453 -0.68474,-4.75727 -0.48366,-15.05161 -1.52506,-19.05952"
       style="fill:#483130;fill-opacity:1;fill-rule:nonzero;stroke:none;stroke-width:0.0352777"
       id="path1386" />
    <path
       d="m 120.83465,155.1685 c 0.61912,-12.00824 9.6901,-24.25774 3.64772,-25.66984 -6.20889,-1.45246 -4.56353,24.24218 -4.68983,25.62366 0,0 0.52846,0.34491 1.04211,0.0462"
       style="fill:#553b39;fill-opacity:1;fill-rule:nonzero;stroke:none;stroke-width:0.0352777"
       id="path1388" />
    <path
       d="m 126.19687,131.18346 c 0.0787,1.12931 -0.0201,2.43032 -0.32032,3.76974 -0.79657,3.54447 -2.70898,6.00537 -4.27214,5.49741 -0.7232,-0.23562 -1.24178,-1.071 -1.51483,-2.24797 -0.77399,7.26736 -0.2607,16.56221 -0.33408,17.38355 0,0 0.51717,0.35951 1.02059,0.0628 0.51047,-10.17446 6.7504,-20.42943 5.42078,-24.46556"
       style="fill:#483130;fill-opacity:1;fill-rule:nonzero;stroke:none;stroke-width:0.0352777"
       id="path1390" />
    <path
       d="m 119.64261,156.30261 c 1.19627,1.14875 3.81283,1.33573 3.81283,1.33573 0,0 -2.50684,-2.97506 -3.22545,-2.88644 -1.07421,0.13258 -1.05516,1.09954 -0.58738,1.55071"
       style="fill:#edb976;fill-opacity:1;fill-rule:nonzero;stroke:none;stroke-width:0.0352777"
       id="path1392" />
    <path
       d="m 126.26037,109.09713 c 0.5715,1.97626 5.32589,11.05676 4.33917,11.80395 -0.17251,0.13123 -1.08233,1.20861 -1.50389,0.85407 -1.97803,-1.66264 -5.95419,-8.30262 -5.95419,-8.30262 l 3.11891,-4.3554"
       style="fill:#f89f76;fill-opacity:1;fill-rule:nonzero;stroke:none;stroke-width:0.0352777"
       id="path1394" />
    <path
       d="m 102.426,109.77835 c -0.64311,1.47814 -4.027664,7.13951 -5.192183,10.14659 -0.357013,0.92251 -0.07197,1.70321 0.138994,1.9117 1.460148,1.44498 7.407629,-7.56779 7.407629,-7.56779 l -2.35444,-4.4905"
       style="fill:#f89f76;fill-opacity:1;fill-rule:nonzero;stroke:none;stroke-width:0.0352777"
       id="path1396" />
    <path
       d="m 122.36465,103.77865 c 1.56139,0.06 4.55295,5.78838 7.00828,8.95985 -0.61101,2.4631 -1.19168,4.20159 -2.84445,6.5913 -2.16676,-3.1309 -4.88279,-5.53472 -7.43162,-6.96206 l 3.26779,-8.58909"
       style="fill:#89ccdd;fill-opacity:1;fill-rule:nonzero;stroke:none;stroke-width:0.0352777"
       id="path1398" />
    <path
       d="m 120.75139,113.4931 c 1.95086,1.54587 3.816,3.78777 5.50898,6.23358 0.32703,-0.47308 0.61524,-0.93416 0.88371,-1.39206 -1.93252,-2.02953 -4.23404,-3.66713 -6.39269,-4.84152"
       style="fill:#6cbbca;fill-opacity:1;fill-rule:nonzero;stroke:none;stroke-width:0.0352777"
       id="path1400" />
    <path
       d="m 106.55597,104.2923 c -1.48661,-0.0868 -5.64974,7.01675 -7.111294,8.92739 0.558444,3.35316 0.993064,5.5499 2.544934,7.72301 2.19499,-2.88501 4.88386,-6.36093 7.04039,-6.70136 l -2.47403,-9.94904"
       style="fill:#89ccdd;fill-opacity:1;fill-rule:nonzero;stroke:none;stroke-width:0.0352777"
       id="path1402" />
    <path
       d="m 101.14365,119.54535 c 0.2406,0.47414 0.51718,0.93663 0.84596,1.39735 2.19499,-2.88501 4.22099,-4.64185 5.83671,-5.79437 -2.78694,0.13053 -5.19536,2.4952 -6.68267,4.39702"
       style="fill:#6cbbca;fill-opacity:1;fill-rule:nonzero;stroke:none;stroke-width:0.0352777"
       id="path1404" />
    <path
       d="m 110.68735,103.32639 c 0,0 0.82374,3.47698 3.74332,5.15797 0,0 1.96568,-0.81139 2.85398,-5.33224 -2.0567,-0.10583 -3.94053,-0.26247 -6.5973,0.17427"
       style="fill:#f89f82;fill-opacity:1;fill-rule:nonzero;stroke:none;stroke-width:0.0352777"
       id="path1406" />
    <path
       d="m 110.935,103.29394 c 0,0 0.7553,3.18241 3.45687,4.72722 0,0 1.82492,-0.73731 2.65888,-4.87045 -1.90641,-0.10195 -3.65125,-0.24977 -6.11575,0.14323"
       style="fill:#fddba6;fill-opacity:1;fill-rule:nonzero;stroke:none;stroke-width:0.0352777"
       id="path1408" />
    <path
       d="m 116.60978,97.353161 -4.65913,0.832908 -0.74613,5.374921 5.71641,-0.0871 -0.31115,-6.120691"
       style="fill:#fddba6;fill-opacity:1;fill-rule:nonzero;stroke:none;stroke-width:0.0352777"
       id="path1410" />
    <path
       d="m 109.96945,157.69222 c -1.29611,1.1063 -4.32435,2.13183 -4.32435,2.13183 0,0 2.79012,-3.69878 3.52284,-3.57573 1.09608,0.18274 1.30951,1.00996 0.80151,1.4439"
       style="fill:#edb976;fill-opacity:1;fill-rule:nonzero;stroke:none;stroke-width:0.0352777"
       id="path1412" />
    <path
       d="m 128.49945,121.74422 c -0.0935,-0.51365 0.1009,-2.34139 0.82974,-2.46028 2.48249,-0.40499 2.96403,2.6469 2.27576,2.77672 -0.68897,0.13053 -2.88607,0.89288 -3.1055,-0.31644"
       style="fill:#fddba6;fill-opacity:1;fill-rule:nonzero;stroke:none;stroke-width:0.0352777"
       id="path1414" />
    <path
       d="m 131.82967,121.09828 c -0.67168,0.20285 -2.7753,1.19415 -3.12208,0.0148 -0.049,-0.16792 -0.0811,-0.48578 -0.0769,-0.84102 -0.14817,0.56056 -0.18062,1.19979 -0.13123,1.47214 0.21942,1.20932 2.41652,0.44697 3.1055,0.31644 0.24694,-0.0466 0.34255,-0.46955 0.24976,-0.97402 l -0.0251,0.0116"
       style="fill:#f89f76;fill-opacity:1;fill-rule:nonzero;stroke:none;stroke-width:0.0352777"
       id="path1416" />
    <path
       d="m 99.576967,121.91849 c 0.246944,-0.57256 -0.630414,-3.28895 -1.490133,-3.22615 -2.185458,0.16016 -3.042356,2.96545 -2.263423,3.20004 0.779285,0.2346 3.172531,1.37654 3.753556,0.0261"
       style="fill:#fddba6;fill-opacity:1;fill-rule:nonzero;stroke:none;stroke-width:0.0352777"
       id="path1418" />
    <path
       d="m 96.427367,121.48704 c -0.483658,-0.0938 -0.461081,-1.18392 0.107244,-2.1149 -0.988483,0.89217 -1.264708,2.35373 -0.7112,2.52024 0.779285,0.2346 3.172531,1.37654 3.753556,0.0261 0.01799,-0.042 0.02857,-0.0991 0.03492,-0.16298 -0.90805,0.42051 -2.561166,-0.14711 -3.184525,-0.26847"
       style="fill:#f89f76;fill-opacity:1;fill-rule:nonzero;stroke:none;stroke-width:0.0352777"
       id="path1420" />
    <path
       d="m 128.12974,123.53915 c -0.0208,-0.44485 0.14605,-0.87806 0.46002,-1.19945 0.31468,-0.32138 0.75001,-0.50306 1.20509,-0.50306 h 1.79635 c 0.45367,0 0.88582,0.18945 1.18639,0.52141 0.30092,0.33196 0.44238,0.77294 0.38735,1.21355 l -0.64594,5.18831 c -0.1845,1.47986 -1.47073,2.59334 -2.99755,2.59334 h -0.003 c -0.57291,0 -1.04352,-0.43935 -1.06927,-0.99773 l -0.31891,-6.81637"
       style="fill:#ab8c71;fill-opacity:1;fill-rule:nonzero;stroke:none;stroke-width:0.0352777"
       id="path1422" />
    <path
       d="m 130.97736,123.65415 c -1.0982,0 -2.09338,-0.12029 -2.83598,-0.31503 -0.005,0.0667 -0.0145,0.1323 -0.0116,0.20003 l 0.31891,6.81637 c 0.0257,0.55838 0.49636,0.99773 1.06927,0.99773 h 0.004 c 1.52682,0 2.81305,-1.11348 2.99756,-2.59334 l 0.64593,-5.18831 0.001,-0.0935 c -0.63606,0.11078 -1.3843,0.17604 -2.18898,0.17604"
       style="fill:#8c5a4a;fill-opacity:1;fill-rule:nonzero;stroke:none;stroke-width:0.0352777"
       id="path1424" />
    <path
       d="m 99.400226,123.42626 c 0.02188,-0.41381 -0.131588,-0.81844 -0.42404,-1.11936 -0.292452,-0.30092 -0.6985,-0.47026 -1.12254,-0.47026 h -2.277533 c -0.526696,0 -1.027287,0.22225 -1.373362,0.60996 -0.34643,0.38735 -0.504122,0.9017 -0.432507,1.41111 l 0.661107,4.72221 c 0.222602,1.58863 1.612193,2.77333 3.254727,2.77333 0.727426,0 1.32715,-0.55647 1.364191,-1.26658 l 0.349957,-6.66041"
       style="fill:#ab8c71;fill-opacity:1;fill-rule:nonzero;stroke:none;stroke-width:0.0352777"
       id="path1426" />
    <path
       d="m 96.809778,123.68273 c -1.099961,0 -2.134659,-0.0935 -3.044119,-0.25682 -0.01587,0.14287 -0.01587,0.28716 0.0046,0.4318 l 0.661107,4.72221 c 0.222602,1.58863 1.612193,2.77333 3.254727,2.77333 0.727427,0 1.32715,-0.55647 1.364191,-1.26658 l 0.346075,-6.58562 c -0.79375,0.11642 -1.667227,0.18168 -2.586566,0.18168"
       style="fill:#8c5a4a;fill-opacity:1;fill-rule:nonzero;stroke:none;stroke-width:0.0352777"
       id="path1428" />
    <path
       d="m 106.37464,161.04183 h 17.66429 l -6.1281,-4.47312 -6.42832,0.35278 -5.10787,4.12034"
       style="fill:#5f4a42;fill-opacity:1;fill-rule:nonzero;stroke:none;stroke-width:0.0352777"
       id="path1430" />
    <path
       d="m 110.39807,161.04183 h 9.61743 l -2.28847,-4.10271 -4.79919,0.32385 -2.52977,3.77886"
       style="fill:#a68a80;fill-opacity:1;fill-rule:nonzero;stroke:none;stroke-width:0.0352777"
       id="path1432" />
    <path
       d="m 129.9095,121.18048 c 1.33245,-0.10689 1.67252,0.69673 1.66053,0.95885 -0.013,0.28892 -0.96591,0.50729 -1.40053,0.40992 -0.43568,-0.0967 -0.76905,-1.32785 -0.26,-1.36877"
       style="fill:#fddba6;fill-opacity:1;fill-rule:nonzero;stroke:none;stroke-width:0.0352777"
       id="path1434" />
    <path
       d="m 129.66715,121.27679 c -0.45932,0.16439 -0.98355,0.73906 -0.93769,1.016 0.0497,0.31397 0.46673,-0.31292 0.87771,-0.28611 0.44521,0.0257 0.73096,-2.6e-4 0.78247,-0.31362 0.0511,-0.31256 -0.26388,-0.58279 -0.72249,-0.41627"
       style="fill:#fddba6;fill-opacity:1;fill-rule:nonzero;stroke:none;stroke-width:0.0352777"
       id="path1436" />
    <path
       d="m 130.2898,122.6438 c -8e-4,0.76341 -0.16087,1.12607 -0.34184,1.10067 -0.18239,-0.0247 -0.15135,-0.29704 -0.13865,-0.77506 0.012,-0.47872 -0.14393,-1.09643 0.0388,-1.06997 0.18204,0.0251 0.44274,-0.018 0.44168,0.74436"
       style="fill:#fddba6;fill-opacity:1;fill-rule:nonzero;stroke:none;stroke-width:0.0352777"
       id="path1438" />
    <path
       d="m 130.97419,122.45894 c 0.121,0.64135 -0.0494,1.2319 -0.20955,1.23508 -0.16122,7.9e-4 -0.13653,-0.60466 -0.25859,-1.24566 -0.12206,-0.64135 -0.1658,-1.06257 -0.006,-1.06186 0.16263,-0.003 0.35243,0.43109 0.47378,1.07244"
       style="fill:#fddba6;fill-opacity:1;fill-rule:nonzero;stroke:none;stroke-width:0.0352777"
       id="path1440" />
    <path
       d="m 131.68539,122.3958 c 0.0956,0.34149 0.0113,0.98389 -0.17145,0.98248 -0.17921,-0.002 -0.17498,-0.67416 -0.26847,-1.01741 -0.0953,-0.34149 -0.15134,-0.58208 0.03,-0.58138 0.18027,0.002 0.31468,0.27305 0.40993,0.61631"
       style="fill:#fddba6;fill-opacity:1;fill-rule:nonzero;stroke:none;stroke-width:0.0352777"
       id="path1442" />
    <path
       d="m 97.882576,121.24186 c -1.32715,-0.15769 -1.697567,0.63253 -1.695805,0.895 0.0021,0.28892 0.945798,0.54328 1.383948,0.46284 0.438857,-0.0804 0.818798,-1.29751 0.311857,-1.35784"
       style="fill:#fddba6;fill-opacity:1;fill-rule:nonzero;stroke:none;stroke-width:0.0352777"
       id="path1444" />
    <path
       d="m 98.121404,121.34734 c 0.452615,0.18168 0.954617,0.77576 0.898174,1.05057 -0.06174,0.31186 -0.454377,-0.3302 -0.866424,-0.31891 -0.445558,0.009 -0.73025,-0.0282 -0.76976,-0.3436 -0.03951,-0.31398 0.286102,-0.57221 0.73801,-0.38806"
       style="fill:#fddba6;fill-opacity:1;fill-rule:nonzero;stroke:none;stroke-width:0.0352777"
       id="path1446" />
    <path
       d="m 97.447246,122.68966 c -0.02822,0.76271 0.117475,1.13136 0.299508,1.11266 0.183092,-0.0173 0.16228,-0.29069 0.167924,-0.76941 0.0063,-0.47836 0.18556,-1.08973 0.0021,-1.07032 -0.183091,0.018 -0.442031,-0.0353 -0.469548,0.72707"
       style="fill:#fddba6;fill-opacity:1;fill-rule:nonzero;stroke:none;stroke-width:0.0352777"
       id="path1448" />
    <path
       d="m 96.769913,122.4787 c -0.144992,0.63606 0.0024,1.23296 0.162631,1.24213 0.160867,0.007 0.159457,-0.59866 0.305859,-1.23472 0.14605,-0.63641 0.206023,-1.05551 0.04586,-1.06045 -0.162277,-0.009 -0.3683,0.41663 -0.51435,1.05304"
       style="fill:#fddba6;fill-opacity:1;fill-rule:nonzero;stroke:none;stroke-width:0.0352777"
       id="path1450" />
    <path
       d="m 96.061888,122.38839 c -0.108302,0.33796 -0.04868,0.98284 0.133704,0.98848 0.179211,0.005 0.200729,-0.66745 0.307269,-1.00647 0.10795,-0.33761 0.173215,-0.57644 -0.0078,-0.58209 -0.180272,-0.005 -0.324909,0.26071 -0.433213,0.60008"
       style="fill:#fddba6;fill-opacity:1;fill-rule:nonzero;stroke:none;stroke-width:0.0352777"
       id="path1452" />
    <path
       d="m 102.20904,119.06663 0.95815,-1.16099 -3.222277,-5.39961 -0.580671,0.78387 2.844798,5.77673"
       style="fill:#6cbbca;fill-opacity:1;fill-rule:nonzero;stroke:none;stroke-width:0.0352777"
       id="path1454" />
    <path
       d="m 98.442079,113.94889 1.10349,-1.41711 c 0,0 3.042001,4.33528 3.138661,7.82249 l -0.85443,0.9899 c 0,0 -1.835146,-4.3561 -3.387721,-7.39528"
       style="fill:#dbf3fa;fill-opacity:1;fill-rule:nonzero;stroke:none;stroke-width:0.0352777"
       id="path1456" />
    <path
       d="m 124.88101,116.62859 3.54154,-5.25428 0.55139,0.87066 -2.64125,5.92208 -1.45168,-1.53846"
       style="fill:#6cbbca;fill-opacity:1;fill-rule:nonzero;stroke:none;stroke-width:0.0352777"
       id="path1458" />
    <path
       d="m 125.28741,118.89307 1.04528,1.45168 c 0,0 3.13514,-4.23863 3.33834,-7.72231 l -0.81316,-1.01565 c 0,0 -1.94521,4.29613 -3.57046,7.28628"
       style="fill:#dbf3fa;fill-opacity:1;fill-rule:nonzero;stroke:none;stroke-width:0.0352777"
       id="path1460" />
    <path
       d="m 116.92093,103.13272 c -0.001,0 -0.003,0 -0.005,0 -0.004,-2.6e-4 -0.008,-7.9e-4 -0.0127,-7.9e-4 v -2.7e-4 l 0.0173,0.001"
       style="fill:#9b5549;fill-opacity:1;fill-rule:nonzero;stroke:none;stroke-width:0.0352777"
       id="path1462" />
    <path
       d="m 112.82871,108.38805 c -2.62043,-0.64558 -4.24462,-2.87937 -4.92407,-4.61962 0.60642,-0.12948 1.30951,-0.23884 2.07433,-0.32879 0.0381,0.15416 0.72955,2.87584 2.84974,4.94841 m 3.06317,-0.004 c 0.70979,-0.94086 1.52894,-2.53083 2.04576,-5.16149 -0.22119,-0.0113 -0.44098,-0.0233 -0.6597,-0.0349 0.002,-0.012 0.005,-0.0236 0.007,-0.0353 -0.12311,-0.006 -0.24588,-0.013 -0.3683,-0.0194 0.001,0 0.003,0 0.005,0 l 0.0318,0.002 c 1.35361,0.0222 2.60598,0.0924 3.60928,0.20602 -0.54469,1.62948 -1.85033,4.3173 -4.67008,5.04331"
       style="fill:#6b8189;fill-opacity:1;fill-rule:nonzero;stroke:none;stroke-width:0.0352777"
       id="path1464" />
    <path
       d="m 114.35553,108.57008 c -0.54222,0 -1.05092,-0.0649 -1.52682,-0.18203 -2.12019,-2.07257 -2.81164,-4.79425 -2.84974,-4.94841 v 0 l -0.002,-0.007 v 0 c 0.24236,-0.0399 0.47801,-0.0744 0.71014,-0.10654 v 0 c 0,0 0.82374,3.47697 3.74332,5.15796 0,0 1.95545,-0.80751 2.84728,-5.29696 0.21872,0.0116 0.4385,0.0236 0.65969,0.0349 -0.51682,2.63067 -1.33597,4.22064 -2.04576,5.16149 -0.35631,0.0917 -0.73625,0.15205 -1.14194,0.17498 -0.1337,0.007 -0.26494,0.0113 -0.39441,0.0113"
       style="fill:#b5a09b;fill-opacity:1;fill-rule:nonzero;stroke:none;stroke-width:0.0352777"
       id="path1466" />
    <path
       d="m 114.43067,108.48436 c -2.91958,-1.68099 -3.74332,-5.15797 -3.74332,-5.15797 0.18979,-0.031 0.36759,-0.0536 0.54928,-0.0783 -0.0991,0.0145 -0.19968,0.0296 -0.30163,0.0459 0,0 0.7553,3.18241 3.45687,4.72723 0,0 1.82492,-0.73731 2.65888,-4.87045 -0.049,-0.003 -0.0977,-0.005 -0.14675,-0.008 l -2.7e-4,-0.0106 c 0.004,0 0.008,2.6e-4 0.0127,7.9e-4 0.12242,0.006 0.24518,0.013 0.3683,0.0194 -0.002,0.0116 -0.005,0.0233 -0.007,0.0353 -0.89182,4.48945 -2.84727,5.29696 -2.84727,5.29696"
       style="fill:#d95f4e;fill-opacity:1;fill-rule:nonzero;stroke:none;stroke-width:0.0352777"
       id="path1468" />
    <path
       d="m 111.73651,99.727354 0.21414,-1.541285 -0.21379,1.541285 h -2.6e-4"
       style="fill:#dd9f99;fill-opacity:1;fill-rule:nonzero;stroke:none;stroke-width:0.0352777"
       id="path1470" />
    <path
       d="m 111.24862,103.24102 0.48789,-3.513666 h 2.6e-4 l -0.48789,3.513666 h -2.6e-4"
       style="fill:#9b5549;fill-opacity:1;fill-rule:nonzero;stroke:none;stroke-width:0.0352777"
       id="path1472" />
    <path
       d="m 111.24791,103.24631 8e-4,-0.005 h 2.6e-4 l -7.9e-4,0.005 c -2.7e-4,0 -2.7e-4,0 -2.7e-4,0"
       style="fill:#d95f4e;fill-opacity:1;fill-rule:nonzero;stroke:none;stroke-width:0.0352777"
       id="path1474" />
    <path
       d="m 114.39187,108.02116 c -2.70157,-1.54481 -3.45687,-4.72722 -3.45687,-4.72722 0.10195,-0.0162 0.20249,-0.0314 0.30163,-0.0459 0.004,-8e-4 0.007,-0.001 0.0113,-0.002 v 0 c 0,0 0,0 2.6e-4,0 l -0.0437,0.31468 5.71641,-0.0871 -0.0169,-0.33126 c 0.049,0.003 0.0977,0.005 0.14676,0.008 -0.83397,4.13314 -2.65889,4.87045 -2.65889,4.87045"
       style="fill:#dc8661;fill-opacity:1;fill-rule:nonzero;stroke:none;stroke-width:0.0352777"
       id="path1476" />
    <path
       d="m 111.20452,103.56099 0.0438,-0.31468 7.9e-4,-0.005 0.4879,-3.513664 0.21378,-1.541285 4.65913,-0.832908 0.29352,5.778497 h 2.6e-4 v 2.7e-4 l 2.7e-4,0.0106 0.0169,0.33126 -5.71641,0.0871"
       style="fill:#dc8661;fill-opacity:1;fill-rule:nonzero;stroke:none;stroke-width:0.0352777"
       id="path1478" />
    <path
       d="m 115.93562,93.733661 -5.66878,-2.744258 c 0,0 3.95887,-11.167533 8.75418,-6.283325 2.15371,2.192866 2.4638,4.435122 2.11384,6.47206 0.43639,0.600781 0.83044,1.057629 0.80857,1.70815 -0.10089,2.961216 -3.06634,3.678415 -6.42479,6.960306 l 0.41698,-6.112933"
       style="fill:#6a3937;fill-opacity:1;fill-rule:nonzero;stroke:none;stroke-width:0.0352777"
       id="path1480" />
    <path
       d="m 115.88059,94.534819 c -0.26176,-1.675693 0.74507,-2.912533 1.6951,-3.913011 1.75577,-1.851025 3.76237,-2.430286 2.42111,-4.785783 1.39206,1.843969 1.84785,3.725686 1.55751,5.415844 0.43604,0.602192 0.70838,1.241425 0.6858,1.891948 -0.1016,2.961569 -3.36302,3.420886 -6.72147,6.702777 l 0.36195,-5.311775"
       style="fill:#552726;fill-opacity:1;fill-rule:nonzero;stroke:none;stroke-width:0.0352777"
       id="path1482" />
    <path
       d="m 115.06744,101.39458 c 1.18286,-0.80892 1.75824,-6.476644 3.96451,-8.363652 -2.97779,-4.128911 -4.18817,-5.364692 -5.53261,-5.466292 -1.60725,0.119239 -2.71462,2.079272 -3.40854,3.628673 -1.22731,2.741435 -1.08937,9.360601 -0.45931,10.650011 0.41345,0.85125 3.09174,1.15464 5.43595,-0.44874"
       style="fill:#fddba6;fill-opacity:1;fill-rule:nonzero;stroke:none;stroke-width:0.0352777"
       id="path1484" />
    <path
       d="m 120.29525,90.183658 c -0.49918,-1.097491 -4.40372,2.926996 -5.68713,7.749821 l 1.57515,1.246717 c 0,0 5.07789,-6.871758 4.11198,-8.996538"
       style="fill:#552726;fill-opacity:1;fill-rule:nonzero;stroke:none;stroke-width:0.0352777"
       id="path1486" />
    <path
       d="m 115.46149,97.696413 c 0.69885,-1.339144 3.24062,-1.783644 3.14819,-0.03986 -0.0914,1.743778 -4.44818,2.531177 -3.14819,0.03986"
       style="fill:#fddba6;fill-opacity:1;fill-rule:nonzero;stroke:none;stroke-width:0.0352777"
       id="path1488" />
    <path
       d="m 115.84179,97.876684 c 0.45049,-0.865013 2.09091,-1.148292 2.03235,-0.02151 -0.06,1.127832 -2.87055,1.629834 -2.03235,0.02151"
       style="fill:#f89f82;fill-opacity:1;fill-rule:nonzero;stroke:none;stroke-width:0.0352777"
       id="path1490" />
    <path
       d="m 115.507,98.338117 c 0.22401,-0.479073 1.18674,-0.565504 1.21109,0.08396 0.0251,0.650168 -1.62631,0.808214 -1.21109,-0.08396"
       style="fill:#fddba6;fill-opacity:1;fill-rule:nonzero;stroke:none;stroke-width:0.0352777"
       id="path1492" />
    <path
       d="m 111.41054,93.182269 c -1.74907,1.510242 -3.18629,3.777544 -3.18875,3.990623 -0.002,0.212725 2.19674,0.841021 2.19674,0.841021 0,0 1.01424,-4.620684 0.99201,-4.831644"
       style="fill:#fddba6;fill-opacity:1;fill-rule:nonzero;stroke:none;stroke-width:0.0352777"
       id="path1494" />
    <path
       d="m 108.12442,97.140788 c 0.002,-0.213784 1.43157,-2.477204 3.16971,-3.983919 0.003,0.02328 -0.008,0.106185 -0.0303,0.232482 -1.5561,1.499658 -2.76719,3.409595 -2.77001,3.607152 -0.001,0.162276 1.08867,0.635351 1.72261,0.8255 -0.0335,0.153106 -0.0286,0.175683 -0.0286,0.175683 0,0 -2.06481,-0.645583 -2.0634,-0.856898"
       style="fill:#f89f82;fill-opacity:1;fill-rule:nonzero;stroke:none;stroke-width:0.0352777"
       id="path1496" />
    <path
       d="m 114.38764,93.941446 c 0.20496,-0.06668 0.43709,-0.655108 0.26246,-0.819854 -0.17533,-0.166158 -1.52294,-1.925463 -1.86196,-1.841148 -0.33796,0.08502 -0.83044,0.797632 -0.63535,1.057627 0.19614,0.25894 1.91523,1.70674 2.23485,1.603375"
       style="fill:#6a3937;fill-opacity:1;fill-rule:nonzero;stroke:none;stroke-width:0.0352777"
       id="path1498" />
    <path
       d="m 109.84844,90.957653 c -0.0198,-0.180624 0.18521,-0.716139 0.30727,-0.66675 0.12489,0.05362 1.59103,0.1524 1.52153,0.557035 -0.0593,0.353483 -0.53128,1.013531 -0.70202,0.975783 -0.16687,-0.03598 -1.09891,-0.603602 -1.12678,-0.866068"
       style="fill:#6a3937;fill-opacity:1;fill-rule:nonzero;stroke:none;stroke-width:0.0352777"
       id="path1500" />
    <path
       d="m 113.00263,99.093061 -3.46534,-0.636058 c 0,0 0.24095,1.684157 0.79023,1.906767 1.27564,0.51646 2.67511,-1.270709 2.67511,-1.270709"
       style="fill:#603c34;fill-opacity:1;fill-rule:nonzero;stroke:none;stroke-width:0.0352777"
       id="path1502" />
    <path
       d="m 110.0908,99.429963 c -0.13758,-0.42051 -0.20179,-0.865362 -0.20179,-0.865362 l 2.88784,0.529166 c 0,0 -0.29527,0.377471 -0.72355,0.696736 l -1.9625,-0.36054"
       style="fill:#fef4da;fill-opacity:1;fill-rule:nonzero;stroke:none;stroke-width:0.0352777"
       id="path1504" />
    <path
       d="m 112.22758,94.970853 c -0.1972,-0.135467 -0.20673,-0.523169 -0.0215,-0.863952 0.18485,-0.34149 0.49494,-0.508 0.6925,-0.37324 0.19861,0.136173 0.20778,0.52211 0.0229,0.8636 -0.18556,0.34149 -0.49495,0.509058 -0.69392,0.373592"
       style="fill:#553c36;fill-opacity:1;fill-rule:nonzero;stroke:none;stroke-width:0.0352777"
       id="path1506" />
    <path
       d="m 109.98673,93.875478 c -0.20567,-0.12065 -0.24165,-0.50659 -0.0804,-0.859367 0.16334,-0.351719 0.46144,-0.53975 0.66746,-0.418394 0.20602,0.121709 0.24271,0.507294 0.0808,0.860071 -0.16263,0.352779 -0.46038,0.540104 -0.66781,0.41769"
       style="fill:#553c36;fill-opacity:1;fill-rule:nonzero;stroke:none;stroke-width:0.0352777"
       id="path1508" />
    <path
       d="m 101.40541,90.862754 c 0.57574,0.654757 1.72579,-0.599721 3.03989,-0.635704 0.22331,-0.006 0.57009,0.01058 0.91758,0.01552 0.61665,0.0081 1.20261,-0.27693 1.10842,-0.558094 -0.0815,-0.233539 -0.50024,-0.0071 -0.93556,-0.0071 -0.38241,0.0046 -0.514,0.01588 -0.53729,-0.08819 -0.018,-0.07479 0.44662,-0.181681 0.95674,-0.320322 0.65511,-0.179564 1.04528,-0.422981 0.93804,-0.705556 -0.10302,-0.266347 -0.47943,-0.02046 -1.09714,0.07338 -0.53517,0.0822 -0.75565,0.155222 -0.8636,-0.112183 -0.0497,-0.124884 0.28892,-0.227542 0.75953,-0.508 0.55351,-0.324556 0.80468,-0.690034 0.66957,-0.894645 -0.19474,-0.293158 -0.32244,0.07267 -1.01177,0.344311 -0.88688,0.352778 -1.6637,0.8255 -2.27788,0.592314 -0.56974,-0.214841 -0.46038,-1.548341 -0.92111,-1.45168 -0.36512,0.07761 0.11148,1.228372 0.005,2.723091 -0.0476,0.664634 -1.00612,1.241073 -0.75,1.532818"
       style="fill:#83d5c2;fill-opacity:1;fill-rule:nonzero;stroke:none;stroke-width:0.0352777"
       id="path1510" />
    <path
       d="m 77.868081,82.969353 c 0,0 4.223808,-0.435328 6.923616,1.524 l -1.001536,2.046816 -5.704064,-1.872544 -0.218016,-1.698272"
       style="fill:#c3926e;fill-opacity:1;fill-rule:nonzero;stroke:none;stroke-width:0.0352777"
       id="path1512" />
    <path
       d="M 93.848913,103.21703 C 87.341575,102.1594 78.948286,85.449381 85.936814,86.227961 c 4.556124,0.507295 7.822495,13.143442 10.81017,14.378169 1.448504,0.59831 -0.805392,2.95098 -2.898071,2.6109"
       style="fill:#fdfad8;fill-opacity:1;fill-rule:nonzero;stroke:none;stroke-width:0.0352777"
       id="path1514" />
    <path
       d="m 96.957238,100.72889 c -0.637469,0.4064 -1.41746,0.66216 -2.155825,0.54222 -4.79566,-0.77964 -10.517716,-10.233376 -10.398124,-14.840654 -3.98145,1.969558 3.347156,16.142404 9.266062,17.105134 1.972733,0.32032 4.246385,-2.03376 3.287887,-2.8067"
       style="fill:#edd6ad;fill-opacity:1;fill-rule:nonzero;stroke:none;stroke-width:0.0352777"
       id="path1516" />
    <path
       d="m 103.84099,91.516453 c -0.4579,1.362075 -6.407502,13.627807 -10.787944,11.819467 -1.623129,-0.66887 -1.835854,-2.26095 -0.475543,-4.250619 1.36031,-1.988609 8.412337,-9.889068 8.412337,-9.889068 l 2.85115,2.32022"
       style="fill:#fdfad8;fill-opacity:1;fill-rule:nonzero;stroke:none;stroke-width:0.0352777"
       id="path1518" />
    <path
       d="m 72.60252,145.58783 19.968984,-0.68407 c 0,0 -4.528959,-24.1004 -4.189235,-29.81822 0.339725,-5.71818 1.75754,-22.079661 0.427215,-25.967623 -1.330678,-3.888317 -7.626703,-7.383286 -7.829198,-3.151717 -0.202494,4.231217 -5.898091,19.11879 -4.903611,29.02197 0.994481,9.90388 -3.474155,30.59966 -3.474155,30.59966"
       style="fill:#fdfad8;fill-opacity:1;fill-rule:nonzero;stroke:none;stroke-width:0.0352777"
       id="path1520" />
    <path
       d="m 72.138264,145.52952 19.968987,-0.68404 c 0,0 -4.528962,-24.10033 -4.189237,-29.81815 0.340078,-5.71818 1.757539,-22.079659 0.426862,-25.967622 -1.330679,-3.888316 -7.626351,-7.383286 -7.828845,-3.151716 -0.202495,4.231216 -5.898092,19.118788 -4.903611,29.021968 0.99448,9.90388 -3.474156,30.59956 -3.474156,30.59956"
       style="fill:#dbac8e;fill-opacity:1;fill-rule:nonzero;stroke:none;stroke-width:0.0352777"
       id="path1522" />
    <path
       d="m 90.215654,138.41678 -3.259665,-24.91345 -15.785394,-3.04059 -1.326797,9.8365 1.609019,18.49402 1.087614,21.61784 h 1.081264 l 2.913239,-12.89266 0.05644,-8.75838 2.660297,-13.38082 0.671689,0.12982 4.931833,13.26836 1.128536,7.79734 6.423378,13.83634 h 0.927806 l -3.119259,-21.99432"
       style="fill:#474152;fill-opacity:1;fill-rule:nonzero;stroke:none;stroke-width:0.0352777"
       id="path1524" />
    <path
       d="m 74.979889,115.46795 -1.161344,12.13372 -1.2192,-12.7726 z"
       style="fill:#312d3a;fill-opacity:1;fill-rule:nonzero;stroke:none;stroke-width:0.0352777"
       id="path1526" />
    <path
       d="m 71.330403,137.38462 0.122414,1.40864 1.087614,21.61784 h 1.081264 l 2.913239,-12.89266 0.05503,-8.5248 c -1.862311,-0.36587 -3.625494,-0.91229 -5.259561,-1.60902"
       style="fill:#3e3847;fill-opacity:1;fill-rule:nonzero;stroke:none;stroke-width:0.0352777"
       id="path1528" />
    <path
       d="m 90.212479,138.39279 c -1.666168,0.49113 -3.431115,0.83291 -5.267676,1.00584 l 1.03893,7.17613 6.423378,13.83634 h 0.927806 l -3.119263,-21.99432 -0.0032,-0.024"
       style="fill:#3e3847;fill-opacity:1;fill-rule:nonzero;stroke:none;stroke-width:0.0352777"
       id="path1530" />
    <path
       d="m 91.642642,148.03851 -1.915938,-0.81277 -0.754943,-8.41844 -4.180064,-21.6559 -11.321344,-1.33491 v -3.07728 l 13.585472,1.85808 3.309409,23.80365 1.277408,9.63757"
       style="fill:#312d3a;fill-opacity:1;fill-rule:nonzero;stroke:none;stroke-width:0.0352777"
       id="path1532" />
    <path
       d="m 72.846642,138.79326 -1.609372,-18.49402 1.291519,-9.57439 -1.358194,-0.26211 -1.326797,9.8365 1.609019,18.49402 1.087614,21.61784 h 1.081264 l 0.255411,-1.12958 -1.030464,-20.48826"
       style="fill:#312d3a;fill-opacity:1;fill-rule:nonzero;stroke:none;stroke-width:0.0352777"
       id="path1534" />
    <path
       d="m 87.377206,146.57476 -1.128889,-7.79734 -5.694892,-14.02013 -2.206272,-0.17427 0.904522,0.79622 5.603522,13.39818 1.128536,7.79734 6.423378,13.83634 h 0.927806 l -0.204964,-1.4446 -5.752747,-12.39174"
       style="fill:#312d3a;fill-opacity:1;fill-rule:nonzero;stroke:none;stroke-width:0.0352777"
       id="path1536" />
    <path
       d="m 77.185808,123.82807 c 0.638881,0.23178 3.483681,0.87101 5.922081,0.4064 0,0 -2.487083,1.35996 -3.624086,1.26083 -1.13665,-0.0998 -2.297995,-1.66723 -2.297995,-1.66723"
       style="fill:#312d3a;fill-opacity:1;fill-rule:nonzero;stroke:none;stroke-width:0.0352777"
       id="path1538" />
    <path
       d="m 87.487625,115.49194 c -1.137355,-11.98069 2.634192,-24.484898 -0.16263,-27.980573 -1.952273,-2.44087 -9.606492,-5.964061 -12.852048,-2.44087 -3.244497,3.523192 -3.681941,15.753643 -3.584222,17.407113 0.141111,2.38689 -1.087966,10.63978 -0.795866,10.97562 0.987777,1.13595 17.534819,3.51402 17.394766,2.03871"
       style="fill:#a168bf;fill-opacity:1;fill-rule:nonzero;stroke:none;stroke-width:0.0352777"
       id="path1540" />
    <path
       d="m 74.921681,114.82871 c 0.174272,-3.01907 3.841044,-15.985768 4.29648,-20.436414 0.522464,-5.109279 0.516114,-10.703277 0.516114,-10.703277 l -1.909586,0.252942 -4.586464,30.712829 1.683456,0.17392"
       style="fill:#7b1fa2;fill-opacity:1;fill-rule:nonzero;stroke:none;stroke-width:0.0352777"
       id="path1542" />
    <path
       d="m 87.324995,87.511367 c -0.452262,-0.565856 -1.213203,-1.188509 -2.151945,-1.769534 4.147254,3.599392 -1.45415,17.616307 -0.356305,29.254447 0.08784,0.93169 -6.390923,0.33655 -11.476214,-0.51823 5.083527,1.07209 14.251516,2.11349 14.147094,1.01389 -1.137355,-11.98069 2.634192,-24.484898 -0.16263,-27.980573"
       style="fill:#7b1fa2;fill-opacity:1;fill-rule:nonzero;stroke:none;stroke-width:0.0352777"
       id="path1544" />
    <path
       d="m 72.773617,149.43159 1.973792,-0.63845 -0.928864,-5.92184 -1.335264,0.81291 0.290336,5.74738"
       style="fill:#312d3a;fill-opacity:1;fill-rule:nonzero;stroke:none;stroke-width:0.0352777"
       id="path1546" />
    <path
       d="m 69.34885,148.10867 5.688895,0.13268 c 0,0 -1.906764,-30.39039 -0.686506,-36.49133 1.219906,-6.10023 5.856464,-24.646112 5.12445,-28.794073 0,0 -6.8326,-0.853722 -7.686675,3.660775 -0.854075,4.514145 -2.549172,16.079258 -3.079397,26.644958 -0.530578,10.56675 0.639233,34.84699 0.639233,34.84699"
       style="fill:#fdfad8;fill-opacity:1;fill-rule:nonzero;stroke:none;stroke-width:0.0352777"
       id="path1548" />
    <path
       d="m 72.336525,112.81859 c 0.353836,-10.94105 2.636309,-23.160923 3.490736,-27.851457 0.150284,-0.825147 -3.54083,-0.980369 -4.038247,1.649589 -0.854075,4.514145 -3.129844,16.275408 -3.660422,26.841448 -0.530578,10.56711 1.220258,34.6505 1.220258,34.6505 l 5.104342,0.11932 c -0.3175,-3.2191 -2.444044,-25.27939 -2.116667,-35.4094"
       style="fill:#edd6ad;fill-opacity:1;fill-rule:nonzero;stroke:none;stroke-width:0.0352777"
       id="path1550" />
    <path
       d="m 62.538123,98.806604 c -2.104672,-1.909233 5.178072,-14.19754 12.727869,-15.625584 5.377039,-1.018823 2.492375,5.19818 -0.866775,7.844366 -1.915936,1.509535 -4.8768,3.192992 -6.985,8.1153 -0.600075,1.400524 -2.961217,1.402644 -4.876094,-0.334082"
       style="fill:#fdfad8;fill-opacity:1;fill-rule:nonzero;stroke:none;stroke-width:0.0352777"
       id="path1552" />
    <path
       d="m 66.933734,112.19523 c -0.831497,0.26387 -0.144992,1.82104 -0.64135,3.03847 -0.08431,0.20673 -0.238831,0.51753 -0.383117,0.83326 -0.255764,0.56163 -0.230011,1.2125 0.06562,1.23966 0.246239,0.0187 0.207081,-0.45578 0.382411,-0.85372 0.149578,-0.35172 0.191911,-0.47731 0.296686,-0.45685 0.0762,0.0141 -0.01305,0.48225 -0.09137,1.00507 -0.09948,0.67169 -0.03281,1.12642 0.268464,1.14229 0.285045,0.0127 0.211667,-0.43039 0.374297,-1.03399 0.140053,-0.52282 0.162278,-0.75388 0.450498,-0.74542 0.133702,0.005 0.09137,0.35595 0.159102,0.89959 0.07444,0.63711 0.307623,1.01458 0.549628,0.9726 0.347133,-0.0603 0.0635,-0.32385 0.09172,-1.06433 0.03387,-0.95391 -0.08643,-1.8549 0.37465,-2.32339 0.426156,-0.43533 1.602317,0.20108 1.698978,-0.25929 0.07549,-0.36583 -1.169106,-0.39194 -2.494845,-1.09079 -0.589492,-0.3108 -0.730956,-1.42029 -1.101372,-1.30316"
       style="fill:#83d5c2;fill-opacity:1;fill-rule:nonzero;stroke:none;stroke-width:0.0352777"
       id="path1554" />
    <path
       d="m 67.414217,99.140686 c 0.397581,-2.478617 -3.604683,-4.822825 -4.742744,-3.180644 -2.479675,3.577871 1.420283,17.332328 2.36608,18.393128 l 3.9624,-1.32398 c 0,0 -1.847497,-12.25973 -1.585736,-13.888504"
       style="fill:#fdfad8;fill-opacity:1;fill-rule:nonzero;stroke:none;stroke-width:0.0352777"
       id="path1556" />
    <path
       d="m 79.973106,84.174089 2.652889,-5.334 4.044244,3.239911 -0.682272,4.268611 c 0,0 -2.2733,1.811161 -6.014861,-2.174522"
       style="fill:#fddba6;fill-opacity:1;fill-rule:nonzero;stroke:none;stroke-width:0.0352777"
       id="path1558" />
    <path
       d="m 91.946384,161.07118 h 4.020608 c 0,0 -2.327275,-1.55967 -3.315054,-1.07956 -0.988129,0.47942 -0.705554,1.07956 -0.705554,1.07956"
       style="fill:#e9eeb5;fill-opacity:1;fill-rule:nonzero;stroke:none;stroke-width:0.0352777"
       id="path1560" />
    <path
       d="m 73.931434,161.07118 -2.948164,-0.001 c 0,0 1.707444,-1.55856 2.429933,-1.07846 0.724958,0.47942 0.518231,1.07956 0.518231,1.07956"
       style="fill:#e9eeb5;fill-opacity:1;fill-rule:nonzero;stroke:none;stroke-width:0.0352777"
       id="path1562" />
    <path
       d="m 91.178034,146.64532 1.916287,-1.85801 c 0,0 -4.64467,-27.40343 -4.761087,-28.44871 l 2.8448,30.30672"
       style="fill:#fdfad8;fill-opacity:1;fill-rule:nonzero;stroke:none;stroke-width:0.0352777"
       id="path1564" />
    <path
       d="m 102.77208,90.631686 c -2.75167,5.664552 -7.194909,12.839704 -11.777138,8.512881 -0.435681,1.316213 0.551392,3.671363 1.746954,4.219573 4.808008,2.20451 10.641194,-10.485612 11.099094,-11.847687 l -1.06891,-0.884767"
       style="fill:#edd6ad;fill-opacity:1;fill-rule:nonzero;stroke:none;stroke-width:0.0352777"
       id="path1566" />
    <path
       d="m 83.921042,88.702697 -3.947936,-4.528608 6.014861,2.174522 -2.066925,2.354086"
       style="fill:#fddba6;fill-opacity:1;fill-rule:nonzero;stroke:none;stroke-width:0.0352777"
       id="path1568" />
    <path
       d="m 78.811761,116.04827 -0.522464,6.67702 h 0.638528 l 0.754592,-6.67702 h -0.870656"
       style="fill:#312d3a;fill-opacity:1;fill-rule:nonzero;stroke:none;stroke-width:0.0352777"
       id="path1570" />
    <path
       d="m 81.511217,116.42856 -2.038703,-0.20002 -0.100189,1.02799 2.039056,0.20038 0.09984,-1.02835"
       style="fill:#8a8299;fill-opacity:1;fill-rule:nonzero;stroke:none;stroke-width:0.0352777"
       id="path1572" />
    <path
       d="m 63.61092,96.461338 c 0.785989,-3.669594 5.347758,-10.55511 10.567811,-12.99986 -5.680428,1.835503 -10.953397,9.306983 -11.86568,13.20306 -1.686984,4.392442 1.831974,16.687802 2.724502,17.688632 l 1.476022,-0.49354 C 65.398798,111.90807 62.087626,100.66539 63.61092,96.461338"
       style="fill:#edd6ad;fill-opacity:1;fill-rule:nonzero;stroke:none;stroke-width:0.0352777"
       id="path1574" />
    <path
       d="m 80.177011,83.763808 c -0.147461,-0.02787 -0.295628,-0.05292 -0.442736,-0.07479 v 0 h -3.44e-4 c -0.06279,-0.0092 -0.125589,-0.01799 -0.188383,-0.02611 -0.01129,-0.267758 -0.03422,-0.504825 -0.06985,-0.706967 0,0 -0.08573,-0.01093 -0.239183,-0.02364 0.385233,0.0085 0.830086,0.03422 1.309863,0.0889 l -0.369358,0.742597"
       style="fill:#a95943;fill-opacity:1;fill-rule:nonzero;stroke:none;stroke-width:0.0352777"
       id="path1576" />
    <path
       d="m 83.021811,91.432492 c -1.345141,-2.64e-4 -2.480028,-0.713671 -3.453694,-1.761067 0.168628,-3.311878 0.166158,-5.961592 0.166158,-5.982406 0.147108,0.02187 0.295275,0.04692 0.442736,0.07479 l -0.203905,0.410281 v 0 l 3.947936,4.528608 1.912408,-2.178403 c 0.583495,0.938389 0.837847,2.239434 0.883708,3.809295 -0.872066,0.611715 -2.043288,1.062565 -3.609269,1.097845 -0.02858,7.94e-4 -0.05715,0.0011 -0.08608,0.0011 m -3.474506,-7.718821 c -3.44e-4,-0.01729 -0.0011,-0.03387 -0.0018,-0.0508 0.0628,0.0081 0.125589,0.01693 0.188384,0.02611 l -0.18662,0.02469"
       style="fill:#713b8e;fill-opacity:1;fill-rule:nonzero;stroke:none;stroke-width:0.0352777"
       id="path1578" />
    <path
       d="m 79.568117,89.671425 c -0.178859,-0.192617 -0.352072,-0.395817 -0.519995,-0.608542 0.345017,-2.229202 0.543631,-4.110566 0.499181,-5.349169 l 0.186619,-0.02469 h 3.44e-4 v 0 c 0,0.02081 0.0025,2.670528 -0.166158,5.982405"
       style="fill:#430e60;fill-opacity:1;fill-rule:nonzero;stroke:none;stroke-width:0.0352777"
       id="path1580" />
    <path
       d="m 86.117436,85.538281 v 0 L 86.670239,82.08 86.117436,85.538281"
       style="fill:#dd9f99;fill-opacity:1;fill-rule:nonzero;stroke:none;stroke-width:0.0352777"
       id="path1582" />
    <path
       d="m 88.234103,88.764786 c -0.43815,-1.074914 -1.238956,-2.104672 -2.163939,-2.931936 l 0.04727,-0.294569 v 0 3.44e-4 c 0.959909,0.766233 1.824214,1.761419 2.36361,2.82328 -0.07443,0.131586 -0.156279,0.2667 -0.246943,0.402872"
       style="fill:#dc9c7e;fill-opacity:1;fill-rule:nonzero;stroke:none;stroke-width:0.0352777"
       id="path1584" />
    <path
       d="m 88.041133,89.039247 c -0.1651,-0.616655 -0.398286,-1.1303 -0.716138,-1.52788 v 0 c -0.0025,-0.0032 -0.0053,-0.0067 -0.0078,-0.0099 -3.44e-4,0 -3.44e-4,-3.44e-4 -3.44e-4,-3.44e-4 -0.01623,-0.01976 -0.03245,-0.03986 -0.04939,-0.05997 v 0 c -0.0049,-0.006 -0.01023,-0.01235 -0.01552,-0.01834 -0.0011,-0.0011 -0.0018,-0.0025 -0.0028,-0.0035 -0.0011,-0.0014 -0.0025,-0.0028 -0.0035,-0.0039 -0.307269,-0.361597 -0.734483,-0.744009 -1.249186,-1.121834 l 0.07373,-0.460727 c 0.924983,0.827264 1.725789,1.857022 2.163939,2.931936 -0.06068,0.09102 -0.124884,0.182739 -0.19297,0.274461"
       style="fill:#bf6955;fill-opacity:1;fill-rule:nonzero;stroke:none;stroke-width:0.0352777"
       id="path1586" />
    <path
       d="m 87.317233,87.501489 c -3.44e-4,0 -3.44e-4,-3.44e-4 -3.44e-4,-3.44e-4 0,0 0,3.44e-4 3.44e-4,3.44e-4 m -0.04974,-0.06032 v 0 0 m -0.01552,-0.01834 c -0.0011,-0.0011 -0.0018,-0.0025 -0.0028,-0.0035 0.0011,0.0011 0.0018,0.0025 0.0028,0.0035 m -0.0064,-0.0074 C 86.938304,87.054185 86.51109,86.672479 85.996387,86.29536 v -0.0018 c 0.514703,0.377825 0.941917,0.760236 1.249186,1.121833"
       style="fill:#dc7122;fill-opacity:1;fill-rule:nonzero;stroke:none;stroke-width:0.0352777"
       id="path1588" />
    <path
       d="m 86.717158,90.333589 c -0.04586,-1.569861 -0.300213,-2.870906 -0.883708,-3.809295 l 0.154517,-0.175683 v 0 l 0.0085,-0.05327 c 0.514703,0.377119 0.941917,0.758825 1.249187,1.120069 0.0011,0.0011 0.0025,0.0025 0.0035,0.0039 0.0011,0.0011 0.0018,0.0025 0.0028,0.0035 0.0053,0.006 0.01058,0.01235 0.01552,0.01834 v 0 c 0.01693,0.02011 0.03316,0.04022 0.04939,0.05997 0,0 0,3.44e-4 3.44e-4,3.44e-4 0.0025,0.0032 0.0053,0.0067 0.0078,0.0099 v 0 c 0.317852,0.397581 0.551038,0.911225 0.716138,1.527881 -0.336902,0.452614 -0.770113,0.905933 -1.323974,1.294341"
       style="fill:#430e60;fill-opacity:1;fill-rule:nonzero;stroke:none;stroke-width:0.0352777"
       id="path1590" />
    <path
       d="m 79.048122,89.062883 c -0.510822,-0.64523 -0.974372,-1.373011 -1.399116,-2.117372 0.968727,-2.029883 0.929922,-3.875969 -1.314803,-3.875969 -0.09878,0 -0.202142,0.0035 -0.309739,0.01093 0.795867,-0.147814 1.565628,-0.188736 2.175581,-0.188736 0.449086,0 0.811388,0.02222 1.032933,0.04057 0.0011,0 0.0025,0 0.0035,0 0.153458,0.0127 0.239183,0.02364 0.239183,0.02364 0.03563,0.202141 0.05856,0.439208 0.06985,0.706966 7.15e-4,0.01693 0.0014,0.03351 0.0018,0.0508 0.04445,1.238603 -0.154164,3.119967 -0.499181,5.34917"
       style="fill:#dc9c7e;fill-opacity:1;fill-rule:nonzero;stroke:none;stroke-width:0.0352777"
       id="path1592" />
    <path
       d="m 77.649006,86.945511 c -0.771525,-1.352197 -1.414992,-2.758722 -1.981553,-3.826228 0.109361,-0.01376 0.216253,-0.02434 0.319264,-0.03175 0.0127,-0.0025 0.02505,-0.0049 0.03775,-0.0071 0.107597,-0.0074 0.210961,-0.01093 0.309739,-0.01093 2.244725,0 2.28353,1.846086 1.314803,3.875969"
       style="fill:#dc9c7e;fill-opacity:1;fill-rule:nonzero;stroke:none;stroke-width:0.0352777"
       id="path1594" />
    <path
       d="m 85.987967,86.348611 -6.014861,-2.174522 v 0 l 0.203905,-0.410281 0.369359,-0.742597 v 0 l 2.079625,-4.181122 4.044244,3.239911 -0.552803,3.458281 -0.04727,0.294569 -0.07373,0.460728 v 0.0018 l -0.0085,0.05327 v 0"
       style="fill:#dc8661;fill-opacity:1;fill-rule:nonzero;stroke:none;stroke-width:0.0352777"
       id="path1596" />
    <path
       d="m 83.921042,88.702697 -3.947936,-4.528608 6.014861,2.174522 -0.154517,0.175683 -1.912408,2.178403"
       style="fill:#dc8661;fill-opacity:1;fill-rule:nonzero;stroke:none;stroke-width:0.0352777"
       id="path1598" />
    <path
       d="m 85.215736,66.382801 c 2.823634,-1.273528 6.499225,0.167922 9.087202,3.199694 0,0 2.807758,0.780697 2.485321,3.277306 -0.321381,2.496255 -1.290815,2.940402 -3.298473,2.696985 l -11.826169,6.366228 c 0.639939,-5.290255 0.728839,-14.26598 3.552119,-15.540213"
       style="fill:#924937;fill-opacity:1;fill-rule:nonzero;stroke:none;stroke-width:0.0352777"
       id="path1600" />
    <path
       d="m 85.117311,66.437129 c -0.05785,0.09207 -0.116416,0.183091 -0.162278,0.281869 -1.046338,2.258836 2.968625,2.75837 6.913738,4.586464 1.938867,0.89923 2.234142,4.082344 3.853392,3.960988 -0.529167,0.36195 -1.256946,0.408517 -2.232377,0.290336 l -11.826169,6.366228 c 0.63253,-5.226403 0.729191,-14.045141 3.453694,-15.485885"
       style="fill:#763327;fill-opacity:1;fill-rule:nonzero;stroke:none;stroke-width:0.0352777"
       id="path1602" />
    <path
       d="m 88.235867,86.111544 c -0.45085,0.375709 -6.636809,-2.631369 -6.686197,-4.011436 -0.04833,-1.381125 2.56928,-6.672085 3.022952,-7.528277 0.455084,-0.856191 5.909381,-3.709811 6.937374,-3.57258 1.026232,0.136172 2.470505,0.611716 2.692755,1.248128 0.221191,0.636411 0.587727,2.695927 -0.902759,5.786966 -0.872773,1.810455 -4.689829,7.764991 -5.064125,8.077199"
       style="fill:#fddba6;fill-opacity:1;fill-rule:nonzero;stroke:none;stroke-width:0.0352777"
       id="path1604" />
    <path
       d="m 82.554733,79.793647 1.1176,0.808214 c 0,0 5.612343,-8.888588 2.79012,-10.972799 l -3.10762,5.589411 -0.8001,4.575174"
       style="fill:#763327;fill-opacity:1;fill-rule:nonzero;stroke:none;stroke-width:0.0352777"
       id="path1606" />
    <path
       d="m 83.383056,79.5781 c 0.444147,-1.514828 0.254,-3.34398 -0.785636,-3.244497 -0.98672,0.0956 -2.055284,1.307747 -1.831975,2.075392 0.230011,0.794102 1.893005,3.633963 2.617611,1.169105"
       style="fill:#fddba6;fill-opacity:1;fill-rule:nonzero;stroke:none;stroke-width:0.0352777"
       id="path1608" />
    <path
       d="m 83.009464,79.338211 c 0.268111,-0.913694 0.153811,-2.017536 -0.473781,-1.957211 -0.596194,0.0575 -1.240366,0.788811 -1.106311,1.252009 0.1397,0.479425 1.143,2.192513 1.580092,0.705202"
       style="fill:#f07c61;fill-opacity:1;fill-rule:nonzero;stroke:none;stroke-width:0.0352777"
       id="path1610" />
    <path
       d="m 82.951256,79.659592 c 0.156986,-0.533753 0.0896,-1.178278 -0.276578,-1.143 -0.348192,0.03316 -0.724606,0.460375 -0.645936,0.730603 0.08079,0.280811 0.66675,1.280583 0.922514,0.412397"
       style="fill:#fddba6;fill-opacity:1;fill-rule:nonzero;stroke:none;stroke-width:0.0352777"
       id="path1612" />
    <path
       d="m 92.500244,79.329392 c 0.583142,0.285397 1.178277,-0.307622 0.970492,-0.722842 -0.207433,-0.416278 -0.89394,-1.613253 -1.483783,-1.550458 -0.589492,0.06385 -0.911577,1.018469 -0.857602,1.246364 0.05433,0.227894 1.17475,0.93098 1.370893,1.026936"
       style="fill:#924937;fill-opacity:1;fill-rule:nonzero;stroke:none;stroke-width:0.0352777"
       id="path1614" />
    <path
       d="m 88.175189,76.930503 c -0.679097,-0.357011 -0.551744,-1.087967 -0.0187,-1.091494 0.533753,-0.0035 2.13113,0.05927 2.491318,0.567266 0.360537,0.506942 -0.295275,1.166989 -0.545396,1.217084 -0.250119,0.05045 -1.698977,-0.572206 -1.927225,-0.692856"
       style="fill:#924937;fill-opacity:1;fill-rule:nonzero;stroke:none;stroke-width:0.0352777"
       id="path1616" />
    <path
       d="m 90.280919,78.573389 c 0,0 -0.673806,4.243211 -0.92851,4.162425 -0.254706,-0.08043 -1.718381,-1.2446 -1.718381,-1.2446 l 2.646891,-2.917825"
       style="fill:#fddba6;fill-opacity:1;fill-rule:nonzero;stroke:none;stroke-width:0.0352777"
       id="path1618" />
    <path
       d="m 89.319953,82.595761 c 0.203906,0.06526 0.676626,-2.645127 0.856191,-3.724627 l 0.157692,-0.17392 c 0,0 -0.6731,4.243564 -0.927807,4.162425 -0.254703,-0.07938 -1.718026,-1.243542 -1.718026,-1.243542 l 0.104069,-0.1143 c 0.40252,0.315736 1.32962,1.031523 1.527881,1.093964"
       style="fill:#f89f82;fill-opacity:1;fill-rule:nonzero;stroke:none;stroke-width:0.0352777"
       id="path1620" />
    <path
       d="m 86.36932,81.135614 c -0.0035,-0.09454 -0.08537,-0.168628 -0.183092,-0.165453 -0.09772,0.0035 -0.174978,0.08255 -0.171803,0.177095 0.0032,0.09419 0.08502,0.167922 0.183092,0.1651 0.09772,-0.0032 0.174625,-0.08255 0.171803,-0.176742"
       style="fill:#4a2b23;fill-opacity:1;fill-rule:nonzero;stroke:none;stroke-width:0.0352777"
       id="path1622" />
    <path
       d="m 88.587938,83.003572 -2.431696,-1.848555 c 0,0 -0.88265,1.259064 -0.502003,1.75895 0.379942,0.49918 1.725083,1.19768 1.942394,1.148644 0.217312,-0.04798 0.991305,-1.059039 0.991305,-1.059039"
       style="fill:#4a2b23;fill-opacity:1;fill-rule:nonzero;stroke:none;stroke-width:0.0352777"
       id="path1624" />
    <path
       d="m 85.736436,82.324475 c 0.202847,-0.369711 0.477661,-0.995186 0.477661,-0.995186 l 2.262012,1.665111 c 0,0 -0.327026,0.425097 -0.605367,0.721431 l -2.134306,-1.391356"
       style="fill:#fef7e0;fill-opacity:1;fill-rule:nonzero;stroke:none;stroke-width:0.0352777"
       id="path1626" />
    <path
       d="m 88.283845,77.947561 c 0.182384,-0.337608 0.492476,-0.525991 0.691443,-0.420158 0.198263,0.104422 0.210963,0.463197 0.02717,0.799747 -0.183444,0.336903 -0.492832,0.525639 -0.69215,0.420864 -0.198261,-0.104775 -0.210608,-0.46355 -0.02646,-0.800453"
       style="fill:#3d2724;fill-opacity:1;fill-rule:nonzero;stroke:none;stroke-width:0.0352777"
       id="path1628" />
    <path
       d="m 90.779394,79.341034 c 0.206375,-0.32385 0.529873,-0.492478 0.72249,-0.377825 0.19191,0.116416 0.180975,0.472369 -0.02646,0.796925 -0.206023,0.323849 -0.530225,0.492124 -0.722138,0.376766 -0.192262,-0.116064 -0.180621,-0.472016 0.02611,-0.795866"
       style="fill:#3d2724;fill-opacity:1;fill-rule:nonzero;stroke:none;stroke-width:0.0352777"
       id="path1630" />
    <path
       d="m 92.149936,70.628834 1.708502,0.475192 c 0.324908,1.241425 0.07091,1.988961 -1.2192,1.746603 0,0 1.164166,-1.114778 -0.489302,-2.221795"
       style="fill:#924937;fill-opacity:1;fill-rule:nonzero;stroke:none;stroke-width:0.0352777"
       id="path1632" />
    <path
       d="m 77.683931,96.460279 -0.0053,-2.64e-4 c 0.01376,-0.06703 0.02752,-0.134408 0.04128,-0.201435 l -0.03598,0.201787"
       style="fill:#d9511e;fill-opacity:1;fill-rule:nonzero;stroke:none;stroke-width:0.0352777"
       id="path1634" />
    <path
       d="m 77.678639,96.459928 -3.758494,-0.08961 C 74.090536,95.19451 74.264103,94.0628 74.4352,92.98965 l 3.7084,0.884414 -0.423686,2.384425 c -0.01376,0.06703 -0.02752,0.134409 -0.04128,0.201436"
       style="fill:#dc9c7e;fill-opacity:1;fill-rule:nonzero;stroke:none;stroke-width:0.0352777"
       id="path1636" />
    <path
       d="m 73.920145,96.370321 -0.661811,-0.01588 0.754944,-3.465335 0.421922,0.100542 c -0.171097,1.07315 -0.344664,2.20486 -0.515055,3.380668"
       style="fill:#cc8466;fill-opacity:1;fill-rule:nonzero;stroke:none;stroke-width:0.0352777"
       id="path1638" />
    <path
       d="m 76.896178,93.341371 -0.902758,-0.151342 0.479425,-1.745543 0.902758,0.1524 -0.479425,1.744485"
       style="fill:#dc9c7e;fill-opacity:1;fill-rule:nonzero;stroke:none;stroke-width:0.0352777"
       id="path1640" />
    <path
       d="m 76.63865,91.204596 0.668867,0.103365 -0.190853,1.236485 -0.668867,-0.104068 0.190853,-1.235782"
       style="fill:#f3e7b9;fill-opacity:1;fill-rule:nonzero;stroke:none;stroke-width:0.0352777"
       id="path1642" />
    <path
       d="m 79.088339,93.389351 -0.402167,2.589741 -5.063066,-0.15875 0.696736,-3.469923 4.768497,1.038932"
       style="fill:#f3e7b9;fill-opacity:1;fill-rule:nonzero;stroke:none;stroke-width:0.0352777"
       id="path1644" />
    <path
       d="m 74.594656,92.687321 1.415697,0.402873 -0.389114,1.78294 -1.463322,0.04268 0.436739,-2.228498"
       style="fill:#dfc885;fill-opacity:1;fill-rule:nonzero;stroke:none;stroke-width:0.0352777"
       id="path1646" />
  </g>
</svg>
