<?xml version="1.0" encoding="UTF-8" standalone="no"?>
<svg
   xmlns:dc="http://purl.org/dc/elements/1.1/"
   xmlns:cc="http://creativecommons.org/ns#"
   xmlns:rdf="http://www.w3.org/1999/02/22-rdf-syntax-ns#"
   xmlns:svg="http://www.w3.org/2000/svg"
   xmlns="http://www.w3.org/2000/svg"
   xmlns:sodipodi="http://sodipodi.sourceforge.net/DTD/sodipodi-0.dtd"
   xmlns:inkscape="http://www.inkscape.org/namespaces/inkscape"
   inkscape:version="1.0 (4035a4fb49, 2020-05-01)"
   sodipodi:docname="logo - Copy.svg"
   id="svg23"
   viewBox="0 0 5380.038 6488.5226"
   style="clip-rule:evenodd;fill-rule:evenodd;image-rendering:optimizeQuality;shape-rendering:geometricPrecision;text-rendering:geometricPrecision"
   version="1.1"
   height="43.067879"
   width="30.759302"
   xml:space="preserve"
   class="logo_fair"><metadata
   id="metadata27"><rdf:RDF><cc:Work
       rdf:about=""><dc:format>image/svg+xml</dc:format><dc:type
         rdf:resource="http://purl.org/dc/dcmitype/StillImage" /><dc:title /></cc:Work></rdf:RDF></metadata><sodipodi:namedview
   inkscape:current-layer="Capa_x0020_1"
   inkscape:window-maximized="1"
   inkscape:window-y="-8"
   inkscape:window-x="-8"
   inkscape:cy="20.195356"
   inkscape:cx="-10.93027"
   inkscape:zoom="7.6688536"
   showgrid="false"
   id="namedview25"
   inkscape:window-height="705"
   inkscape:window-width="1366"
   inkscape:pageshadow="2"
   inkscape:pageopacity="0"
   guidetolerance="10"
   gridtolerance="10"
   objecttolerance="10"
   borderopacity="1"
   bordercolor="#666666"
   pagecolor="#ffffff"
   inkscape:document-rotation="0" />
          <defs
   id="defs4">
            <style
   id="style2"
   type="text/css">
            <![CDATA[
              .str0 {stroke:#10846F;stroke-width:150;stroke-miterlimit:22.9256}
              .fil2 {fill:none}
              .fil3 {fill:white}
              .fil1 {fill:#713C8F;fill-rule:nonzero}
              .fil0 {fill:#713C8F}
              .fil4 {fill:#10846F}
            ]]>
            </style>
          </defs>
          <g
   transform="translate(-1719.73,-6468.966)"
   id="Capa_x0020_1">
            <metadata
   id="CorelCorpID_0Corel-Layer" />
            
            
            <path
   id="path11"
   d="m 1724.24,8238.06 -4.51,2691.51 c 67.29,1459.47 1104.09,2538.9 2470.19,2550.03 1327.14,10.82 2426.05,-1099.24 2482.49,-2504.73 1.3,-520.66 -589.05,-519.06 -591.61,-6.68 -66.14,1056.35 -887.81,1886.18 -1889.3,1878.02 -1001.46,-8.16 -1818.96,-851.35 -1879.81,-1908.73 l 6.75,-2694.58 c 1.34,-534.75 -593.27,-539.28 -594.2,-4.84 z m 2481.7,-25.44 -3.06,1251.94 c -1.34,534.12 590.29,539.57 591.63,4.82 l 4.36,-1248.19 c -5.4,-375.08 290.15,-682.23 636.51,-679.4 343.6,2.8 632.77,307.64 631.84,677.4 -1.34,534.26 602.41,539.56 594.2,4.84 -11,-720.06 -545.29,-1312.46 -1224.41,-1317.99 -678.07,-5.53 -1229.25,579.46 -1231.07,1306.58 z m -880.03,-1867.59 -7.77,3098.67 c -1.34,534.54 674.84,540.26 676.18,5.51 l 7.77,-3098.67 c 1.34,-534.77 -674.84,-540.07 -676.18,-5.51 z m -807.06,876.02 -7.77,3098.69 c -1.34,534.54 662.17,540.15 663.51,5.41 l 7.77,-3098.69 c 1.34,-534.75 -662.17,-539.95 -663.51,-5.41 z"
   class="fil0" />
            <g
   id="g16">
            <path
   sodipodi:nodetypes="cccssccccccsccsscccsccssscccccscscccccsscc"
   id="path13"
   d="m 6154.09,10393.65 c -42.14,-49.77 -74.47,-114.44 -98.33,-177.44 -23.87,-63 -39.25,-124.35 -48.06,-214.03 -8.82,-89.68 -11.05,-207.7 -30.97,-310.53 -19.92,-102.82 -57.53,-190.45 -108.01,-300.98 -50.48,-110.53 -113.83,-243.96 -112.89,-347.31 0.95,-103.34 66.17,-176.6 124.74,-210.38 58.55,-33.78 110.44,-28.1 162.82,-20.48 52.38,7.61 105.26,17.16 183.48,-4.88 78.21,-22.03 181.77,-75.64 259.53,-88.11 77.75,-12.46 129.72,16.22 162.97,35.41 33.26,19.19 47.81,28.89 21.92,41.63 -25.89,12.74 -92.22,28.53 -77.83,22.37 14.4,-6.16 109.5,-34.25 183.13,-39.2 73.63,-4.96 125.77,13.21 170.8,66.37 45.02,53.15 82.91,141.29 76.63,231.99 -6.28,90.7 -56.74,183.97 -90.31,257.76 -33.56,73.79 -50.22,128.09 -66.71,207.59 -16.48,79.51 -32.79,184.2 -47,278.61 -14.22,94.39 -26.33,178.49 -41.01,246.66 -14.68,68.17 -31.92,120.43 -56.49,171.19 -24.57,50.75 -56.47,100 -86.41,127.49 -10.8013,9.914 -21.3461,16.995 -31.6914,21.684 -2.9835,1.352 -5.9504,2.505 -8.9021,3.47 -15.1835,4.962 -29.9639,4.936 -44.5265,1.356 -27.21,-6.69 -53.65,-25.78 -65.53,-64.21 -11.87,-38.43 -9.19,-96.18 -7.04,-163.86 2.14,-67.67 3.76,-145.27 6.19,-197.81 2.42,-52.55 5.66,-80.03 1.61,-105.89 -4.04,-25.87 -15.35,-50.12 -20.99,-62.81 -5.63,-12.7 -5.59,-13.84 8.96,-19.5 14.55,-5.66 43.61,-15.83 71.87,-12.84 28.27,3 55.76,19.16 56.57,19.16 0.8,0 -25.07,-16.16 -55.78,-18.59 -30.72,-2.42 -66.29,8.89 -92.55,26.41 -26.27,17.51 -43.25,41.22 -57.19,72.03 -13.95,30.81 -24.86,68.71 -31.89,113.49 -7.02,44.78 -10.16,96.45 -5.91,156.18 4.24,59.72 15.86,127.51 23.39,180.76 7.53,53.24 10.96,91.94 -3.48,122.31 -14.44,30.37 -46.75,52.4 -88.89,45.99 -42.13,-6.42 -94.07,-41.3 -136.22,-91.06 z"
   class="fil2 str0" />
            <path
   d="m 6154.09,10393.65 c -42.14,-49.77 -74.47,-114.44 -98.33,-177.44 -23.87,-63 -39.25,-124.35 -48.06,-214.03 -8.82,-89.68 -11.05,-207.7 -30.97,-310.53 -19.92,-102.82 -57.53,-190.45 -108.01,-300.98 -50.48,-110.53 -113.83,-243.96 -112.89,-347.31 0.95,-103.34 66.17,-176.6 124.74,-210.38 58.55,-33.78 110.44,-28.1 162.82,-20.48 52.38,7.61 105.26,17.16 183.48,-4.88 78.21,-22.03 181.77,-75.64 259.53,-88.11 77.75,-12.46 129.72,16.22 162.97,35.41 33.26,19.19 47.81,28.89 21.92,41.63 -25.89,12.74 -92.22,28.53 -77.83,22.37 14.4,-6.16 109.5,-34.25 183.13,-39.2 73.63,-4.96 125.77,13.21 170.8,66.37 45.02,53.15 82.91,141.29 76.63,231.99 -6.28,90.7 -56.74,183.97 -90.31,257.76 -33.56,73.79 -50.22,128.09 -66.71,207.59 -16.48,79.51 -32.79,184.2 -47,278.61 -14.22,94.39 -26.33,178.49 -41.01,246.66 -14.68,68.17 -31.92,120.43 -56.49,171.19 -24.57,50.75 -56.47,100 -86.41,127.49 -29.94,27.48 -57.91,33.2 -85.12,26.51 -27.21,-6.69 -53.65,-25.78 -65.53,-64.21 -11.87,-38.43 -9.19,-96.18 -7.04,-163.86 2.14,-67.67 3.76,-145.27 6.19,-197.81 2.42,-52.55 5.66,-80.03 1.61,-105.89 -4.04,-25.87 -15.35,-50.12 -20.99,-62.81 -5.63,-12.7 -5.59,-13.84 8.96,-19.5 14.55,-5.66 43.61,-15.83 71.87,-12.84 28.27,3 55.76,19.16 56.57,19.16 0.8,0 -25.07,-16.16 -55.78,-18.59 -30.72,-2.42 -66.29,8.89 -92.55,26.41 -26.27,17.51 -43.25,41.22 -57.19,72.03 -13.95,30.81 -24.86,68.71 -31.89,113.49 -7.02,44.78 -10.16,96.45 -5.91,156.18 4.24,59.72 15.86,127.51 23.39,180.76 7.53,53.24 10.96,91.94 -3.48,122.31 -14.44,30.37 -46.75,52.4 -88.89,45.99 -42.13,-6.42 -94.07,-41.3 -136.22,-91.06 z"
   class="fil3"
   id="1" />
            </g>
            
            
          </g>
        </svg>
