<svg width="45" height="45" viewBox="0 0 46 46" fill="none" xmlns="http://www.w3.org/2000/svg">
                <g clip-path="url(#clip0)">
                <path d="M0.5 41.2812C0.5 43.6104 2.6596 45.5 5.32143 45.5H40.6786C43.3404 45.5 45.5 43.6104 45.5 41.2812V17.375H0.5V41.2812ZM32.6429 24.0547C32.6429 23.4746 33.1853 23 33.8482 23H37.8661C38.529 23 39.0714 23.4746 39.0714 24.0547V27.5703C39.0714 28.1504 38.529 28.625 37.8661 28.625H33.8482C33.1853 28.625 32.6429 28.1504 32.6429 27.5703V24.0547ZM32.6429 35.3047C32.6429 34.7246 33.1853 34.25 33.8482 34.25H37.8661C38.529 34.25 39.0714 34.7246 39.0714 35.3047V38.8203C39.0714 39.4004 38.529 39.875 37.8661 39.875H33.8482C33.1853 39.875 32.6429 39.4004 32.6429 38.8203V35.3047ZM19.7857 24.0547C19.7857 23.4746 20.3281 23 20.9911 23H25.0089C25.6719 23 26.2143 23.4746 26.2143 24.0547V27.5703C26.2143 28.1504 25.6719 28.625 25.0089 28.625H20.9911C20.3281 28.625 19.7857 28.1504 19.7857 27.5703V24.0547ZM19.7857 35.3047C19.7857 34.7246 20.3281 34.25 20.9911 34.25H25.0089C25.6719 34.25 26.2143 34.7246 26.2143 35.3047V38.8203C26.2143 39.4004 25.6719 39.875 25.0089 39.875H20.9911C20.3281 39.875 19.7857 39.4004 19.7857 38.8203V35.3047ZM6.92857 24.0547C6.92857 23.4746 7.47098 23 8.13393 23H12.1518C12.8147 23 13.3571 23.4746 13.3571 24.0547V27.5703C13.3571 28.1504 12.8147 28.625 12.1518 28.625H8.13393C7.47098 28.625 6.92857 28.1504 6.92857 27.5703V24.0547ZM6.92857 35.3047C6.92857 34.7246 7.47098 34.25 8.13393 34.25H12.1518C12.8147 34.25 13.3571 34.7246 13.3571 35.3047V38.8203C13.3571 39.4004 12.8147 39.875 12.1518 39.875H8.13393C7.47098 39.875 6.92857 39.4004 6.92857 38.8203V35.3047ZM40.6786 6.125H35.8571V1.90625C35.8571 1.13281 35.1339 0.5 34.25 0.5H31.0357C30.1518 0.5 29.4286 1.13281 29.4286 1.90625V6.125H16.5714V1.90625C16.5714 1.13281 15.8482 0.5 14.9643 0.5H11.75C10.8661 0.5 10.1429 1.13281 10.1429 1.90625V6.125H5.32143C2.6596 6.125 0.5 8.01465 0.5 10.3438V14.5625H45.5V10.3438C45.5 8.01465 43.3404 6.125 40.6786 6.125Z" fill="#ffffff" class="fa-primary"></path>
                </g>
                <defs>
                <clipPath id="clip0">
                <rect x="0.5" y="0.5" width="45" height="45" fill="white"></rect>
                </clipPath>
                </defs>
              </svg>