<svg width="45" height="45" viewBox="0 0 56 60" fill="none" xmlns="http://www.w3.org/2000/svg">
                  <path fill-rule="evenodd" clip-rule="evenodd" d="M13.2731 27.8729C13.0091 27.9854 12.871 28.0174 12.5415 28.109L11.9116 28.3261C11.1699 28.6574 11.7572 31.6267 11.6055 32.7727L11.9234 33.4124C13.666 33.539 14.551 33.8 15.431 34.792C15.7814 35.0813 16.3438 35.7763 16.5483 36.3931L17.1749 38.1634C17.481 39.0921 18.6201 41.4899 18.6015 42.3907C18.864 42.6523 18.9032 43.0704 18.9643 43.5375C18.9898 43.7336 19.0254 44.0451 19.0132 44.2436C18.9829 44.7351 19.0524 44.4765 18.8903 44.7678C18.988 45.9544 17.9096 46.6818 16.9963 46.8909C15.9944 47.1201 16.0873 46.7237 16.0462 46.5927C15.4726 46.1831 15.8491 45.6428 16.2458 45.4461C16.5663 45.2872 16.5526 45.3907 16.8892 45.1497C17.0075 45.065 17.1658 44.8968 17.3196 44.7756L17.3293 44.6364C17.5487 42.8647 16.6545 41.9105 16.417 40.4565L15.7129 38.6025C15.2784 37.9907 15.2927 37.1877 14.7972 36.5072C14.5257 36.1344 14.3888 35.9839 14.0816 35.7309C13.7307 35.4422 13.5505 35.421 13.3193 35.1295L11.3821 35.0997C10.9937 35.2821 10.6154 35.3678 10.3085 35.6066C10.138 35.7391 9.99863 35.9106 9.89952 36.0062L9.53321 36.3067C9.44254 36.5217 9.53495 36.4754 9.32703 36.5458L8.99624 37.6239C8.88008 38.5533 9.17868 39.4572 9.04229 40.3244C9.2029 40.6011 9.12833 40.4055 9.19892 40.8561C9.22425 41.0176 9.23382 41.2287 9.24608 41.3957C9.27684 41.8143 9.29101 42.1974 9.30631 42.6129C9.58355 44.2836 9.35123 45.5661 10.4776 46.5026L11.3112 46.547C12.7766 46.4832 12.8939 48.553 10.2319 48.1199C9.65907 47.9909 9.52299 47.9909 9.25372 47.5635C8.85442 47.3409 8.7045 47.1704 8.61799 46.6123C8.11113 46.2159 8.00677 45.1833 7.89905 44.4392C7.82337 43.7164 7.62611 42.9149 7.78959 42.2055C7.57975 41.8662 7.64508 41.8983 7.62484 41.3999L7.35492 37.7589C7.41962 37.1995 7.49307 36.7599 7.75358 36.3757C7.89714 35.5261 8.77047 34.7571 9.3412 34.3685L10.2856 33.7132C10.1313 33.1677 9.99623 32.5148 10.0829 31.9567C9.89138 31.6477 9.94891 31.762 9.91816 31.2859L9.99162 28.8488L9.22536 29.0151L7.27446 29.6535L5.44353 30.4768L5.2509 30.6165C4.27179 31.34 4.05828 31.5358 3.3086 32.3838C3.01001 33.137 2.70727 33.6868 2.4705 34.5224L1.96223 36.4103L1.24776 40.4559C1.17 41.0028 1.18961 41.5558 0.948053 41.9358C1.11344 42.9874 0.763543 44.333 0.7081 45.4455C0.681166 45.9109 0.722916 45.942 0.543343 46.2511C0.685304 46.9362 0.57233 47.8252 0.5 48.5372L0.568831 50.3623C0.795723 50.8091 0.920804 50.7892 1.20378 51.1044C2.05878 51.3756 2.33921 51.3242 3.28965 51.3382H5.31321H5.98767H10.8442H11.3839H13.4074H14.0819H18.9385H19.4781H21.5015H22.1761H27.0327H27.5722H29.5958H30.2704L33.8814 51.3409L33.7962 50.7048C32.8929 49.2907 31.4469 45.9964 33.0025 42.1369C34.2965 38.9265 37.2638 36.8839 39.2403 36.4859C39.312 35.8491 38.9341 34.9616 38.8109 34.2533C38.7333 34.1522 38.0432 32.5305 37.977 32.3315L37.7096 31.9432C37.3331 31.6208 37.0966 31.3808 36.6951 31.0603C36.3299 30.7686 35.9558 30.6106 35.6475 30.361L33.6429 29.523L31.7371 28.8966L30.7683 28.682C30.89 29.3768 31.2251 29.8717 31.1665 30.615C31.4181 30.9503 31.384 31.1465 31.4617 31.6178C31.5353 32.3212 31.7304 33.0304 31.5712 33.7167C31.732 33.9942 31.6953 33.9303 31.7304 34.3776C31.7457 34.5733 31.7401 34.8602 31.7379 35.0618C31.7331 35.5033 31.716 36.0162 31.6574 36.4087L31.4662 38.4331C31.3972 39.0305 31.3263 39.9191 31.0317 40.3176C31.0613 41.0082 30.774 41.8427 30.526 42.4164C30.1126 44.0276 30.0793 42.8987 30.5808 44.2563C31.0682 45.2884 30.6107 46.2982 29.9721 46.746L29.5965 47.0304C28.4643 48.2752 25.6278 46.4295 26.3998 44.5008C26.5359 44.0455 26.53 43.9599 26.8351 43.6274C27.0529 43.3899 27.208 43.2591 27.5532 43.1095C28.6525 42.6218 28.5931 43.3684 28.9825 42.1413C29.1845 41.5052 29.3368 41.0221 29.4836 40.3832C29.564 39.8543 29.691 39.0504 29.9138 38.7062C29.8242 37.8321 30.0981 36.564 30.1294 35.6066C30.1641 34.5354 30.1085 33.4117 29.9598 32.3647L29.6141 30.4768C29.4638 29.8328 29.269 29.2123 29.0282 28.6408C28.7019 27.8657 28.4229 28.0204 27.5722 27.77L26.638 27.4848L26.3581 28.2956C26.2062 29.1495 25.1297 31.8903 24.7827 32.3838C24.2733 33.7848 23.3766 35.108 22.7157 36.2755C22.4749 35.9106 22.3933 35.0768 22.3293 34.5224L21.948 32.2291L22.4132 30.8748L22.1782 30.5701C21.7373 30.2675 21.6715 30.1665 21.2734 29.8239L20.6921 29.4388C20.3913 29.6042 20.1284 29.9019 19.7479 30.0818C19.4659 30.4054 19.6712 30.2608 19.2767 30.3888C19.0057 31.0689 18.7503 30.5634 19.1387 31.4792C19.3385 31.9505 19.5245 32.1074 19.295 32.4962C19.3554 33.1451 19.1497 33.7312 19.0551 34.3875L18.672 36.2285C18.4249 35.9318 17.8387 35.0461 17.6929 34.5604C17.0554 33.4425 16.0846 31.6771 15.6627 30.3403C15.3681 29.7573 14.7682 28.1704 14.6796 27.4647L13.2731 27.8729Z" fill="#ffffff" class="fa-primary"></path>
                  <path fill-rule="evenodd" clip-rule="evenodd" d="M14.2261 2.1577L14.0023 2.9627L13.4179 3.14505C12.7237 3.62608 12.3397 3.70778 11.7971 4.328C11.2683 4.93277 11.1681 5.34577 10.8214 6.14103C10.5793 7.26249 10.4888 8.07687 10.5204 9.30425L10.5263 10.6568C10.7678 10.9902 10.7425 11.3159 10.8214 11.7944L11.0707 12.9977L10.119 13.2071L9.93787 14.5658L10.4063 16.1816C10.6952 16.3401 10.7118 16.5413 10.9057 16.792C11.1155 17.0635 11.3101 17.1792 11.5567 17.3647L12.5833 17.6563L12.7186 18.1326C13.0691 18.7756 13.3715 19.5237 13.7712 20.2619C14.1564 20.9734 14.7353 21.6591 15.0262 22.2411L15.5516 22.9244C15.7718 22.9993 15.6303 22.9316 15.8682 23.1501C16.0361 23.3041 16.1545 23.4081 16.3 23.5483L17.0877 24.2422C17.2219 24.3282 17.4403 24.481 17.4762 24.5052C18.1749 24.9136 18.6752 25.1831 19.5506 25.375L19.8793 25.5352C20.5939 25.4121 21.1725 25.5096 21.9862 25.311C22.7443 25.1259 22.9905 24.8679 23.6288 24.6401L24.0647 24.3988C24.4962 23.9791 24.9884 23.5984 25.4332 23.2155C25.6662 22.8838 25.8513 22.4996 26.3072 22.3171C26.4825 21.7075 27.0824 21.057 27.4669 20.3895C27.7655 19.8709 28.275 18.8724 28.5307 18.2673C28.7133 17.5377 28.6608 17.6755 29.326 17.5406C30.6419 17.0794 31.8785 14.9009 31.1136 13.1818L30.2501 12.9994L30.4235 12.1368L30.6343 10.3837L30.7232 8.22261L30.1772 6.06905C29.5291 5.18745 29.3615 3.79458 26.8636 2.18527C26.3303 1.84171 25.9481 1.67462 25.4138 1.35783C24.639 1.04485 23.9865 0.741911 23.1385 0.522424C22.5325 0.365548 20.9768 0.162298 20.5606 0H18.3791C17.6207 0.288292 16.7738 0.244172 15.8444 0.676441C15.1529 0.997866 14.5889 1.5308 14.2261 2.1577Z" fill="#ffffff" class="fa-primary"></path>
                  <path fill-rule="evenodd" clip-rule="evenodd" d="M48.0863 46.4199L47.9151 47.1573L47.392 48.4419L46.7818 49.3429C46.633 49.6162 46.5662 49.7004 46.3458 49.853C46.1869 50.1009 45.7223 50.4926 45.3871 50.6245C45.2379 50.8496 44.8202 51.0819 44.4769 51.1169C44.2961 51.3345 44.4156 51.2315 44.0793 51.3217C43.7909 51.5342 42.831 51.7191 42.3845 51.6459C42.2764 51.7405 42.3695 51.7041 42.1535 51.7385C42.1449 51.7399 41.9239 51.7471 41.9084 51.7468C41.7081 51.7428 41.5953 51.722 41.4408 51.6892C41.0549 51.852 39.217 51.1729 38.8905 50.8986C38.0049 50.5231 36.8382 49.3379 36.5128 48.465C36.1953 48.0574 35.7462 46.768 35.8397 46.1608C35.8177 46.1359 35.7576 46.2447 35.7284 45.7697C35.7207 45.643 35.732 45.4568 35.7373 45.3268C35.7489 45.0393 35.7628 44.8401 35.8073 44.5645C35.877 44.1309 35.9779 43.4454 36.2756 43.1862C36.3227 42.7561 36.7414 42.0534 37.0101 41.841C37.1513 41.5437 37.2197 41.4473 37.4528 41.3113C37.6864 40.9801 37.9537 40.7758 38.3279 40.5337L38.8474 40.2041C39.0872 40.0014 39.7034 39.7168 40.0746 39.6823C40.4167 39.3986 41.3351 39.3572 41.7245 39.3414L42.8583 39.4007C43.2274 39.4711 43.8151 39.5335 44.041 39.7927C44.7279 39.7903 45.9509 40.7899 46.2818 41.1205C46.6522 41.4905 47.5057 42.5236 47.6535 43.2385C47.8977 43.5603 48.0461 44.2231 48.0894 44.717L48.0863 46.4199ZM39.9817 37.4646L38.7575 37.8322C38.3381 38.152 37.7832 38.3506 37.3643 38.6193C35.3054 39.9399 34.7054 41.7083 34.358 41.9775C34.3438 42.3022 34.0557 42.8995 33.9428 43.3029C33.8086 43.7825 33.704 44.1738 33.704 44.717L33.6168 45.8311C33.6971 46.2757 33.6988 46.7461 33.8089 47.2247C33.9132 47.678 34.0642 48.0742 34.1399 48.4835L34.8184 49.8585C35.0156 50.0879 34.9164 49.978 34.9623 50.1584C35.2046 50.3072 35.5557 50.8365 35.6903 51.0787L36.2324 51.602C36.4615 51.7572 36.9238 52.1084 37.0663 52.3487C37.25 52.3954 37.2124 52.3702 37.421 52.5024C37.47 52.5335 37.5838 52.6276 37.6277 52.6668C37.9236 52.777 38.6288 53.0774 38.8099 53.3012C39.184 53.2986 39.6325 53.5273 40.0571 53.619C40.522 53.7194 40.8986 53.7463 41.3766 53.8086L42.7711 53.7808C43.7241 53.7459 44.6042 53.4347 45.3867 53.0835L46.1713 52.6699L46.7438 53.4756C47.1818 53.4744 47.5693 53.6313 47.8698 53.3032C48.292 53.9259 48.777 54.3737 49.2788 54.857L52.2526 57.8114C53.3929 58.9516 52.7588 58.3917 53.7984 59.0971H54.4119C54.7679 58.8555 54.8288 59.0002 55.1764 58.5991C55.4226 58.315 55.4854 58.0136 55.5001 57.6156C55.3793 56.7309 55.0038 56.7972 54.7217 56.2821L54.5672 56.1277C54.2443 55.9424 53.628 55.3049 53.4076 55.001C53.2118 54.8895 53.2962 54.9346 53.2534 54.8204C52.9772 54.6632 52.2592 53.9469 52.1062 53.6676L51.9517 53.5132C51.6288 53.328 51.0125 52.6903 50.7921 52.3864C50.5962 52.2749 50.6807 52.32 50.6378 52.2059C50.3754 52.0565 50.3873 51.9904 50.1651 51.7942C50.0223 51.6682 49.8269 51.5509 49.6967 51.4657C49.8308 51.2863 49.7768 51.2707 49.9637 51.117C49.8981 50.7169 49.9326 50.4635 49.685 50.1813C49.4598 49.9247 49.2731 49.9319 49.0825 49.7733L49.2228 49.5104C49.3278 49.3179 49.4101 49.1581 49.509 48.9267C49.608 48.6953 49.6174 48.5675 49.7892 48.4154C49.7979 48.0316 50.0286 47.4984 50.0977 47.0232L50.2097 44.8918L50.2252 44.3306C50.1242 44.2298 50.1702 44.2929 50.1051 44.0962C50.0877 44.0437 50.0453 43.8179 50.0417 43.8002C49.9964 43.581 49.9572 43.4444 49.9202 43.2354L49.5044 42.0091C49.3814 41.8963 49.49 42.0393 49.3374 41.8083C49.2657 41.6999 49.2673 41.6695 49.2228 41.5796C49.0724 41.2988 48.8539 40.9761 48.7197 40.7018C48.6 40.6005 48.6245 40.6288 48.4939 40.4713C48.4265 40.39 48.4034 40.3479 48.3455 40.2722C48.211 40.0963 48.1082 39.9931 48.0022 39.8366L47.479 39.3205C47.207 39.1434 46.9284 38.9361 46.6944 38.7036C46.4454 38.5915 46.3673 38.5086 46.148 38.3825C45.9464 38.2666 45.7769 38.1952 45.6013 38.0904L45.477 38.0064C45.208 37.9306 45.0072 37.8145 44.7258 37.7156C44.4602 37.6225 44.1783 37.5565 43.9046 37.4835C43.6364 37.4214 43.3684 37.3635 43.1075 37.3347C42.9391 37.3161 42.7614 37.3201 42.5964 37.2926C42.1602 37.2198 42.4231 37.2999 42.2859 37.1786C42.0461 37.2741 41.8397 37.2741 41.5998 37.1786L39.9817 37.4646Z" fill="#ffffff" class="fa-primary"></path>
                  <path d="M45.1435 44.2412H38.8336C38.1084 44.2412 37.5205 44.7572 37.5205 45.3938C37.5205 46.0304 38.1084 46.5464 38.8336 46.5464H45.1435C45.8687 46.5464 46.4566 46.0304 46.4566 45.3938C46.4566 44.7572 45.8687 44.2412 45.1435 44.2412Z" fill="#ffffff" class="fa-primary"></path>
                  <path d="M40.8358 42.2396L40.8358 48.5472C40.8358 49.2721 41.3521 49.8597 41.9889 49.8597C42.6257 49.8597 43.1419 49.2721 43.1419 48.5472L43.1419 42.2396C43.1419 41.5147 42.6257 40.927 41.9889 40.927C41.3521 40.927 40.8358 41.5147 40.8358 42.2396Z" fill="#ffffff" class="fa-primary"></path>
                </svg>