<svg width="45" height="45" viewBox="0 0 45 46" fill="none" xmlns="http://www.w3.org/2000/svg">
                  <path d="M13.5 23.498C17.8523 23.498 21.375 19.0947 21.375 13.6543C21.375 8.21387 17.8523 3.81055 13.5 3.81055C9.14766 3.81055 5.625 8.21387 5.625 13.6543C5.625 19.0947 9.14766 23.498 13.5 23.498ZM18.9 26.3105H18.3164C16.8539 27.1895 15.2297 27.7168 13.5 27.7168C11.7703 27.7168 10.1531 27.1895 8.68359 26.3105H8.1C3.62812 26.3105 0 30.8457 0 36.4355V38.9668C0 41.2959 1.51172 43.1855 3.375 43.1855H23.625C25.4883 43.1855 27 41.2959 27 38.9668V36.4355C27 30.8457 23.3719 26.3105 18.9 26.3105ZM33.75 23.498C37.4766 23.498 40.5 19.7188 40.5 15.0605C40.5 10.4023 37.4766 6.62305 33.75 6.62305C30.0234 6.62305 27 10.4023 27 15.0605C27 19.7188 30.0234 23.498 33.75 23.498ZM37.125 26.3105H36.8578C35.8805 26.7324 34.8469 27.0137 33.75 27.0137C32.6531 27.0137 31.6195 26.7324 30.6422 26.3105H30.375C28.9406 26.3105 27.6187 26.8291 26.4586 27.6641C28.1742 29.9756 29.25 33.043 29.25 36.4355V39.8105C29.25 40.0039 29.2148 40.1885 29.2078 40.373H41.625C43.4883 40.373 45 38.4834 45 36.1543C45 30.7139 41.4773 26.3105 37.125 26.3105Z" fill="#ffffff" class="fa-primary"></path>
                </svg>